<svg viewBox="0 0 74.06 122.88" xmlns="http://www.w3.org/2000/svg"><path d="m4.71 43.34c10.83 9.12 23.13 6.11 35.71 3 9.26-2.26 18.66-4.56 27.84-2.19l.39.1-5.09 65.47a11.18 11.18 0 0 1 -3.16 7.06 9.46 9.46 0 0 1 -6.74 2.81h-32.58a9.25 9.25 0 0 1 -6.64-2.77 11.93 11.93 0 0 1 -3.27-7.09l-7.39-67.17z"/><path d="m4.4 45.8c19 16 42.17-4.62 63.74 1l-5.06 65.06c-.4 5.17-4.24 9.43-9.42 9.43h-32.58c-5.18 0-8.86-4.28-9.42-9.43z" fill="#48c1ec" fill-rule="evenodd"/><path d="m0 14.11a1.47 1.47 0 0 1 0-.47 4.63 4.63 0 0 1 0-.64c0-3.93 4.4-7.3 11.51-9.58 6.56-2.12 15.59-3.42 25.49-3.42s19 1.3 25.56 3.41c7.11 2.28 11.5 5.65 11.5 9.58a5.52 5.52 0 0 1 -.32 1.84l-9 97.13a12.65 12.65 0 0 1 -3.54 7.79 10.48 10.48 0 0 1 -7.5 3.13h-32.62a10.39 10.39 0 0 1 -7.48-3.12 12.79 12.79 0 0 1 -3.6-7.76zm3.81 4.89 9.48 92.69a9.53 9.53 0 0 0 2.63 5.79 7.2 7.2 0 0 0 5.16 2.15h32.58a7.28 7.28 0 0 0 5.19-2.16 9.42 9.42 0 0 0 2.6-5.76l8.6-92.57a28.61 28.61 0 0 1 -7.49 3.48c-6.56 2.07-15.56 3.38-25.56 3.38s-19-1.3-25.52-3.41a28.08 28.08 0 0 1 -7.67-3.59zm66.7-4.86.07-.65a1.54 1.54 0 0 1 .19-.64c-.18-2.27-3.67-4.5-9.22-6.28-6.24-2.04-14.91-3.28-24.55-3.28s-18.25 1.24-24.49 3.24c-5.7 1.83-9.22 4.13-9.22 6.47s3.52 4.64 9.22 6.47c6.24 2 14.91 3.24 24.52 3.24s18.28-1.24 24.52-3.24c4.8-1.54 8-3.41 9-5.36z"/><path d="m14.46 62.79a1.64 1.64 0 1 1 3.27-.33l1.27 12.4a1.64 1.64 0 1 1 -3.26.33l-1.27-12.4zm2.17 21.21a1.64 1.64 0 0 1 3.27-.34l2.27 22.22a1.65 1.65 0 0 1 -1.47 1.8 1.63 1.63 0 0 1 -1.79-1.46z" fill="#fff"/></svg>