<svg clip-rule="evenodd" fill-rule="evenodd" image-rendering="optimizeQuality" shape-rendering="geometricPrecision" text-rendering="geometricPrecision" viewBox="0 0 512 431.536" xmlns="http://www.w3.org/2000/svg"><path d="m466.961 106.067 45.039 45.039-89.367 89.367-45.039-45.038z" fill="#717f88"/><path d="m398.883 174.143 45.041 45.041-21.291 21.291-45.038-45.041z" fill="#5d6970"/><path d="m466.961 106.067-.584-.583c-14.354 6.312-31.722 3.593-43.479-8.163-11.755-11.756-14.474-29.124-8.163-43.479l-.326-.327-88.605 88.604c14.58-7.019 32.604-4.487 44.694 7.603 12.372 12.372 14.735 30.962 7.094 45.711l.002.002z" fill="#5d6970"/><path d="m156.315 311.608-37.135-37.135 174.483-174.483c-20.816-25.623-57.624-33.332-96.657-12.331l-34.698-34.698c73.885-73.884 182.295-67.443 252.101.554z" fill="#717f88"/><path d="m293.664 99.991c-20.818-25.625-57.623-33.332-96.657-12.333l-34.698-34.697c0-5.676 88.84-45.258 158.643 22.741z" fill="#5d6970"/><path d="m241.21 253.237-164.654 164.654c-41.959 41.959-104.005-22.514-63.259-63.259l164.654-164.654c41.991-41.991 106.44 20.078 63.259 63.259z" fill="#b58058"/><path d="m3.999 402.843c-6.764-14.952-5.723-33.191 9.298-48.211l164.654-164.654c15.479-15.48 34.007-16.81 49.076-10.163z" fill="#a3734f"/></svg>