<svg viewBox="0 0 92.53 122.88" xmlns="http://www.w3.org/2000/svg"><path d="m76.24 6.22h-59.95a10.11 10.11 0 0 0 -10.07 10.07v90.3a10.11 10.11 0 0 0 10.07 10.07h60a10.11 10.11 0 0 0 10.07-10.07v-90.3a10.11 10.11 0 0 0 -10.12-10.07z" fill="#fff"/><path d="m16.29 0h60a16.32 16.32 0 0 1 16.24 16.29v90.3a16.32 16.32 0 0 1 -16.29 16.29h-59.95a16.32 16.32 0 0 1 -16.29-16.29v-90.3a16.32 16.32 0 0 1 16.29-16.29zm60 6.22h-60a10.11 10.11 0 0 0 -10.07 10.07v90.3a10.11 10.11 0 0 0 10.07 10.07h60a10.11 10.11 0 0 0 10.07-10.07v-90.3a10.11 10.11 0 0 0 -10.12-10.07z" fill="#d92d27"/><path d="m64.22 67.93v-5.42l-5.52-13.65h5.16l3 8.57 3-8.57h5l-5.66 13.65v5.42zm-40.59 16.5h28.65v-6.09a2.19 2.19 0 0 1 .87-1.86c1.46-1 2.91.37 3.93 1.29 2.88 2.61 9.49 9.39 11 10.69a2.15 2.15 0 0 1 0 3.36c-1.56 1.34-8.49 8.45-11.29 10.94-1 .87-2.3 1.94-3.65 1a2.16 2.16 0 0 1 -.87-1.86v-6.05h-28.64zm39.64-44.36a9.55 9.55 0 0 1 -1.47-.13 4.92 4.92 0 0 1 -1.67-.56 3.5 3.5 0 0 1 -1.35-1.38 4.91 4.91 0 0 1 -.54-2.5v-10a5.38 5.38 0 0 1 .44-2.31 3.71 3.71 0 0 1 1.13-1.45 4.33 4.33 0 0 1 1.54-.75 6.79 6.79 0 0 1 1.65-.15c1.44 0 2.67 0 3.71.07s1.93.09 2.7.14 1.43.11 2 .18v4.21h-6.88a1.44 1.44 0 0 0 -1 .28 1 1 0 0 0 -.34.85v1.59l6.91.26v3.95l-6.91.26v1.44a1.79 1.79 0 0 0 .14.75 1 1 0 0 0 .4.44 1.2 1.2 0 0 0 .57.14h7.08v4.21c-.73.1-1.57.19-2.51.26s-1.87.13-2.87.13-1.89 0-2.75 0zm-34 0a14.38 14.38 0 0 1 -3.55-.39 5.62 5.62 0 0 1 -2.56-1.43 6.4 6.4 0 0 1 -1.54-2.94 19.65 19.65 0 0 1 -.51-4.94 19.65 19.65 0 0 1 .51-4.94 6.4 6.4 0 0 1 1.54-2.94 5.53 5.53 0 0 1 2.56-1.43 14.35 14.35 0 0 1 3.55-.4 14.49 14.49 0 0 1 3.56.4 5.45 5.45 0 0 1 2.55 1.43 6.31 6.31 0 0 1 1.54 2.94 19.59 19.59 0 0 1 .52 4.94 19.59 19.59 0 0 1 -.52 4.94 6.31 6.31 0 0 1 -1.54 2.94 5.53 5.53 0 0 1 -2.55 1.43 14.52 14.52 0 0 1 -3.56.39zm0-4.46a4.44 4.44 0 0 0 1.59-.24 1.84 1.84 0 0 0 1-.79 4.16 4.16 0 0 0 .46-1.58 18.79 18.79 0 0 0 .15-2.62 19.56 19.56 0 0 0 -.15-2.7 4 4 0 0 0 -.48-1.58 1.77 1.77 0 0 0 -1-.75 5 5 0 0 0 -1.59-.21 5.08 5.08 0 0 0 -1.58.21 1.74 1.74 0 0 0 -1 .75 4 4 0 0 0 -.49 1.58 21.56 21.56 0 0 0 -.14 2.7 20.73 20.73 0 0 0 .2 2.62 4.15 4.15 0 0 0 .49 1.59 1.8 1.8 0 0 0 1 .79 4.49 4.49 0 0 0 1.58.24zm10.5 4.31v-19.08h4l6.7 10.63v-10.63h5v19.08h-4l-6.7-10.63v10.63zm-17.61 28-4.35-19.06h5.19l2.36 11.6 2.85-11.6h4.47l2.82 11.6 2.36-11.6h5.14l-4.37 19.07h-5l-3.22-11.65-3.26 11.65zm20.18 0 5.66-19.06h6.21l5.65 19.07h-5.16l-.77-3h-5.73l-.74 3zm7-7.5h3.41l-1.72-7.34z"/></svg>