<svg viewBox="0 0 122.88 122.88" xmlns="http://www.w3.org/2000/svg"><path d="m118.2.53 4.15 4.15a1.85 1.85 0 0 1 0 2.59l-6.64 6.64-6.71-6.74 6.61-6.64a1.84 1.84 0 0 1 2.59 0zm-115.46 118.66 1 1a.65.65 0 0 1 0 .93l-2.14 1.63a.74.74 0 0 1 -.94 0l-.45-.45a.71.71 0 0 1 0-.93l1.64-2.14a.63.63 0 0 1 .93 0zm60.46-73 13.49 13.49c-26.69 26.19-45.29 43.04-71.39 60.22l-2.42-2.43c17.2-26.75 34.12-45.08 60.32-71.28zm31.7-40.77 3.18 3.18-6.87 6.88-1.21-1.21a2.31 2.31 0 0 0 -3.26 0l-40.29 40.28a4 4 0 0 1 -2-2.8l44.09-46.33a4.47 4.47 0 0 1 6.36 0zm10.36 2.94 9.26 9.26a3 3 0 0 1 0 4.23l-35.73 35.73-5.51-5.5 32.36-32.37a1.36 1.36 0 0 0 0-1.9l-.57-.57a1.33 1.33 0 0 0 -1.9 0l-32.36 32.36-5.51-5.5 35.7-35.74a3 3 0 0 1 4.23 0z" fill-rule="evenodd"/></svg>