<svg enable-background="new 0 0 103.05 122.88" viewBox="0 0 103.05 122.88" xmlns="http://www.w3.org/2000/svg"><path d="m28.39 28.72c.13.55-.22 1.09-.76 1.21-.55.12-1.09-.22-1.21-.76-.23-.99-.18-1.88.06-2.7.24-.8.66-1.51 1.19-2.16.35-.43.99-.5 1.42-.15.05.04.1.09.14.14 1.51 1.59 3.25 2.53 4.9 2.78.79.12 1.56.08 2.27-.12.7-.2 1.33-.55 1.88-1.05.9-.85 1.57-2.14 1.84-3.91.08-.55.6-.94 1.15-.85.21.03.39.12.53.25 1.44 1.19 2.85 1.81 4.23 1.87 1.39.06 2.81-.44 4.24-1.49.44-.32 1.05-.23 1.38.18 1.88 2.34 3.69 3.34 5.44 3.16 1.82-.19 3.7-1.63 5.64-4.15.22-.29.58-.43.92-.39 4.14.49 6.63-.72 7.8-2.49.65-.99.9-2.16.8-3.32-.1-1.17-.55-2.3-1.3-3.19-1.25-1.48-3.36-2.3-6.11-1.46-.39.12-.8-.01-1.06-.3-1.5-1.71-2.99-2.92-4.42-3.62-1.14-.57-2.23-.81-3.23-.72-.97.08-1.87.48-2.68 1.19-.71.62-1.35 1.49-1.9 2.6-.24.48-.8.69-1.28.49-.77-.31-1.53-.51-2.28-.61s-1.5-.1-2.25 0c-.48.06-.92-.21-1.08-.64-1.04-2.72-2.43-4.01-4.03-4.36-1.68-.37-3.72.21-5.91 1.22-.43.2-.93.07-1.21-.29-1.67-1.76-3.65-2.72-5.56-2.98-1.41-.19-2.78-.01-3.96.5-1.16.5-2.14 1.32-2.8 2.42-.74 1.24-1.08 2.85-.8 4.78.08.55-.31 1.07-.86 1.15h-.03c-2.88.33-4.85 1.92-5.67 3.76-.31.7-.46 1.44-.42 2.15.03.69.24 1.35.63 1.94.93 1.4 2.94 2.38 6.2 2.24.56-.02 1.03.41 1.05.97.01.27-.09.53-.26.72-.66.75-1.22 1.52-1.66 2.31-.43.77-.74 1.57-.92 2.4-.11.55-.65.9-1.2.79s-.9-.65-.79-1.2c.22-1.03.6-2.02 1.13-2.97.2-.36.41-.7.65-1.05-2.9-.29-4.83-1.5-5.9-3.09-.6-.9-.92-1.92-.97-2.97-.05-1.02.15-2.08.6-3.07.99-2.21 3.16-4.14 6.3-4.79-.11-1.99.33-3.71 1.17-5.11.88-1.47 2.19-2.57 3.73-3.24 1.52-.66 3.26-.89 5.03-.65 2.17.3 4.39 1.31 6.3 3.14 2.32-1 4.54-1.51 6.55-1.07 2.11.47 3.89 1.93 5.2 4.9.67-.04 1.34-.01 2 .08.64.09 1.28.23 1.91.43.58-.98 1.23-1.79 1.96-2.43 1.14-1 2.44-1.56 3.84-1.69 1.37-.12 2.82.19 4.3.92 1.52.75 3.08 1.96 4.62 3.64 3.35-.8 5.99.33 7.62 2.27 1.03 1.22 1.64 2.76 1.78 4.33.13 1.58-.22 3.21-1.13 4.6-1.49 2.27-4.45 3.86-9.15 3.45-2.17 2.69-4.39 4.24-6.68 4.48-2.26.24-4.47-.78-6.63-3.19-1.56.96-3.13 1.42-4.73 1.35-1.41-.06-2.81-.53-4.19-1.41-.45 1.47-1.19 2.64-2.11 3.5-.79.74-1.71 1.25-2.71 1.53-.99.28-2.04.34-3.12.17-1.76-.27-3.57-1.12-5.2-2.56-.08.17-.15.34-.2.51-.16.5-.19 1.06-.04 1.68zm-28.39 89.03h93.74v5.13h-93.74zm46.86-72.75-1.11 10.68h12l-1.11-10.68zm-31.55-13.73-1.55 14.92h16.76l-1.55-14.92zm-1.84 17.76-.76 7.32h18.87l-.76-7.32zm-1.05 10.17-1.13 10.59-7.06-1.3v46.7h85.28v-31.04l-29.79-5.47-1.01-13.69h-13.92l-.68 10.82-10.68-1.96-1.56-14.65zm33.12-1.48-.54 5.24h13.5l-.54-5.24zm10.67 33.03h14.25v17.12h-14.25zm-18.29 0h14.25v17.12h-14.25zm-18.29 0h14.25v17.12h-14.25zm57.14-71.22c-.51-.22-.75-.82-.52-1.33.22-.51.82-.75 1.33-.52.37.16.68.37.99.59.55-1.32 1.33-2.41 2.24-3.24 1.13-1.02 2.47-1.64 3.87-1.8s2.86.13 4.22.93c1.21.71 2.34 1.82 3.27 3.36 4.32-.92 7.34.35 9.1 2.46 1.25 1.5 1.83 3.42 1.78 5.28-.05 1.89-.75 3.73-2.07 5.07-1.72 1.74-4.45 2.62-8.11 1.57-.88 1.68-2.18 2.96-3.66 3.76-.98.54-2.04.86-3.09.96-1.08.1-2.15-.04-3.15-.45-1.12-.45-2.14-1.23-2.94-2.36-1.59.58-3.14.95-4.65 1-1.5.05-2.95-.22-4.33-.89-1.66 2.52-3.61 4.04-5.87 4.51-2.04.42-4.27-.04-6.7-1.43v5.31c0 .56-.45 1.02-1.02 1.02h-7.73c-.56 0-1.02-.45-1.02-1.02v-9.34c-1-.09-1.98-.36-2.93-.78-1.25-.56-2.44-1.39-3.59-2.49-.41-.39-.42-1.03-.04-1.43.39-.41 1.03-.42 1.43-.04.98.94 1.99 1.65 3.02 2.11.98.44 1.98.65 3.01.64.06.02.09.02.13.02.56 0 1.02.45 1.02 1.02v9.3h5.7v-6.16c0-.2.06-.41.19-.59.32-.46.96-.56 1.41-.24 2.57 1.84 4.81 2.53 6.72 2.13 1.9-.39 3.57-1.88 5.04-4.4l.02-.03c.3-.47.93-.61 1.4-.31 1.27.81 2.64 1.12 4.08 1.08 1.49-.05 3.07-.47 4.7-1.14.48-.22 1.06-.04 1.32.43.61 1.11 1.45 1.83 2.39 2.21.7.28 1.45.38 2.21.31.78-.07 1.57-.32 2.31-.72 1.32-.72 2.46-1.94 3.13-3.57.19-.52.76-.79 1.29-.61 3.24 1.15 5.53.56 6.87-.8.95-.96 1.45-2.31 1.49-3.7.04-1.41-.39-2.84-1.31-3.94-1.39-1.67-3.95-2.61-7.76-1.63-.46.14-.96-.06-1.19-.5-.82-1.56-1.82-2.62-2.89-3.25-.96-.57-1.99-.78-2.97-.66-.98.11-1.93.56-2.74 1.28-.92.83-1.66 2.03-2.08 3.55-.01.05-.03.09-.05.14-.23.51-.82.74-1.33.52-.44-.19-.79-.45-1.14-.7-.29-.19-.56-.38-.8-.49z"/></svg>