<svg clip-rule="evenodd" fill-rule="evenodd" image-rendering="optimizeQuality" shape-rendering="geometricPrecision" text-rendering="geometricPrecision" viewBox="0 0 512 409.39" xmlns="http://www.w3.org/2000/svg"><path d="m494.93 409.39h-477.91v-.05c-3.19 0-6.4-.89-9.27-2.75-7.88-5.12-10.12-15.66-5-23.54l242.55-374.45c1.36-2.39 3.31-4.48 5.8-6.03 7.99-4.97 18.51-2.52 23.48 5.47l234.27 374.39c1.98 2.79 3.15 6.2 3.15 9.89 0 9.42-7.65 17.07-17.07 17.07z" fill-rule="nonzero"/><path d="m20.26 392.32 54.15-71.55 82.86-145.28 47.62-55.05 24.13-53.38 31.05-50.02v.01l.01-.01 234.82 375.28z" fill="#a0a0a0"/><path d="m144.91 405.04h225.34l-24.05-120.76c-.45-2.78-1.46-4.24-3.32-6.16l-64.28-66.28c-3.6-3.71-5.45-4.35-10.19-.88l-87.4 63.92c-2.65 1.94-3.47 2.56-4.59 5.71z" fill="#333"/><path d="m144.91 405.04h197.82l-21.23-106.65c-.45-2.78-1.46-4.24-3.32-6.15l-64.29-66.29c-1.01-1.04-1.88-1.84-2.73-2.38l-61.62 41.93c-2.65 1.93-12 11.94-13.12 15.09z"/></svg>