<svg enable-background="new 0 0 120.49 122.88" viewBox="0 0 120.49 122.88" xmlns="http://www.w3.org/2000/svg"><path d="m60.24 0c16.45 0 31.39 6.74 42.25 17.63 11.12 11.15 17.99 26.63 17.99 43.81s-6.88 32.66-17.99 43.81c-10.86 10.89-25.81 17.63-42.25 17.63-16.45 0-31.39-6.74-42.25-17.63-11.11-11.15-17.99-26.63-17.99-43.81s6.88-32.66 17.99-43.81c10.86-10.89 25.81-17.63 42.25-17.63z" fill="#3e9c2a"/><path clip-rule="evenodd" d="m60.24 6.7c30.15 0 54.59 24.51 54.59 54.75 0 30.23-24.44 54.74-54.59 54.74s-54.59-24.51-54.59-54.75c0-30.23 24.44-54.74 54.59-54.74z" fill="#72bd39" fill-rule="evenodd"/><path d="m57.61 55.12h-13.38v-4.37c0-2.75-.12-4.47-.37-5.16-.25-.7-.85-1.04-1.77-1.04-.8 0-1.35.29-1.64.89-.29.59-.43 2.11-.43 4.57v23.04c0 2.14.14 3.57.43 4.25s.86 1.02 1.73 1.02c.95 0 1.59-.38 1.94-1.15.33-.77.51-2.28.51-4.51v-5.69h-2.6v-7.29h15.58v25.76h-8.41l-1.23-3.44c-.91 1.49-2.06 2.6-3.43 3.35-1.39.75-3.02 1.13-4.89 1.13-2.24 0-4.33-.51-6.29-1.53-1.95-1.02-3.43-2.28-4.44-3.79-1.02-1.5-1.64-3.08-1.9-4.73-.25-1.65-.38-4.13-.38-7.43v-14.28c0-4.59.26-7.92.79-9.99.53-2.09 2.05-3.99 4.54-5.72 2.5-1.73 5.74-2.59 9.71-2.59 3.9 0 7.14.75 9.72 2.26s4.26 3.29 5.04 5.36c.78 2.08 1.17 5.07 1.17 9.02zm36.24 10.43c0 4.83-.12 8.24-.37 10.25-.24 2.01-1 3.85-2.27 5.51-1.28 1.66-3.01 2.94-5.18 3.83-2.18.89-4.71 1.34-7.6 1.34-2.75 0-5.21-.43-7.39-1.27s-3.95-2.1-5.27-3.78c-1.33-1.68-2.12-3.51-2.38-5.49-.25-1.98-.38-5.45-.38-10.39v-8.22c0-4.83.12-8.24.37-10.25.24-2.01 1-3.85 2.27-5.51 1.28-1.66 3.01-2.94 5.18-3.83s4.71-1.34 7.6-1.34c2.75 0 5.2.42 7.39 1.27 2.18.84 3.95 2.1 5.27 3.78 1.33 1.68 2.12 3.51 2.38 5.49.25 1.98.38 5.45.38 10.39zm-13.38-15.78c0-2.23-.13-3.66-.39-4.28s-.79-.93-1.59-.93c-.68 0-1.2.25-1.57.76-.36.5-.54 1.98-.54 4.46v22.42c0 2.79.12 4.51.36 5.15.24.66.79.98 1.66.98.88 0 1.46-.37 1.71-1.12s.37-2.54.37-5.37v-22.07z" style="fill:none;stroke:#3e9c2a;stroke-width:2.8799;stroke-linecap:round;stroke-linejoin:round;stroke-miterlimit:2.6131"/><path d="m57.61 55.12h-13.38v-4.37c0-2.75-.12-4.47-.37-5.16-.25-.7-.85-1.04-1.77-1.04-.8 0-1.35.29-1.64.89-.29.59-.43 2.11-.43 4.57v23.04c0 2.14.14 3.57.43 4.25s.86 1.02 1.73 1.02c.95 0 1.59-.38 1.94-1.15.33-.77.51-2.28.51-4.51v-5.69h-2.6v-7.29h15.58v25.76h-8.41l-1.23-3.44c-.91 1.49-2.06 2.6-3.43 3.35-1.39.75-3.02 1.13-4.89 1.13-2.24 0-4.33-.51-6.29-1.53-1.95-1.02-3.43-2.28-4.44-3.79-1.02-1.5-1.64-3.08-1.9-4.73-.25-1.65-.38-4.13-.38-7.43v-14.28c0-4.59.26-7.92.79-9.99.53-2.09 2.05-3.99 4.54-5.72 2.5-1.73 5.74-2.59 9.71-2.59 3.9 0 7.14.75 9.72 2.26s4.26 3.29 5.04 5.36c.78 2.08 1.17 5.07 1.17 9.02zm36.24 10.43c0 4.83-.12 8.24-.37 10.25-.24 2.01-1 3.85-2.27 5.51-1.28 1.66-3.01 2.94-5.18 3.83-2.18.89-4.71 1.34-7.6 1.34-2.75 0-5.21-.43-7.39-1.27s-3.95-2.1-5.27-3.78c-1.33-1.68-2.12-3.51-2.38-5.49-.25-1.98-.38-5.45-.38-10.39v-8.22c0-4.83.12-8.24.37-10.25.24-2.01 1-3.85 2.27-5.51 1.28-1.66 3.01-2.94 5.18-3.83s4.71-1.34 7.6-1.34c2.75 0 5.2.42 7.39 1.27 2.18.84 3.95 2.1 5.27 3.78 1.33 1.68 2.12 3.51 2.38 5.49.25 1.98.38 5.45.38 10.39zm-13.38-15.78c0-2.23-.13-3.66-.39-4.28s-.79-.93-1.59-.93c-.68 0-1.2.25-1.57.76-.36.5-.54 1.98-.54 4.46v22.42c0 2.79.12 4.51.36 5.15.24.66.79.98 1.66.98.88 0 1.46-.37 1.71-1.12s.37-2.54.37-5.37v-22.07z" fill="#fff"/></svg>