<svg enable-background="new 0 0 117.92 122.88" viewBox="0 0 117.92 122.88" xmlns="http://www.w3.org/2000/svg"><path d="m13.54 97.85c-5.05 6.71-9.37 12.31-11.71 18.72-2.29 6.25-3.22 9.12 1.97 2.62 4.84-6.04 9.37-11.92 15.97-17.47.46.12.97.21 1.48.32 59.87 11.9 103.45-15.02 95.79-102.04-46.08 15.97-111.36 9.47-104.61 91.26.26 3.03.49 5.11 1.11 6.59zm14.18-11.75c15.65-33.71 55.85-45.26 75.79-68.3-21.6 42.12-39.28 44.19-75.79 68.3z" fill="#89bf3f"/><path d="m27.72 86.1c15.65-33.71 55.85-45.26 75.79-68.3-21.6 42.12-39.28 44.19-75.79 68.3z" fill="#4ca71e"/></svg>