<svg viewBox="0 0 101.46 122.88" xmlns="http://www.w3.org/2000/svg"><path d="m42.6 114.51a46.35 46.35 0 0 0 23.82-3.13 50.7 50.7 0 0 0 8.37-4.38l.7 6.9a55.44 55.44 0 0 1 -6.71 3.27 52.53 52.53 0 0 1 -27 3.52 45.4 45.4 0 0 1 -26-13.18 55 55 0 0 1 -14.62-27.29 52.92 52.92 0 0 1 5.71-37 54.1 54.1 0 0 1 28.82-24.46 26.41 26.41 0 0 1 12.43-1.76 13.43 13.43 0 0 1 9.34 5.38 3.42 3.42 0 0 1 .33.59c2.91 6.65-.63 10.82-4 14.8-2 2.3-3.81 4.5-2.71 6.6.46.9 1.61 1.58 3.26 2a19.72 19.72 0 0 0 7.93.11c2.58-.41 5.25-1 7.79-1.51 1.54-.33 3-.65 4.5-.93l-2 6.81-1.22.26c-2.52.53-5.17 1.09-8.11 1.56a26.22 26.22 0 0 1 -10.48-.23c-3.38-.88-5.92-2.65-7.24-5.18-3.05-5.85.14-9.61 3.47-13.55 2.07-2.44 4.24-5 3.19-7.92a7.4 7.4 0 0 0 -4.92-2.59 20.41 20.41 0 0 0 -9.46 1.4 47.9 47.9 0 0 0 -25.45 21.64 46.78 46.78 0 0 0 -5 32.68 48.77 48.77 0 0 0 12.9 24.2 39.12 39.12 0 0 0 22.36 11.39z" fill="#1a1a1a"/><g fill-rule="evenodd"><path d="m22.1 55.71a9 9 0 1 0 5.18-11.71 9 9 0 0 0 -5.18 11.71z" fill="#efaa3a"/><path d="m16.76 82.51a9.1 9.1 0 1 0 5.24-11.76 9.1 9.1 0 0 0 -5.22 11.76z" fill="#25a700"/><path d="m62.07 81.66a10.4 10.4 0 0 0 10.8 6.6l-2.11-20.69a10.17 10.17 0 0 0 -2.72.65 10.39 10.39 0 0 0 -6 13.44z" fill="#e22952"/><path d="m89.52 0c-.77 12.18-16.75 19.69-11.11 32.37a14.14 14.14 0 0 0 8.46 7.57 9.07 9.07 0 0 0 6.58-.42c8.3-3.76 9.29-13.94 6.84-21.77-2.29-7.21-7.21-13.58-10.77-17.75zm10.66 62.89a46.07 46.07 0 0 1 -19.92.19l5.4 52.92a13.45 13.45 0 0 0 .56 3.36 5.19 5.19 0 0 0 8.54 2 6.07 6.07 0 0 0 1.43-3.88l4-54.6zm-5.4-17.83c-2.51 1-7 1.59-10.21 0l-4.21 14.52c7 1.56 13.82 1.85 20.38 0-3.26-6.33-3.52-7-6-14.47z" fill="#1a1a1a"/><path d="m40.75 101.59a9.1 9.1 0 1 0 5.25-11.76 9.1 9.1 0 0 0 -5.22 11.76z" fill="#42a3cc"/></g></svg>