<svg clip-rule="evenodd" fill-rule="evenodd" image-rendering="optimizeQuality" shape-rendering="geometricPrecision" text-rendering="geometricPrecision" viewBox="0 0 512 405.08" xmlns="http://www.w3.org/2000/svg"><path d="m168.52 41.66c-42.28-3.45-85.05-11.09-127.95-20.44l52.44 146.3z" fill="#f7941d"/><path d="m320.88 44.17c-42.37 1.97-85.77 3.83-129.51.03l66.14 147.12z" fill="#ef5651"/><path d="m339.27 43.07c42.28-3.45 90.33-12.02 133.23-21.37l-49.58 148.68z" fill="#43a047"/><path d="m253.7 260.91c-42.42-.23-85.65-4.59-129.14-10.65l63.41 141.89z" fill="#f7941d"/><path d="m405.94 253.54c-42.11 5.18-85.23 10.34-129.14 9.88l77.14 141.66z" fill="#43a047"/><path d="m0 .02c83.54 22.13 171.5 34.97 255.29 35.3 83.81.32 172.31-11.9 256.71-35.32v17.59c-85.78 23.82-171.35 35.07-256.71 34.74-85.39-.33-170.48-12.24-255.29-34.71zm95.94 233.39c48.93 10.51 109.34 15.78 165.64 15.86 63.09.09 128.57-5.86 179.68-15.12v17.14c-51.9 9.43-115.57 15.09-179.68 15-57.53-.08-115.45-4.78-165.64-15.52z" fill="#633" fill-rule="nonzero"/></svg>