<svg enable-background="new 0 0 122.88 122.88" viewBox="0 0 122.88 122.88" xmlns="http://www.w3.org/2000/svg"><g clip-rule="evenodd" fill-rule="evenodd"><path d="m45.54 2.11c32.77-8.78 66.45 10.67 75.23 43.43 8.78 32.77-10.67 66.45-43.43 75.23-32.77 8.78-66.45-10.67-75.23-43.43-8.78-32.77 10.66-66.45 43.43-75.23z" fill="#fbd433"/><path d="m51.7 33.16c.81.19 1.48.61 2.03 1.17 2.95-1.65 5.82-2.4 8.62-2.34 2.45.06 4.78.71 7 1.91 3.2-5.16 23.4-4.51 27.69-.76.63.15 1.17.42 1.63.8l9.83 2.38-7.1 5.65c.06.92.07 1.81.07 2.65 0 9.45-7.66 16.44-17.09 16.44-9.44 0-17.09-6.99-17.09-16.44 0-1.99.03-3.68.16-5.12-1.7-1.1-3.44-1.71-5.22-1.74-1.97-.05-4.09.6-6.37 2.02.23 1.63.28 3.35.28 4.85 0 9.45-7.66 16.44-17.09 16.44-9.45 0-17.09-6.99-17.09-16.44 0-1.08.01-2.06.03-2.98l-7.63-6 10.22-2.26c3.43-4.6 23.06-3.73 27.12-.23zm-23.09 43.25c16.69 19.06 51.02 19.23 65.78-.04l2.41 2.39c-16.54 28.07-51.56 29.06-70.7.15z" fill="#141518"/></g></svg>