<svg enable-background="new 0 0 122.04 122.88" viewBox="0 0 122.04 122.88" xmlns="http://www.w3.org/2000/svg"><path clip-rule="evenodd" d="m117.31 9.3v39.28h-39.28-4.63l3.27-3.28 11.45-11.45c-.75-.73-1.54-1.44-2.36-2.11-1.08-.88-2.22-1.72-3.38-2.48-6.02-3.93-13.21-6.21-20.94-6.21h-.01v-.01c-10.59 0-20.18 4.3-27.12 11.24s-11.24 16.53-11.24 27.11h.01v.05h-.01c0 10.59 4.3 20.19 11.24 27.12 6.94 6.94 16.53 11.24 27.11 11.24v-.01h.08v.01c3.7 0 7.39-.54 10.93-1.59 1.95-.58 3.87-1.33 5.71-2.22 9.39-4.54 16.65-12.8 19.87-22.87l.43-1.33h23.61l-.47 2.3-.01.06v.01c-.81 3.84-2.01 7.62-3.54 11.24v.01c-1.5 3.55-3.37 6.98-5.52 10.19-11.02 16.43-29.78 27.26-51.05 27.26h-.02v-.01c-16.96 0-32.33-6.88-43.43-17.99v-.01c-11.12-11.08-17.99-26.43-18-43.38h-.01v-.05h.01c0-16.96 6.88-32.32 18-43.43 11.1-11.1 26.45-17.97 43.4-17.98v-.01h.06v.01c8.71 0 17.01 1.83 24.51 5.1 1.21.53 2.43 1.1 3.6 1.71 5.48 2.83 10.47 6.46 14.83 10.74l9.61-9.61 3.27-3.27v4.62z" fill-rule="evenodd"/></svg>