<svg enable-background="new 0 0 122.88 93.12" viewBox="0 0 122.88 93.12" xmlns="http://www.w3.org/2000/svg"><path clip-rule="evenodd" d="m96.67 40.7c14.47 0 26.21 11.74 26.21 26.21s-11.74 26.21-26.21 26.21-26.21-11.74-26.21-26.21c0-9.33 4.88-17.53 12.23-22.17l-8.13-12.54h-32.24l-4.88 11.02c8.85 4.21 14.98 13.23 14.98 23.69 0 14.47-11.74 26.21-26.21 26.21s-26.21-11.74-26.21-26.21 11.74-26.21 26.21-26.21c1.22 0 2.41.08 3.59.24l6.32-14.3c.65-1.48 2.1-2.36 3.62-2.36h36.95c.72 0 1.39.19 1.98.53l7.92-16.87h-13.55c-2.19 0-3.96-1.78-3.96-3.96s1.77-3.98 3.96-3.98h19.76v.02c.56 0 1.13.12 1.67.37 1.98.92 2.83 3.27 1.9 5.25l-12.43 26.51 6.1 9.4c2.12-.56 4.34-.85 6.63-.85zm-69.84-34.29h20.79c1.29 0 2.47.53 3.33 1.39.86.87 1.4 2.07 1.4 3.39v2.22c0 1.33-.54 2.53-1.41 3.39-.85.85-2.03 1.39-3.33 1.39h-20.78c-1.29 0-2.47-.53-3.33-1.39-.87-.87-1.41-2.07-1.41-3.39v-2.21c0-1.33.54-2.53 1.41-3.39.85-.86 2.03-1.39 3.33-1.4zm7.4 44.07-6.55 14.8c-.88 2-3.22 2.91-5.22 2.03s-2.91-3.22-2.03-5.22l5.96-13.46c-.06 0-.12 0-.18 0-10.1 0-18.28 8.19-18.28 18.28s8.19 18.28 18.28 18.28c10.1 0 18.28-8.19 18.28-18.28 0-7.22-4.18-13.46-10.26-16.43zm60.47-1.75 6.36 9.79c1.19 1.83.67 4.28-1.16 5.47s-4.28.67-5.47-1.16l-7.43-11.44c-5.17 3.23-8.62 8.97-8.62 15.52 0 10.09 8.19 18.28 18.28 18.28 10.1 0 18.28-8.19 18.28-18.28 0-10.1-8.19-18.28-18.28-18.28-.65-.01-1.31.03-1.96.1z" fill-rule="evenodd"/></svg>