<svg enable-background="new 0 0 94.59 122.88" viewBox="0 0 94.59 122.88" xmlns="http://www.w3.org/2000/svg"><path d="m41.61 35.83c-.02-.28-.04-.57-.05-.84-9.11.91-20.92-4.69-26.89-11.31-5.21-5.77-7.45-13.33-8.42-23.64 3.77-.15 7.53.1 11.31 1 14.46 3.43 22.39 15.35 23.97 29.34.28-6.23 1.95-11.48 4.69-15.71 3.57-5.52 8.93-9.23 15.41-11.04 2.13-.59 4.37-.97 6.67-1.15 1.9-.13 3.55 1.28 3.7 3.18.14 1.9-1.28 3.55-3.18 3.7s-3.69.44-5.35.9c-4.87 1.36-8.85 4.09-11.48 8.15-2.7 4.17-4.02 9.81-3.5 16.9l1.74 9.43-3.6 6.61-2.37-2.33-2.3-4.42c-.16-1.01-.26-7.73-.35-8.77z" fill="#89bf3f"/><path d="m58.09 68.34c-2.8-2.86-6.69-4.65-10.98-4.65-4.28 0-8.17 1.77-10.98 4.65-2.8 2.86-4.55 6.83-4.55 11.22s1.74 8.34 4.55 11.22c2.8 2.86 6.68 4.65 10.98 4.65 4.28 0 8.17-1.77 10.98-4.65 2.82-2.88 4.55-6.85 4.55-11.22h-.02c.01-4.39-1.73-8.36-4.53-11.22z" fill="#91278e"/><path d="m89.9 66.38c-2.9-2.9-6.89-4.68-11.31-4.68s-8.41 1.79-11.31 4.68c-2.9 2.9-4.68 6.89-4.68 11.31s1.79 8.41 4.68 11.31c2.9 2.9 6.89 4.68 11.31 4.68v.02c4.41 0 8.41-1.8 11.31-4.7s4.69-6.89 4.69-11.31-1.79-8.41-4.69-11.31z" fill="#91278e"/><path d="m62.19 89.11c-.21-.37-.42-.75-.6-1.13-.2.41-.42.81-.65 1.2.41-.04.83-.07 1.25-.07z" fill="#fff"/><path d="m72.76 40.06c-2.83-2.83-6.74-4.59-11.08-4.59-4.32 0-8.24 1.75-11.08 4.59-2.83 2.83-4.58 6.74-4.58 11.08h-.02c0 4.32 1.75 8.23 4.59 11.08 2.83 2.83 6.74 4.58 11.08 4.58 2.6 0 5.04-.63 7.2-1.75.43-.28.88-.54 1.34-.77.92-.6 1.77-1.29 2.54-2.06 2.83-2.83 4.58-6.74 4.58-11.08.02-4.33-1.73-8.23-4.57-11.08z" fill="#91278e"/><path d="m46.87 46.04c-.55 1.6-.85 3.32-.85 5.1h-.02c0 4.32 1.75 8.23 4.59 11.08 2.83 2.83 6.74 4.58 11.08 4.58 2.59 0 5.04-.63 7.2-1.75.43-.28.87-.54 1.34-.77.92-.6 1.77-1.29 2.54-2.06 2.45-2.45 4.09-5.72 4.49-9.37-.78 2.28-2.07 4.32-3.73 5.98-.77.77-1.61 1.46-2.54 2.06-.46.23-.91.49-1.34.77-2.17 1.12-4.61 1.75-7.21 1.75-4.33 0-8.25-1.75-11.08-4.58-2.84-2.84-4.59-6.76-4.59-11.08h.02c.01-.58.04-1.15.1-1.71z" fill="#642e8c"/><path d="m62.17 70.77c-.7-.01-1.39-.07-2.07-.16.44.59.84 1.22 1.2 1.87.26-.59.55-1.16.87-1.71z" fill="#fff"/><path d="m42.3 42.18c-2.76-2.76-6.59-4.47-10.82-4.47-4.22 0-8.05 1.71-10.83 4.47-2.76 2.76-4.47 6.59-4.47 10.82 0 4.22 1.71 8.05 4.47 10.83 2.76 2.76 6.59 4.47 10.83 4.47 4.22 0 8.05-1.71 10.82-4.47 2.76-2.76 4.48-6.59 4.48-10.83 0-4.22-1.71-8.05-4.48-10.82z" fill="#91278e"/><path d="m46.94 61.26c-.48.89-1.02 1.74-1.65 2.53.42-.04.85-.05 1.28-.05.68 0 1.34.04 2.01.12-.62-.81-1.17-1.68-1.64-2.6z" fill="#fff"/><path d="m27.3 68.76c-2.9-2.9-6.89-4.69-11.31-4.69s-8.41 1.79-11.31 4.69c-2.89 2.89-4.68 6.89-4.68 11.3 0 4.42 1.79 8.41 4.68 11.31 2.9 2.9 6.89 4.68 11.31 4.68 4.41 0 8.41-1.79 11.31-4.68 2.9-2.9 4.68-6.89 4.68-11.31 0-4.41-1.78-8.41-4.68-11.3z" fill="#91278e"/><path d="m24.92 93.76c-.84.6-1.73 1.14-2.64 1.62-.56.42-1.08.88-1.58 1.37-2.76 2.76-4.48 6.59-4.48 10.83 0 4.22 1.71 8.05 4.48 10.83 2.76 2.76 6.59 4.47 10.82 4.47 2.37 0 4.61-.54 6.62-1.5.57-.35 1.14-.67 1.74-.98.89-.59 1.71-1.25 2.46-2 2.76-2.76 4.47-6.59 4.47-10.83 0-4.22-1.71-8.05-4.47-10.83-2.76-2.76-6.59-4.47-10.83-4.47-2.34.01-4.59.55-6.59 1.49z" fill="#91278e"/><path d="m31.63 70.52c.23.38.46.78.67 1.18.27-.43.56-.85.86-1.26-.51.06-1.02.08-1.53.08z" fill="#fff"/><g fill="#642e8c"><path d="m17.06 48.02c-.54 1.56-.83 3.24-.83 4.99h-.02c0 4.22 1.71 8.05 4.49 10.82 2.76 2.76 6.59 4.48 10.83 4.48 2.54 0 4.93-.62 7.04-1.71.42-.27.85-.53 1.31-.75.9-.59 1.73-1.26 2.48-2.01 2.39-2.4 4-5.59 4.39-9.16-.76 2.23-2.02 4.22-3.65 5.84-.75.75-1.58 1.43-2.48 2.01-.45.22-.89.48-1.31.75-2.12 1.1-4.51 1.71-7.04 1.71-4.24 0-8.06-1.71-10.83-4.48-2.78-2.78-4.49-6.61-4.49-10.82h.02c-0-.56.03-1.12.09-1.67z"/><path d="m32.69 74.71c-.54 1.6-.83 3.31-.83 5.1h-.02c0 4.31 1.71 8.22 4.49 11.06 2.76 2.82 6.59 4.57 10.83 4.57 2.54 0 4.93-.63 7.04-1.75.42-.28.85-.54 1.31-.77.9-.6 1.73-1.29 2.48-2.06 2.4-2.45 4-5.72 4.39-9.36-.76 2.27-2.02 4.31-3.65 5.97-.75.77-1.58 1.46-2.48 2.06-.45.23-.89.49-1.31.77-2.12 1.12-4.51 1.75-7.04 1.75-4.24 0-8.06-1.75-10.83-4.57-2.78-2.84-4.49-6.75-4.49-11.06h.01c.01-.59.04-1.15.1-1.71z"/><path d="m.84 75.77c-.54 1.56-.83 3.24-.83 4.99h-.01c0 4.22 1.71 8.05 4.49 10.82 2.76 2.76 6.59 4.48 10.83 4.48 2.54 0 4.93-.62 7.04-1.71.42-.27.85-.53 1.31-.75.9-.59 1.73-1.26 2.48-2.01 2.39-2.4 4-5.59 4.39-9.16-.76 2.23-2.02 4.22-3.65 5.84-.75.75-1.58 1.43-2.48 2.01-.45.22-.89.48-1.31.75-2.12 1.1-4.51 1.71-7.04 1.71-4.24 0-8.06-1.71-10.83-4.48-2.78-2.78-4.49-6.61-4.49-10.82h.02c-.01-.57.02-1.13.08-1.67z"/></g><path clip-rule="evenodd" d="m67.97 41.97c-.36-.09-.58-.46-.49-.82s.46-.58.82-.49c1.55.38 2.67 1.15 3.41 2.25.73 1.07 1.08 2.44 1.1 4.07 0 .37-.29.68-.66.69-.37 0-.68-.29-.69-.66-.03-1.36-.3-2.49-.88-3.34-.55-.82-1.41-1.4-2.61-1.7z" fill="#fff" fill-rule="evenodd"/><path clip-rule="evenodd" d="m83.94 69.89c-.36-.09-.58-.46-.49-.82s.46-.58.82-.49c1.55.38 2.67 1.15 3.41 2.25.73 1.07 1.08 2.44 1.1 4.07 0 .37-.29.67-.66.69-.37 0-.68-.29-.69-.66-.03-1.36-.3-2.49-.88-3.34-.55-.83-1.4-1.4-2.61-1.7z" fill="#fff" fill-rule="evenodd"/><path d="m55.37 91.14c-.9.64-1.85 1.22-2.83 1.74-.59.45-1.16.95-1.69 1.46-2.96 2.96-4.79 7.05-4.79 11.58 0 4.51 1.83 8.61 4.79 11.58 2.95 2.95 7.05 4.79 11.58 4.79 2.54 0 4.93-.58 7.08-1.61.61-.37 1.22-.72 1.86-1.04.95-.63 1.83-1.33 2.64-2.14 2.95-2.96 4.79-7.05 4.79-11.58 0-4.51-1.83-8.61-4.79-11.58-2.96-2.95-7.05-4.79-11.58-4.79-2.51 0-4.92.58-7.06 1.59z" fill="#91278e"/><path d="m17.07 102.59c-.54 1.56-.83 3.24-.83 4.99h-.02c0 4.22 1.71 8.05 4.49 10.82 2.76 2.76 6.59 4.48 10.83 4.48 2.54 0 4.93-.62 7.04-1.71.42-.27.85-.53 1.31-.75.9-.59 1.73-1.26 2.48-2.01 2.4-2.4 4-5.59 4.39-9.16-.76 2.23-2.02 4.22-3.65 5.84-.75.75-1.58 1.43-2.48 2.01-.45.22-.89.48-1.31.75-2.12 1.1-4.51 1.71-7.04 1.71-4.24 0-8.06-1.71-10.83-4.48-2.78-2.78-4.49-6.61-4.49-10.82h.02c0-.56.03-1.12.09-1.67z" fill="#642e8c"/><path d="m46.98 100.58c-.57 1.67-.89 3.47-.89 5.34h-.02c0 4.51 1.83 8.61 4.8 11.58 2.96 2.96 7.05 4.79 11.58 4.79 2.71 0 5.27-.66 7.53-1.83.45-.29.91-.56 1.4-.8.97-.63 1.85-1.35 2.65-2.15 2.56-2.56 4.28-5.98 4.69-9.8-.82 2.38-2.17 4.51-3.9 6.25-.8.8-1.69 1.53-2.65 2.15-.48.24-.95.51-1.4.8-2.26 1.17-4.82 1.83-7.53 1.83-4.53 0-8.63-1.83-11.58-4.79-2.97-2.97-4.8-7.07-4.8-11.58h.02c0-.6.03-1.2.1-1.79z" fill="#642e8c"/><path d="m63.45 73.4c-.54 1.56-.83 3.24-.83 4.99h-.02c0 4.22 1.71 8.05 4.49 10.82 2.76 2.76 6.59 4.48 10.83 4.48 2.54 0 4.93-.62 7.04-1.71.42-.27.85-.53 1.31-.75.9-.59 1.73-1.26 2.48-2.01 2.4-2.4 4-5.59 4.39-9.16-.76 2.23-2.02 4.22-3.65 5.84-.75.75-1.58 1.43-2.48 2.01-.45.22-.89.48-1.31.75-2.12 1.1-4.51 1.71-7.04 1.71-4.24 0-8.06-1.71-10.83-4.48-2.78-2.78-4.49-6.61-4.49-10.82h.02c0-.56.03-1.12.09-1.67z" fill="#642e8c"/><path clip-rule="evenodd" d="m25.94 45.87c.36-.09.58-.46.49-.82s-.46-.58-.82-.49c-1.55.38-2.67 1.15-3.41 2.25-.73 1.07-1.08 2.44-1.1 4.07 0 .37.29.67.66.69.37 0 .68-.29.69-.66.03-1.36.3-2.49.88-3.34.55-.82 1.4-1.39 2.61-1.7z" fill="#fff" fill-rule="evenodd"/><path clip-rule="evenodd" d="m9.97 73.79c.36-.09.58-.46.49-.82s-.46-.58-.82-.49c-1.55.38-2.67 1.15-3.41 2.25-.73 1.07-1.08 2.44-1.1 4.07 0 .37.29.67.66.69.37 0 .68-.29.69-.66.03-1.36.3-2.49.88-3.34.55-.82 1.4-1.4 2.61-1.7z" fill="#fff" fill-rule="evenodd"/><path clip-rule="evenodd" d="m13.38 6.24c11.52 8.99 15.07 10.65 23.13 22.88-11.41-8.89-14.37-11.38-23.13-22.88z" fill="#537918" fill-rule="evenodd"/></svg>