<svg enable-background="new 0 0 122.88 99.73" viewBox="0 0 122.88 99.73" xmlns="http://www.w3.org/2000/svg"><path d="m109.83 6.45 10.02 4.34v-.01l.44.19c1.25.55 2.11.93 2.45 2.08l.04.14c.43 1.64-.49 2.59-3.26 3.42l-8 2.4c-.36 1.83-.71 3.77-.7 5.77.01.97.09 1.95.23 2.95.14 1.02.34 2 .57 2.96.03.12.05.25.05.37.65 11.79-2.21 21.07-8.25 28.09-5.63 6.55-14 11.03-24.82 13.63l1.32 7.81h6.12c1.26 0 2.41.52 3.24 1.35l.01.01c.83.83 1.35 1.98 1.35 3.24 0 1.27-.52 2.41-1.35 3.25-.05.05-.11.1-.16.15-.82.74-1.9 1.2-3.08 1.2h-16.35c-1.26 0-2.41-.52-3.24-1.35-.83-.83-1.35-1.98-1.35-3.25 0-1.26.52-2.4 1.35-3.24l.01-.01c.83-.83 1.98-1.35 3.24-1.35h.92l-1.17-6.96c-3.97-.02-7.77.17-11.39.57-4.16.46-8.06 1.19-11.7 2.21-13.16 3.7-19.42 10.02-27.85 18.52l-.1.1c-.51.52-1 1.06-1.43 1.53-2.76 3.04-3.75 4.12-9.16 2.19l-.14-.06c-.75-.27-1.45-.6-2.08-.96-.7-.41-1.34-.88-1.92-1.41-1.27-1.16-2.18-2.56-2.78-4.16-.59-1.51-.87-3.2-.91-5.03-.02-.83.45-1.56 1.14-1.92 5.2-2.7 10.11-5.76 14.74-9.21 4.62-3.44 8.97-7.26 13.03-11.46.4-.41.92-.63 1.45-.65l1.07-.05c9.1-.43 20.69-.98 28.1-5.12 5.19-2.9 9.14-7.09 12.96-12.02-4.79 5.6-10 10.9-16.64 13.54v.01c-2.28.9-5.34 1.58-8.6 2.07-4.22.64-8.86 1-12.49 1.18-1.17.05-2.16-.85-2.21-2.01-.03-.58.18-1.11.54-1.51l.78-.92.75-.9c6.1-7.93 15.31-16.28 24.08-24.22 9.45-8.57 18.38-16.65 21.91-22.88 1.23-3.72 3.34-6.41 5.9-8.22 2.23-1.57 4.8-2.46 7.43-2.74 2.58-.28 5.22.02 7.67.8 3.29 1.05 6.23 2.98 8.22 5.55zm5.53 7-7.6-3.29c-.4-.14-.76-.4-1.03-.78-1.45-2.06-3.77-3.6-6.4-4.45-1.9-.61-3.94-.84-5.94-.62-1.94.21-3.82.85-5.44 2-1.89 1.34-3.46 3.38-4.38 6.26-.04.13-.1.26-.17.38-3.8 6.85-13.06 15.24-22.87 24.13-7.95 7.2-16.27 14.74-22.14 21.88 2.35-.2 4.84-.46 7.23-.83 2.96-.45 5.71-1.05 7.67-1.82v.01c7.07-2.81 12.67-9.52 18.01-15.94.48-.58.95-1.14 1.58-1.89l.1-.12.19-.22c1.57-1.87 7.29-8.64 10.32-6.33.03.02.06.05.09.07.82.69 1.13 1.68.84 3.02-.14.65-.44 1.47-.94 2.5-.06.13-.13.26-.22.38-.99 1.34-2.18 3-3.34 4.62-5.9 8.23-11.04 15.4-19.34 20.03-8.28 4.62-20.42 5.2-29.96 5.65l-.26.01c-4.04 4.11-8.36 7.88-12.96 11.3-4.45 3.31-9.15 6.29-14.1 8.92.1.86.27 1.66.54 2.38.37.98.92 1.83 1.67 2.52.34.31.74.6 1.19.86.42.24.88.46 1.38.64l.14.05c2.76.99 3.25.45 4.61-1.05.43-.47.91-1 1.57-1.66l.1-.1c8.88-8.96 15.48-15.62 29.7-19.61 3.87-1.08 8-1.86 12.38-2.35 4.3-.47 8.87-.66 13.7-.57.18-.01.36.01.54.04 1.14.24 1.87 1.37 1.63 2.51v.03l1.72 10.21c.04.16.06.32.06.49 0 1.17-.95 2.12-2.12 2.12h-3.41c-.1 0-.19.04-.25.1s-.1.15-.1.25.04.18.1.25c.06.06.15.1.25.1h16.33c.08 0 .15-.02.21-.06l.04-.04c.06-.06.1-.15.1-.25s-.04-.19-.1-.25-.15-.1-.25-.1h-7.91c-1.02 0-1.91-.73-2.09-1.77-.56-3.34-1.07-8.03-1.88-11.16 0-.01 0 0-.01-.02-.03-.09-.05-.18-.07-.27-.24-1.14.49-2.27 1.63-2.51 10.89-2.33 19.17-6.49 24.53-12.72 5.28-6.13 7.79-14.37 7.23-24.93-.25-1.06-.46-2.11-.6-3.15-.16-1.13-.25-2.29-.27-3.49v-.01c-.02-2.61.42-4.86.84-6.97l.15-.77c.11-.8.67-1.49 1.49-1.74z" fill="#ad473b"/><g clip-rule="evenodd" fill-rule="evenodd"><path d="m108.46 8.16 10.52 4.56c1.9.86 2.72 1.03-.07 1.87l-9.23 2.77c-.43 2.28-.99 4.72-.98 7.44.02 2.17.36 4.29.86 6.38 1.25 22.42-10.73 35.14-33.43 39.99.05.13.09.28.11.42l1.87 11.12h7.91c1.36 0 2.47 1.11 2.47 2.47s-1.11 2.47-2.47 2.47h-16.32c-1.36 0-2.47-1.11-2.47-2.47s1.11-2.47 2.47-2.47h3.43l-1.74-10.31c-.05-.3-.05-.59.01-.86-9.55-.19-18.1.73-25.61 2.84-13.75 3.86-20.17 10.39-28.88 19.17-3.4 3.43-3.45 4.98-8.39 3.21-1.38-.47-2.52-1.15-3.43-1.98-2.03-1.85-2.92-4.5-2.98-7.69 10.6-5.49 20.05-12.51 28.33-21.08 9.47-.45 21.97-.88 30.13-5.43 9.35-5.22 14.67-14.11 22-24.05.86-1.78 1.03-2.72.67-3.02-1.49-1.23-6.7 5.13-7.63 6.23-6.03 7.17-12.19 15.24-20.53 18.55-4.97 1.97-14.21 2.8-20.41 3.11.55-.64 1.09-1.27 1.63-1.93 12.67-16.47 39.36-35.11 46.26-47.54 4.2-13.13 20.3-11.71 25.9-3.77z" fill="#f69272"/><path d="m109.03 8.41 9.95 4.31c1.9.86 2.72 1.03-.07 1.87l-8.74 2.62z" fill="#fcc23d"/><path d="m28.5 64.96c1.7-1.88 3.34-3.61 4.73-5.13 32.47 4.12 40.81-23.27 50-26.33-10.61 19.99-20.62 30.27-54.73 31.46z" fill="#8c3a30"/><path d="m98.44 8.62c1.6 0 2.9 1.29 2.9 2.9 0 1.6-1.29 2.9-2.9 2.9s-2.9-1.29-2.9-2.9c.01-1.6 1.3-2.9 2.9-2.9z" fill="#ad473b"/></g><path d="m109.69 7.08 1.79 11.44-1.83.28-1.79-11.43z" fill="#ad473b"/></svg>