<svg viewBox="0 0 122.88 77.33" xmlns="http://www.w3.org/2000/svg"><path d="m10.29 4.41c.72-6.08 10-5.67 10 0v1.28c6.1 12.46 17 19.85 29.33 23.22 9.88 2.71 12.3 2.7 22.56.12a60.25 60.25 0 0 0 11.36-4.03c9.14-4.46 15.87-11 17.65-18.75v-1.84c.73-6.08 10-5.67 10 0v3.05a42 42 0 0 0 10.81 13.34l.89.72v4.25c-1-.74-2.06-1.53-3.06-2.36l-.18-.14v18h3.24v5.83h-11.72v30.23h-10v-30.23h-80.9v30.22h-10v-30.22h-10.27v-5.82h2.51v-18.67c-.31.27-.63.55-.94.8-.52.43-1 .86-1.57 1.27v-4.38a42 42 0 0 0 10.29-13.19zm52 29.77v7.09h-3v-7.11a65.45 65.45 0 0 1 -6.69-1c-.41-.09-.81-.17-1.21-.27v8.39h-3.39v-9.28a56.49 56.49 0 0 1 -7.81-2.85v12.11h-3.37v-13.8a48.21 48.21 0 0 1 -7.9-5.33v19.14h-3.41v-22.27a44.45 44.45 0 0 1 -5.26-6.47v28.75h80.94v-26.59a31.13 31.13 0 0 1 -5 5.9v20.68h-3.44v-17.87a49.19 49.19 0 0 1 -7.75 4.6l-.16.07v13.2h-3.4v-11.68a64.2 64.2 0 0 1 -7.8 2.58v9.11h-3.42v-8.28c-2 .43-4.11.78-6.21 1l-1.68.17zm53.89 7.1v-21.14a46.2 46.2 0 0 1 -5-6.07v27.2h5zm-110.26-21.98v22h4.37v-27.46a44.48 44.48 0 0 1 -4.37 5.46z" fill-rule="evenodd"/><path d="m61.44 52.54a1.59 1.59 0 0 0 -.6.14h-.06a1.77 1.77 0 0 0 -.41.31 1.45 1.45 0 0 0 -.26.4 6.37 6.37 0 0 1 -1.24 1.7 5.85 5.85 0 0 1 -1.71 1.15 5.74 5.74 0 0 1 -1 .34 5.17 5.17 0 0 1 -1 .11 4.15 4.15 0 0 1 -1.55-.29 4.29 4.29 0 0 1 -1.37-.84 4.52 4.52 0 0 1 -.91-1.1 4.19 4.19 0 0 1 -.53-1.28 2.2 2.2 0 0 0 -.26-.65 1 1 0 0 0 -.6-.44.93.93 0 0 0 -.7.11 2.35 2.35 0 0 0 -.58.47c-.43.48-.8.9-1.13 1.3-1.83 2.15-2.88 3.38-6.83 1.75a10.35 10.35 0 0 1 -1.18-1.06 17.14 17.14 0 0 1 -1.23-1.46 1.48 1.48 0 0 0 -2.08-.31 1.33 1.33 0 0 0 -.27.26 1.49 1.49 0 0 0 -.18.3 6.39 6.39 0 0 1 -1.11 1.71 5 5 0 0 1 -1.65 1.18 4 4 0 0 1 -1.86.47 4 4 0 0 1 -1-.09 4.68 4.68 0 0 1 -1-.31 5.79 5.79 0 0 1 -1.74-1.26 8.09 8.09 0 0 1 -1.41-2 1.5 1.5 0 0 0 -.86-.75h-.06a1.46 1.46 0 0 0 -1.08.1 1.3 1.3 0 0 0 -.41.32 1.34 1.34 0 0 0 -.27.44 9.53 9.53 0 0 1 -.92 1.81 4.82 4.82 0 0 1 -1.07 1.16 3.13 3.13 0 0 1 -1.11.51 3.72 3.72 0 0 1 -1.42 0 1.51 1.51 0 0 0 -1.1.28 1.48 1.48 0 0 0 -.59 1 1.49 1.49 0 0 0 .28 1.07 1.5 1.5 0 0 0 1 .58 6.66 6.66 0 0 0 2.62-.04 6 6 0 0 0 2.21-1 7.17 7.17 0 0 0 1.19-1.15 6.76 6.76 0 0 0 .54-.72 10.16 10.16 0 0 0 1.13 1.14 8.22 8.22 0 0 0 2 1.25 7 7 0 0 0 1.58.52 7.5 7.5 0 0 0 6.53-1.86 8.85 8.85 0 0 0 1-1.1 14.15 14.15 0 0 0 1.14 1.08 10.43 10.43 0 0 0 1.68 1.14 7.3 7.3 0 0 0 1.89.75 6.33 6.33 0 0 0 1.92.19 6 6 0 0 0 1.87-.4 7 7 0 0 0 1.75-1 8.8 8.8 0 0 0 1.13-1c.19-.2.37-.41.55-.63a8.24 8.24 0 0 0 .91 1 7.55 7.55 0 0 0 1.72 1.16 7 7 0 0 0 1.57.56 7.68 7.68 0 0 0 1.71.2 7.83 7.83 0 0 0 1.67-.18 9 9 0 0 0 1.65-.58 9.12 9.12 0 0 0 2-1.2 10.15 10.15 0 0 0 1.11-1.07 10.15 10.15 0 0 0 1.11 1.07 9.36 9.36 0 0 0 2 1.2 9 9 0 0 0 1.62.52 7.83 7.83 0 0 0 1.67.18 7.68 7.68 0 0 0 1.71-.2 7.27 7.27 0 0 0 1.56-.5 7.55 7.55 0 0 0 1.71-1.15 8.24 8.24 0 0 0 .91-1c.18.22.36.43.55.63a8.87 8.87 0 0 0 1.14 1 6.94 6.94 0 0 0 1.74 1 6 6 0 0 0 1.87.4 6.33 6.33 0 0 0 1.96-.2 7.3 7.3 0 0 0 1.89-.75 10.43 10.43 0 0 0 1.7-1.18 14.15 14.15 0 0 0 1.14-1.08 8.85 8.85 0 0 0 1 1.1 7.32 7.32 0 0 0 1.77 1.23 7.17 7.17 0 0 0 1.52.57 7.14 7.14 0 0 0 3.23.07 7 7 0 0 0 1.58-.52 8.22 8.22 0 0 0 2-1.25 10.16 10.16 0 0 0 1.17-1.15 6.76 6.76 0 0 0 .54.72 7.17 7.17 0 0 0 1.19 1.15 6 6 0 0 0 2.21 1 6.66 6.66 0 0 0 2.57.09 1.5 1.5 0 0 0 1-.58 1.49 1.49 0 0 0 .28-1.07 1.48 1.48 0 0 0 -.59-1 1.49 1.49 0 0 0 -1.1-.28 3.72 3.72 0 0 1 -1.42 0 3.13 3.13 0 0 1 -1.11-.51 4.82 4.82 0 0 1 -1.07-1.16 9.53 9.53 0 0 1 -.92-1.81 1.5 1.5 0 0 0 -.26-.44 1.3 1.3 0 0 0 -.41-.32 1.46 1.46 0 0 0 -1.08-.1 1.47 1.47 0 0 0 -.86.75 8.11 8.11 0 0 1 -1.42 2 5.87 5.87 0 0 1 -1.73 1.26 5 5 0 0 1 -1 .31 4 4 0 0 1 -1 .09 4 4 0 0 1 -1.86-.47 5 5 0 0 1 -1.46-1.12 6.39 6.39 0 0 1 -1.11-1.71 1.49 1.49 0 0 0 -.18-.3 1.33 1.33 0 0 0 -.27-.26 1.48 1.48 0 0 0 -2.08.31 17.14 17.14 0 0 1 -1.23 1.46 10.35 10.35 0 0 1 -1.18 1.06c-4 1.63-5 .4-6.83-1.75-.33-.4-.7-.82-1.13-1.3a2.35 2.35 0 0 0 -.58-.47.93.93 0 0 0 -.7-.11 1 1 0 0 0 -.6.44 2.51 2.51 0 0 0 -.26.65 4.42 4.42 0 0 1 -.52 1.28 4.81 4.81 0 0 1 -.92 1.1 4.29 4.29 0 0 1 -1.37.84 4.15 4.15 0 0 1 -1.55.29 5.17 5.17 0 0 1 -1-.11 5.74 5.74 0 0 1 -1-.34 5.85 5.85 0 0 1 -1.99-1.15 6.37 6.37 0 0 1 -1.24-1.7 1.45 1.45 0 0 0 -.26-.4 1.77 1.77 0 0 0 -.41-.31h-.06a1.59 1.59 0 0 0 -.6-.14zm2.23 18.15a4.23 4.23 0 0 0 1-.34 4.74 4.74 0 0 0 1.43-1.09 6.26 6.26 0 0 0 1.07-1.7 1.44 1.44 0 0 1 .81-.78 1.5 1.5 0 0 1 1.14 0 1.65 1.65 0 0 1 .41.28 1.33 1.33 0 0 1 .29.38 11.4 11.4 0 0 0 1.07 1.6 6.57 6.57 0 0 0 1.11 1.13 4.36 4.36 0 0 0 1 .56 3.21 3.21 0 0 0 1 .27 3.64 3.64 0 0 0 1.08-.11 5.17 5.17 0 0 0 1.15-.47 8.09 8.09 0 0 0 1.59-1.2 15 15 0 0 0 1.65-1.87 1.52 1.52 0 0 1 .95-.56 1.47 1.47 0 0 1 1.08.28 1.6 1.6 0 0 1 .27.25 2.38 2.38 0 0 1 .18.3 6.47 6.47 0 0 0 1.1 1.7 5.13 5.13 0 0 0 1.46 1.13 4.65 4.65 0 0 0 .92.34 4.34 4.34 0 0 0 .94.13 4.73 4.73 0 0 0 1-.1 4.47 4.47 0 0 0 1-.31 5.75 5.75 0 0 0 1.74-1.25 8.24 8.24 0 0 0 1.41-2 1.46 1.46 0 0 1 .86-.74h.06a1.48 1.48 0 0 1 1.07.1 1.57 1.57 0 0 1 .4.32 1.38 1.38 0 0 1 .29.46 9.43 9.43 0 0 0 .91 1.8 4.82 4.82 0 0 0 1.07 1.16 3 3 0 0 0 1.11.51 4 4 0 0 0 1.43 0 1.48 1.48 0 0 1 1.4 2.36 1.49 1.49 0 0 1 -1 .59 7 7 0 0 1 -2.55-.09 6.12 6.12 0 0 1 -2.2-1.05 7 7 0 0 1 -1.07-1.18c-.19-.23-.37-.47-.55-.73a9.21 9.21 0 0 1 -1.12 1.13 8.68 8.68 0 0 1 -2 1.26 8.59 8.59 0 0 1 -1.58.52 6.87 6.87 0 0 1 -1.62.14 7.17 7.17 0 0 1 -1.61-.21 7.25 7.25 0 0 1 -1.53-.61 8.1 8.1 0 0 1 -1.78-1.23 8.19 8.19 0 0 1 -1-1.1 12.58 12.58 0 0 1 -1.13 1.08 10.24 10.24 0 0 1 -1.71 1.25 7.78 7.78 0 0 1 -1.9.76 6.63 6.63 0 0 1 -1.92.19 6.38 6.38 0 0 1 -1.87-.4 7 7 0 0 1 -1.74-1 8.71 8.71 0 0 1 -1.13-1c-.19-.2-.38-.41-.56-.63a8.24 8.24 0 0 1 -.91 1 7.23 7.23 0 0 1 -1.7 1.08 6.91 6.91 0 0 1 -1.61.58 21.51 21.51 0 0 1 -5.78 0 6.91 6.91 0 0 1 -1.61-.58 7.23 7.23 0 0 1 -1.7-1.14 8.24 8.24 0 0 1 -.91-1c-.18.22-.36.43-.55.63a9.49 9.49 0 0 1 -1.14 1 7 7 0 0 1 -1.74 1 6.31 6.31 0 0 1 -1.87.4 6.63 6.63 0 0 1 -1.92-.19 7.78 7.78 0 0 1 -1.9-.76 10.67 10.67 0 0 1 -1.7-1.18 12.58 12.58 0 0 1 -1.13-1.08 8.19 8.19 0 0 1 -1 1.1 8.1 8.1 0 0 1 -1.79 1.22 7.25 7.25 0 0 1 -1.53.57 7.17 7.17 0 0 1 -1.61.21 6.75 6.75 0 0 1 -1.61-.14 8.59 8.59 0 0 1 -1.58-.52 8.41 8.41 0 0 1 -2-1.26 9.28 9.28 0 0 1 -1.13-1.13c-.18.26-.36.5-.55.73a7 7 0 0 1 -1.19 1.13 6.12 6.12 0 0 1 -2.2 1.05 7 7 0 0 1 -2.55.09 1.49 1.49 0 0 1 -.67-2.67 1.47 1.47 0 0 1 1.1-.28 4 4 0 0 0 1.43 0 2.88 2.88 0 0 0 1.11-.51 4.82 4.82 0 0 0 1.07-1.16 9.43 9.43 0 0 0 .91-1.8 1.38 1.38 0 0 1 .29-.46 1.57 1.57 0 0 1 .4-.32 1.48 1.48 0 0 1 1.07-.1h.06a1.46 1.46 0 0 1 .86.74 8.24 8.24 0 0 0 1.41 2 5.75 5.75 0 0 0 1.74 1.25 4.47 4.47 0 0 0 1 .31 4.73 4.73 0 0 0 1 .1 4.34 4.34 0 0 0 .94-.13 4.43 4.43 0 0 0 .92-.34 5.13 5.13 0 0 0 1.46-1.13 6.75 6.75 0 0 0 1.11-1.7 2.38 2.38 0 0 1 .18-.3 1.6 1.6 0 0 1 .27-.25 1.47 1.47 0 0 1 1.08-.28 1.52 1.52 0 0 1 1 .56 15 15 0 0 0 1.62 1.89 8.09 8.09 0 0 0 1.59 1.2 5.17 5.17 0 0 0 1.15.47 3.68 3.68 0 0 0 1.08.11 3.21 3.21 0 0 0 1-.22 4.36 4.36 0 0 0 1-.56 6.57 6.57 0 0 0 1.18-1.09 11.4 11.4 0 0 0 1.07-1.6 1.33 1.33 0 0 1 .29-.38 1.65 1.65 0 0 1 .41-.28 1.5 1.5 0 0 1 1.14 0 1.44 1.44 0 0 1 .81.78 6.26 6.26 0 0 0 1.07 1.7 4.74 4.74 0 0 0 1.43 1.09 4.23 4.23 0 0 0 1 .34c.3.07 4.16.07 4.46 0z"/></svg>