<svg viewBox="0 0 122.88 122.88" xmlns="http://www.w3.org/2000/svg"><path d="m61.44 0a61.46 61.46 0 1 1 -43.44 18 61.21 61.21 0 0 1 43.44-18z"/><g fill-rule="evenodd"><path d="m61.44 6.67a54.77 54.77 0 1 1 -54.77 54.77 54.77 54.77 0 0 1 54.77-54.77z" fill="#ffc903"/><path d="m61.5 53.07a8.95 8.95 0 1 1 -9 8.94 8.95 8.95 0 0 1 9-8.94z"/><path d="m15.17 61.89c.83-17.25 8.42-30.76 23.23-40.21l16.28 28.66c-3.85 2.16-6.09 6-6.68 11.55z"/><path d="m84.63 21.46c14.5 9.38 22.42 22.67 23.2 40.23l-33-.24c0-4.41-2.15-8.27-6.66-11.55z"/><path d="m84.87 101.71c-15.36 7.88-30.84 8.09-46.43 0l16.68-28.44c3.79 2.25 8.24 2.27 13.34 0l16.41 28.43z"/></g></svg>