<svg clip-rule="evenodd" fill-rule="evenodd" image-rendering="optimizeQuality" shape-rendering="geometricPrecision" text-rendering="geometricPrecision" viewBox="0 0 512 290.49" xmlns="http://www.w3.org/2000/svg"><path d="m396.46 141.65h43.74c33.32 0 55.93 19.69 65.97 44.44 3.73 9.19 5.71 19.15 5.82 29.08.12 9.91-1.65 19.81-5.39 28.87-9.43 22.86-31.09 40.41-66.4 40.41h-180.15c-21.94 2.48-17.99 1.98-27.43 2.43-17 .8-32.64-2.47-32.97-2.45l-104.79 4.54c-3.71 0-6.72-3.01-6.72-6.72l.25-137.87c.12-3.71 3.24-6.6 6.95-6.48l30.02 1.15a73.129 73.129 0 0 1 -20.91-14.62c-13.19-13.19-21.35-31.42-21.35-51.54 0-20.1 8.17-38.32 21.37-51.52 13.18-13.21 31.4-21.37 51.52-21.37 1.66 0 3.3.06 4.93.17.72.01 1.44.03 2.16.07l211.87 1.11c33.33-.03 55.93 19.66 65.98 44.41 3.73 9.19 5.7 19.14 5.82 29.05.12 9.94-1.65 19.83-5.39 28.9-7.34 17.78-22.09 32.35-44.9 37.94z" fill-rule="nonzero"/><path d="m187.3 7.06 187.65 1c48.19 0 71.61 45.43 63.51 82.44a4.73 4.73 0 0 0 -1.32-.18h-115.03a4.89 4.89 0 0 0 0 9.78h113.44c-8.22 21-27.93 37.28-60.6 37.28h-184.95c6.49-3.43 12.4-7.81 17.54-12.95 13.19-13.19 21.35-31.41 21.35-51.54 0-20.12-8.16-38.35-21.38-51.54a73.19 73.19 0 0 0 -20.21-14.29zm57.83 53.37a4.89 4.89 0 0 1 -4.89-4.89c0-2.7 2.19-4.9 4.89-4.9h130.56c2.7 0 4.89 2.2 4.89 4.9s-2.19 4.89-4.89 4.89zm27.02 87.97h168.05c47.03 0 70.47 43.28 64.04 79.76-.4-.11-.82-.16-1.25-.16h-115.85c-2.7 0-4.9 2.19-4.9 4.89s2.2 4.89 4.9 4.89h114.62c-7.57 22.27-27.53 39.93-61.56 39.93h-167.57c26.02-17.21 39.43-48.47 33.25-79.6h132.47a4.89 4.89 0 0 0 0-9.78h-135.1c-5.58-16.39-16.62-30.53-31.1-39.93zm85.08 79.6a4.89 4.89 0 0 1 0 9.78h-35.26a4.89 4.89 0 0 1 0-9.78zm-243.69 53.44 74.76-3.25a77.795 77.795 0 0 1 -12.81-10.33c-11.45-11.43-19.32-26.44-21.81-43.19-2.49 16.75-10.36 31.76-21.78 43.19l-.41.37a77.145 77.145 0 0 1 -17.95 13.21zm74.88-133.26-74.22-2.83a77.73 77.73 0 0 1 17.7 13.24c11.43 11.43 19.3 26.44 21.78 43.2 2.49-16.73 10.36-31.73 21.79-43.17l.03-.03a77.73 77.73 0 0 1 12.92-10.41z" fill="#93622c"/><path d="m230.1 135.96c21.34 0 40.66 8.65 54.63 22.63l.38.4c13.76 13.96 22.25 33.11 22.25 54.24 0 21.3-8.64 40.61-22.63 54.6l-.02.03c-14.01 13.99-33.31 22.63-54.61 22.63-21.32 0-40.63-8.66-54.61-22.63-14-13.98-22.65-33.3-22.65-54.63 0-21.31 8.65-40.62 22.63-54.61l.03-.03c14-13.99 33.31-22.63 54.6-22.63z" fill-rule="nonzero"/><path d="m77.26 135.96c21.34 0 40.66 8.65 54.64 22.63 13.97 13.98 22.63 33.3 22.63 54.64 0 21.33-8.66 40.65-22.63 54.63l-.41.37c-13.95 13.76-33.1 22.26-54.23 22.26-21.31 0-40.63-8.66-54.61-22.63-14-13.98-22.65-33.3-22.65-54.63 0-21.31 8.65-40.62 22.63-54.61l.03-.03c14.01-13.99 33.31-22.63 54.6-22.63z" fill-rule="nonzero"/><path d="m230.1 142.95c38.82 0 70.27 31.46 70.27 70.28 0 38.81-31.45 70.27-70.27 70.27-38.81 0-70.27-31.46-70.27-70.27 0-38.82 31.46-70.28 70.27-70.28zm-152.84 0c38.81 0 70.28 31.46 70.28 70.28 0 38.81-31.47 70.27-70.28 70.27s-70.27-31.46-70.27-70.27c0-38.82 31.46-70.28 70.27-70.28zm78.73-135.96c36.4 0 65.91 29.51 65.91 65.9 0 36.4-29.51 65.91-65.91 65.91-36.39 0-65.9-29.51-65.9-65.91 0-36.39 29.51-65.9 65.9-65.9z" fill="#c69c6d"/><path d="m77.26 185.33c7.71 0 14.68 3.13 19.72 8.17 5.05 5.06 8.17 12.04 8.17 19.72 0 7.71-3.12 14.68-8.17 19.72a27.762 27.762 0 0 1 -19.72 8.17c-7.68 0-14.66-3.12-19.71-8.17a27.788 27.788 0 0 1 -8.18-19.72c0-7.68 3.13-14.65 8.17-19.7 5.07-5.06 12.04-8.19 19.72-8.19zm152.84 0c7.7 0 14.67 3.13 19.72 8.17 5.04 5.06 8.17 12.04 8.17 19.72 0 7.71-3.13 14.68-8.17 19.72-5.05 5.05-12.02 8.17-19.72 8.17-7.69 0-14.66-3.12-19.71-8.17a27.788 27.788 0 0 1 -8.18-19.72c0-7.68 3.12-14.65 8.17-19.7 5.07-5.06 12.04-8.19 19.72-8.19zm-74.11-140.32c7.71 0 14.68 3.12 19.72 8.17 5.05 5.05 8.17 12.03 8.17 19.71 0 7.71-3.12 14.68-8.17 19.72a27.762 27.762 0 0 1 -19.72 8.17c-7.68 0-14.66-3.12-19.71-8.17a27.78 27.78 0 0 1 -8.17-19.72c0-7.68 3.12-14.65 8.17-19.7 5.06-5.06 12.03-8.18 19.71-8.18z" fill-rule="nonzero"/><path d="m230.1 191.93c11.76 0 21.29 9.53 21.29 21.29s-9.53 21.3-21.29 21.3-21.29-9.54-21.29-21.3 9.53-21.29 21.29-21.29zm-74.11-140.33c11.76 0 21.3 9.54 21.3 21.29 0 11.76-9.54 21.3-21.3 21.3-11.75 0-21.29-9.54-21.29-21.3 0-11.75 9.54-21.29 21.29-21.29zm-78.73 140.33c11.76 0 21.3 9.53 21.3 21.29s-9.54 21.3-21.3 21.3-21.29-9.54-21.29-21.3 9.53-21.29 21.29-21.29z" fill="#93622c"/></svg>