<svg clip-rule="evenodd" fill-rule="evenodd" image-rendering="optimizeQuality" shape-rendering="geometricPrecision" text-rendering="geometricPrecision" viewBox="0 0 460 512.333" xmlns="http://www.w3.org/2000/svg"><g fill-rule="nonzero"><path d="m31.391 195.586 76.394-29.462a217.5 217.5 0 0 0 5.76 19.753v51.065zm82.154 95.182v174.087c0 .472.008.943.024 1.412l-87.528 44.141c-8.838 4.458-19.618.907-24.075-7.931a17.846 17.846 0 0 1 -1.923-8.071l-.041-259.903 109.403 55.085a11.415 11.415 0 0 0 4.14 1.18z" fill="#37c1c3"/><path d="m12.932 202.706 4.108-1.584 96.505 48.589v29.189l-113.545-57.168v-1.775c0-8.174 5.46-15.073 12.932-17.251z" fill="#f3af25"/><path d="m274.673 323.074.027 171.332c-.003 3.068.306 5.982.943 8.661a36.84 36.84 0 0 0 2.412 6.903l-128.116-27.701c-7.774-1.979-13.525-9.026-13.525-17.414v-230.831a270.61 270.61 0 0 0 19.101 27.206c10.007 12.587 21.332 24.606 33.884 35.802 11.869 10.59 25.212 20.683 39.967 30.076l-.034.052c6.394 4.101 13.563 5.902 20.64 5.67a36.183 36.183 0 0 0 18.792-6.017 238.782 238.782 0 0 0 5.909-3.739z" fill="#3a9ad9"/><path d="m381.71 173.938 53.864-20.774c9.225-3.565 19.596 1.022 23.161 10.247a17.85 17.85 0 0 1 1.208 6.457h.057v230.483l-151.824-103.6a260.158 260.158 0 0 0 34.904-40.052c17.683-25.043 31.016-53.293 38.63-82.761zm61.746 274.323-123.233 62.147c-8.837 4.458-19.617.907-24.075-7.931a17.845 17.845 0 0 1 -1.922-8.071l-.024-147.988z" fill="#34ce74"/><path d="m460 414.165v14.741c0 5.124-2.148 9.747-5.589 13.021l-160.211-109.325-.004-23.719a251.19 251.19 0 0 0 5.204-4.308z" fill="#f3af25"/></g><path d="m252.889 302.211c-2.22 1.617-5.233 1.839-7.707.253-26.672-16.967-49.094-37.359-66.695-59.496-24.294-30.477-39.612-64.285-44.845-96.825-5.328-33.015-.349-64.761 16.08-90.576 6.469-10.212 14.747-19.505 24.832-27.528 23.183-18.49 49.665-28.226 76.02-28.036 25.403.19 50.457 9.673 72.118 29.431 7.612 6.914 14.018 14.843 19.251 23.437 17.665 29.082 21.471 66.188 13.701 103.802-12.122 58.897-51.032 114.141-102.755 145.538zm-7.326-243.505c31.334 0 56.705 25.404 56.705 56.674 0 31.334-25.403 56.706-56.705 56.706-31.334 0-56.674-25.372-56.674-56.706-.064-31.302 25.34-56.674 56.674-56.674z" fill="#ef4147"/></svg>