<svg viewBox="0 0 122.88 86.67" xmlns="http://www.w3.org/2000/svg"><path d="m67.15 3.56a2.84 2.84 0 1 1 5.49-1.44l1.84 7.06a2.84 2.84 0 0 1 -5.48 1.44zm19.37 15.06a25.41 25.41 0 0 1 6.1 46.38l-1.48-8.12c-1-10.87-10.63-13.51-22.84-13.66-1.28-5.41-4.94-9.4-11.08-11.89a25.41 25.41 0 0 1 29.3-12.75zm2.09-16.07a2.85 2.85 0 0 1 5.49 1.51l-1.94 7a2.85 2.85 0 1 1 -5.49-1.51zm19.11 9.87a2.83 2.83 0 0 1 4 4l-5.19 5.12a2.84 2.84 0 0 1 -4-4l5.2-5.12zm11.6 18.08a2.84 2.84 0 0 1 1.44 5.5l-7.06 1.83a2.84 2.84 0 1 1 -1.44-5.49zm1 21.47a2.84 2.84 0 1 1 -1.51 5.48l-7-1.94a2.84 2.84 0 1 1 1.49-5.51l7 1.94zm-9.87 19.1a2.84 2.84 0 0 1 -4 4l-5.12-5.2a2.84 2.84 0 0 1 4-4zm-61.38-55.91a2.83 2.83 0 0 1 4-4l5.11 5.19a2.84 2.84 0 1 1 -4 4l-5.11-5.2z" fill="#ffc106"/><path d="m86.52 18.62a25.33 25.33 0 0 1 13.16 8.7l-27.32 16.1c-1.32-.09-2.67-.14-4.06-.16-1.28-5.41-4.94-9.4-11.08-11.89a25.41 25.41 0 0 1 29.3-12.75z" fill="#ffd205"/><path d="m71.49 41.22a23.47 23.47 0 0 1 3.72-.28 19.12 19.12 0 0 1 14.23 6.18 23.82 23.82 0 0 1 2.35 3 25.64 25.64 0 0 1 3.71 13.96 22.89 22.89 0 0 1 -4.08 13.38 21.33 21.33 0 0 1 -6.74 5.76 34.83 34.83 0 0 1 -9.08 3.37l-.63.08h-56.8-.36a21.75 21.75 0 0 1 -5.66-1.46 17.8 17.8 0 0 1 -4.7-2.82 19.77 19.77 0 0 1 -3.45-3.71 21.27 21.27 0 0 1 -4-12.29 18.9 18.9 0 0 1 4.29-12.32 18.39 18.39 0 0 1 3.37-3.14 23 23 0 0 1 5.16-2.76 31.48 31.48 0 0 1 4.28-1.3 28.08 28.08 0 0 1 10-15.66 29.2 29.2 0 0 1 15.09-5.89 30.17 30.17 0 0 1 16 2.79 28.66 28.66 0 0 1 13.3 13.11z" fill="#13b5f0"/><path d="m67.11 48.44c-.58.28-1.17.6-1.76.94a41.51 41.51 0 0 0 -5.24 3.71l-3.76-4.3a31.8 31.8 0 0 1 4.2-3.28 29.89 29.89 0 0 1 3.71-2.06c.52-.25 1-.49 1.56-.72a22.91 22.91 0 0 0 -10.09-9.48 24.63 24.63 0 0 0 -13-2.25 23.43 23.43 0 0 0 -12.14 4.74 22.79 22.79 0 0 0 -8.34 14.09l-.37 2-1.88.3a26.53 26.53 0 0 0 -5.1 1.37 17.05 17.05 0 0 0 -3.9 2.07 12.22 12.22 0 0 0 -2.34 2.18 13.09 13.09 0 0 0 -3 8.62 15.58 15.58 0 0 0 2.94 9 14.71 14.71 0 0 0 2.5 2.63 12.43 12.43 0 0 0 3.21 1.92 16.55 16.55 0 0 0 4 1h56.34a29 29 0 0 0 7.23-2.71 15.55 15.55 0 0 0 5-4.2 17.23 17.23 0 0 0 2.94-10 19.79 19.79 0 0 0 -2.82-10.75 16.7 16.7 0 0 0 -1.76-2.26 13.43 13.43 0 0 0 -10.06-4.37 19.67 19.67 0 0 0 -8.07 1.79z" fill="#4bcfff"/><path d="m65.54 42.25a22.92 22.92 0 0 0 -9.81-9 24.63 24.63 0 0 0 -13-2.25 23.43 23.43 0 0 0 -12.14 4.74 22.79 22.79 0 0 0 -8.34 14.09l-.37 2-1.88.3a26.53 26.53 0 0 0 -5.1 1.37 17.05 17.05 0 0 0 -3.9 2.07 12.22 12.22 0 0 0 -2.34 2.18 13.09 13.09 0 0 0 -3 8.62 15.58 15.58 0 0 0 2.94 9 14.71 14.71 0 0 0 2.5 2.63l.5.39c38.68-4.58 31.8-32.69 53.94-36.14z" fill="#7cdcff"/></svg>