<svg enable-background="new 0 0 122.88 114.45" viewBox="0 0 122.88 114.45" xmlns="http://www.w3.org/2000/svg"><path clip-rule="evenodd" d="m110.8 107.88v4.48c0 1.16-.94 2.09-2.09 2.09h-95.1c-1.16 0-2.09-.94-2.09-2.09v-4.48-23.68-25.3c-2.34.9-4.53.92-6.35.3-1.42-.48-2.62-1.34-3.5-2.45s-1.44-2.46-1.61-3.95c-.26-2.31.43-4.92 2.4-7.37.1-.12.21-.24.34-.34l57.05-44.54c.74-.68 1.88-.75 2.7-.11l57.19 44.46c.09.07.17.14.25.23 2.65 2.85 3.31 6.01 2.67 8.68-.32 1.32-.95 2.51-1.82 3.48-.87.98-1.98 1.74-3.24 2.19-2 .72-4.38.7-6.79-.44v25.16 23.68zm-105.23-59.65c-1.11 1.45-1.5 2.9-1.37 4.12.08.7.33 1.32.73 1.82.39.49.92.86 1.56 1.08 1.09.37 2.5.27 4.11-.49l49.79-37.88c.77-.59 1.82-.56 2.55.01l48.37 37.6c.02.02.04.04.07.05 1.77 1.28 3.47 1.48 4.79 1.01.61-.22 1.14-.58 1.55-1.05.42-.47.72-1.03.87-1.66.33-1.38-.07-3.08-1.55-4.74l-55.77-43.36zm24.03 27.26h26.7c1.04 0 1.89.83 1.89 1.85v20.89c0 1.02-.85 1.85-1.89 1.85h-26.7c-1.04 0-1.89-.83-1.89-1.85v-20.89c.01-1.02.85-1.85 1.89-1.85zm38.13-1.84h25.07c1.12 0 2.03.94 2.03 2.1v34.52h11.78v-53.7c0-.14.01-.27.04-.4l-45.01-34.99-46.01 35.01c.05.17.07.35.07.54v53.53h50v-34.52c0-1.16.91-2.09 2.03-2.09zm23.04 4.19h-21v32.38h21zm-36.36 11.79h-9.91v6.75h9.91zm-13.61 0h-9.31v6.75h9.31zm-9.31-3.7h9.31v-6.74h-9.31zm13.01 0h9.91v-6.74h-9.91zm16.38-49.6c3.55 0 6.43 2.88 6.43 6.43s-2.88 6.43-6.43 6.43-6.43-2.88-6.43-6.43c0-3.56 2.88-6.43 6.43-6.43z" fill-rule="evenodd"/></svg>