<svg enable-background="new 0 0 113.74 122.88" viewBox="0 0 113.74 122.88" xmlns="http://www.w3.org/2000/svg"><path clip-rule="evenodd" d="m11.98 76.68c-1.28-2.62-.71-4.04 1.52-4.4l38.95.05v-.06-61.59c-10.63 18.33-4.47 36.89-3.21 46.21.2 1.51 1.09 4.11-.75 4.7l-24.47 9.79c-.85.27-1.59.24-2.21-.09-1.22-.65-2.31-3.45-2.9-4.75-10.31-22.93-.95-40.63 21.07-54.94 2.99-1.95 9.02-5.81 12.46-6.38v-2.5c0-1.5 1.22-2.71 2.71-2.71 1.5 0 2.71 1.22 2.71 2.71v69.56.07l47.12.06c2.47-.13 3.2 2.17 1.46 3.56-5.81 4.5-13.77 8.89-22.68 12.34-3.41-.18-6.7-.97-9.38-2.32-2.42-1.22-4.31-2.89-5.25-4.97-.12-.27-.31-.52-.57-.71-.8-.6-1.94-.43-2.53.38-2.31 3.1-4.66 5.27-6.96 6.54-1.76.97-3.47 1.4-5.1 1.31-1.61-.09-3.18-.7-4.67-1.8-1.72-1.28-3.32-3.22-4.75-5.8-.18-.36-.49-.65-.88-.83-.92-.4-1.99.01-2.39.93-1.14 2.59-3.11 4.43-5.5 5.61-2.26 1.11-4.9 1.64-7.58 1.62-2.69-.01-5.4-.58-7.8-1.64-.08-.03-.15-.07-.23-.1-3.2-2.62-5.97-5.87-8.19-9.85zm-10.17 31.75c-.95.05-1.76-.68-1.81-1.64-.05-.95.68-1.76 1.64-1.81 2.32-.13 4.03-.83 5.39-2.01 1.44-1.25 2.59-3.09 3.71-5.41.42-.86 1.45-1.22 2.31-.8.4.2.7.53.85.92 1.35 2.68 3.62 4.65 6.25 5.81 1.75.77 3.64 1.18 5.51 1.18 1.86 0 3.7-.39 5.36-1.2 2.21-1.09 4.11-2.95 5.31-5.69.38-.87 1.41-1.27 2.28-.89.37.16.66.45.84.78.93 1.67 2.18 3.06 3.65 4.16 2.56 1.91 5.79 2.95 9.17 3.09 3.41.14 6.95-.64 10.1-2.37 2.22-1.22 4.23-2.92 5.86-5.1.57-.77 1.65-.93 2.41-.36.25.18.43.42.55.68 1.05 2.32 2.96 4.1 5.3 5.28 2.13 1.07 4.62 1.65 7.15 1.71 2.54.05 5.11-.43 7.43-1.48 2.75-1.24 5.13-3.3 6.6-6.22.43-.85 1.47-1.19 2.32-.76.4.2.68.53.83.91 1.09 2.76 2.67 4.82 4.57 6.09 1.85 1.23 4.04 1.72 6.38 1.38.94-.14 1.82.52 1.96 1.46s-.52 1.82-1.46 1.96c-3.2.47-6.22-.21-8.8-1.93-1.73-1.15-3.24-2.76-4.45-4.8-1.76 2.25-4.02 3.93-6.53 5.06-2.78 1.26-5.88 1.84-8.92 1.78s-6.05-.76-8.64-2.07c-2.22-1.12-4.15-2.68-5.58-4.66-1.59 1.68-3.39 3.05-5.32 4.12-3.7 2.04-7.88 2.96-11.9 2.79-4.05-.17-7.96-1.44-11.09-3.76-1.1-.82-2.11-1.77-2.99-2.85-1.48 2.16-3.39 3.75-5.53 4.8s-4.5 1.56-6.87 1.55c-2.36 0-4.73-.51-6.9-1.46-2.44-1.08-4.65-2.74-6.34-4.91-.91 1.51-1.92 2.79-3.13 3.84-1.93 1.67-4.3 2.66-7.47 2.83zm0 14.45c-.95.05-1.76-.68-1.81-1.64-.05-.95.68-1.76 1.64-1.81 2.32-.13 4.03-.83 5.39-2.01 1.44-1.25 2.59-3.09 3.71-5.41.42-.86 1.45-1.22 2.31-.8.4.2.7.53.85.92 1.35 2.68 3.62 4.65 6.25 5.81 1.75.77 3.64 1.18 5.51 1.18 1.86 0 3.7-.39 5.36-1.2 2.21-1.09 4.11-2.95 5.31-5.69.38-.87 1.41-1.27 2.28-.89.37.16.66.45.84.78.93 1.67 2.18 3.06 3.65 4.16 2.56 1.91 5.79 2.95 9.17 3.09 3.41.14 6.95-.64 10.1-2.37 2.22-1.22 4.23-2.92 5.86-5.1.57-.77 1.65-.93 2.41-.36.25.18.43.42.55.68 1.05 2.32 2.96 4.1 5.3 5.28 2.13 1.07 4.62 1.65 7.15 1.71 2.54.05 5.11-.43 7.43-1.48 2.75-1.24 5.13-3.3 6.6-6.22.43-.85 1.47-1.19 2.32-.76.4.2.68.53.83.91 1.09 2.76 2.67 4.82 4.57 6.09 1.85 1.23 4.04 1.72 6.38 1.38.94-.14 1.82.52 1.96 1.46s-.52 1.82-1.46 1.96c-3.2.47-6.22-.21-8.8-1.93-1.73-1.15-3.24-2.76-4.45-4.8-1.76 2.25-4.02 3.93-6.53 5.06-2.78 1.26-5.88 1.84-8.92 1.78-3.05-.06-6.05-.76-8.64-2.07-2.22-1.12-4.15-2.68-5.58-4.66-1.59 1.68-3.39 3.05-5.32 4.12-3.7 2.04-7.88 2.96-11.9 2.79-4.05-.17-7.96-1.44-11.09-3.76-1.1-.82-2.11-1.77-2.99-2.85-1.48 2.16-3.39 3.75-5.53 4.8s-4.5 1.56-6.87 1.55c-2.36 0-4.73-.51-6.9-1.46-2.44-1.08-4.65-2.74-6.34-4.91-.92 1.51-1.92 2.79-3.13 3.84-1.93 1.66-4.3 2.66-7.47 2.83zm74.92-32.11c-15.92 5-33.72 6.69-47.46 1.08 2.84-.12 5.63-.76 8.09-1.97 2.2-1.08 4.14-2.61 5.62-4.62 1.28 1.81 2.67 3.27 4.15 4.37 2.06 1.54 4.29 2.38 6.63 2.51 2.31.13 4.69-.45 7.05-1.75 2.18-1.2 4.35-3.03 6.47-5.5 1.38 1.76 3.26 3.21 5.47 4.32 1.23.63 2.57 1.15 3.98 1.56z" fill-rule="evenodd"/></svg>