<svg enable-background="new 0 0 122.88 110.28" viewBox="0 0 122.88 110.28" xmlns="http://www.w3.org/2000/svg"><path d="m23.84 71.8c2.01.25 3.43 2.09 3.18 4.1s-2.09 3.43-4.1 3.18c-2.67-.34-5.09-.97-7.29-1.88-2.27-.94-4.28-2.15-6.05-3.63-1.68-1.4-3.15-2.99-4.4-4.72-3.34-4.6-5.14-10.22-5.18-15.82-.04-5.66 1.72-11.29 5.52-15.85 1.23-1.48 2.68-2.84 4.34-4.04 1.93-1.4 4.14-2.58 6.64-3.55 1.72-.67 3.56-1.23 5.5-1.68 2.2-8.74 6.89-15.47 12.92-20.14 5.64-4.37 12.43-6.92 19.42-7.59 6.96-.67 14.12.51 20.55 3.6 7.02 3.37 13.14 8.98 17.11 16.87 1.6-.25 3.2-.38 4.79-.36 6.72.04 13.2 2.45 18.3 7.95 1.07 1.15 2.08 2.45 3.02 3.9 3.2 4.92 4.84 11.49 4.77 17.92-.07 6.31-1.77 12.59-5.25 17.22-2.27 3.01-5.18 5.47-8.67 7.42-3.36 1.88-7.28 3.31-11.68 4.33-1.98.45-3.95-.78-4.4-2.76s.78-3.95 2.76-4.4c3.71-.86 6.97-2.04 9.72-3.58 2.63-1.47 4.78-3.26 6.39-5.41 2.5-3.33 3.73-8.04 3.78-12.87.06-5.07-1.18-10.16-3.59-13.86-.69-1.06-1.45-2.03-2.25-2.89-3.61-3.89-8.19-5.59-12.95-5.62-3.46-.02-7.02.81-10.41 2.31-.75.37-1.5.77-2.25 1.21-2.25 1.32-4.47 2.93-6.74 4.78l-4.84-5.54c1.67-1.55 3.48-2.96 5.4-4.21 1.53-1 3.13-1.88 4.77-2.65.66-.33 1.33-.64 2-.93-3.19-5.65-7.78-9.7-12.98-12.2-5.2-2.49-11.02-3.45-16.69-2.9-5.63.54-11.1 2.59-15.62 6.1-5.23 4.06-9.2 10.11-10.73 18.14l-.48 2.51-2.5.44c-2.45.43-4.64 1.02-6.56 1.77-1.86.72-3.52 1.61-4.97 2.66-1.16.84-2.16 1.78-3.01 2.8-2.63 3.15-3.85 7.1-3.82 11.1.03 4.06 1.35 8.16 3.79 11.53.91 1.25 1.96 2.4 3.16 3.4 1.22 1.01 2.59 1.85 4.13 2.48 1.64.64 3.45 1.11 5.45 1.36zm31.79 7.97c2.19 10.17 8.77 15.25 8.77 20.34s-2.19 10.17-8.77 10.17-8.77-5.08-8.77-10.17c-0-5.08 6.57-10.17 8.77-20.34zm19.46-26.86c2.19 11.04 8.77 16.56 8.77 22.08s-2.19 11.04-8.77 11.04-8.77-5.52-8.77-11.04 6.58-11.04 8.77-22.08zm-29.35-1.07c1.58 7.31 6.31 10.97 6.31 14.63s-1.58 7.31-6.31 7.31-6.31-3.66-6.31-7.31c0-3.66 4.73-7.32 6.31-14.63z"/></svg>