<svg enable-background="new 0 0 89.43 122.88" height="122.88" viewBox="0 0 89.43 122.88" width="89.43" xmlns="http://www.w3.org/2000/svg"><g clip-rule="evenodd" fill-rule="evenodd"><path d="m45.28 75.39h7.5v47.49h-7.5z" fill="#3bb346"/><path d="m50.4 115.55c-8.19-16.69-25.83-23.05-41.42-16.03 8.68 18.33 24.41 18.77 41.42 16.03z" fill="#3bb346"/><path d="m43.6 115.06-34.62-15.54c8.68 18.33 27.97 19.18 34.62 15.54z" fill="#3e9c2a"/><path d="m50.03 110.09c.75-17.88 12.08-28.31 28.54-28.16-.56 19.52-12.49 23.99-28.54 28.16z" fill="#3bb346"/><path d="m56.29 108.35 22.28-26.42c-.56 19.52-10.15 22.02-22.28 26.42z" fill="#3e9c2a"/><path d="m44.69 21.42c12.41 0 22.47 10.06 22.47 22.47s-10.06 22.47-22.47 22.47-22.47-10.06-22.47-22.47 10.06-22.47 22.47-22.47z" fill="#a6601b"/></g><path d="m41.04 21.32c.03-4.5 1.04-8.44 2.85-11.83 1.95-3.68 4.82-6.72 8.35-9.15.84-.58 2-.37 2.58.47l.05.07c2.26 3.6 3.75 7.37 4.18 11.35.43 4-.21 8.17-2.23 12.54-.43.93-1.53 1.34-2.46.91l-.1-.05c-1.69-.92-3.47-1.57-5.32-1.95-1.87-.39-3.84-.51-5.91-.37-1.02.07-1.91-.71-1.98-1.73-.01-.09-.01-.18-.01-.26zm6.13-10.09c-1.29 2.43-2.11 5.2-2.35 8.31 1.66.01 3.28.18 4.85.5 1.56.32 3.06.79 4.5 1.42 1.14-3.08 1.49-6.02 1.18-8.84-.3-2.75-1.22-5.43-2.62-8.03-2.3 1.86-4.2 4.07-5.56 6.64z" fill="#864d16"/><path clip-rule="evenodd" d="m42.89 21.45c.02-8.77 4.05-15.21 10.4-19.6 4.23 6.76 5.58 14.04 1.84 22.13-3.69-1.99-7.77-2.83-12.24-2.53z" fill="#ffc90e" fill-rule="evenodd"/><path d="m51.07 22.04c1.96-4.09 4.59-7.24 7.71-9.55 3.35-2.48 7.25-3.99 11.48-4.67 1.01-.16 1.96.53 2.12 1.54l.01.08c.48 4.23.21 8.27-1.11 12.04-1.33 3.81-3.71 7.29-7.41 10.37-.79.65-1.96.54-2.62-.25-.06-.07-.11-.14-.15-.21-1.11-1.5-2.4-2.8-3.87-3.92-1.53-1.16-3.25-2.12-5.18-2.88-.95-.38-1.42-1.45-1.04-2.41zm9.92-6.57c-2.21 1.64-4.14 3.78-5.7 6.49 1.5.73 2.9 1.58 4.17 2.55 1.26.96 2.41 2.03 3.44 3.21 2.36-2.29 3.94-4.79 4.87-7.47.92-2.62 1.23-5.43 1.09-8.39-2.88.71-5.54 1.88-7.87 3.61z" fill="#864d16"/><path clip-rule="evenodd" d="m52.73 22.86c3.79-7.91 10.21-11.99 17.82-13.21.91 7.93-1 15.08-7.87 20.77-2.47-3.39-5.79-5.91-9.95-7.56z" fill="#ffc90e" fill-rule="evenodd"/><path d="m59.87 26.9c3.53-2.84 7.25-4.54 11.05-5.29 4.09-.8 8.26-.48 12.37.73.98.29 1.55 1.32 1.26 2.3l-.03.08c-1.38 4.02-3.37 7.55-6.19 10.4-2.84 2.86-6.48 4.98-11.15 6.16-1 .25-2-.36-2.25-1.35-.02-.07-.03-.14-.04-.22-.35-1.84-.96-3.59-1.82-5.26-.88-1.7-2.02-3.31-3.43-4.82-.7-.75-.66-1.92.09-2.62.05-.04.09-.08.14-.11zm11.77-1.64c-2.7.53-5.36 1.63-7.93 3.41 1.04 1.3 1.93 2.67 2.67 4.09.73 1.4 1.3 2.87 1.72 4.39 3.12-1.05 5.62-2.63 7.61-4.64 1.95-1.96 3.45-4.36 4.59-7.1-2.91-.62-5.82-.71-8.66-.15z" fill="#864d16"/><path clip-rule="evenodd" d="m61 28.37c6.83-5.51 14.37-6.43 21.77-4.25-2.59 7.55-7.39 13.18-16.04 15.36-.77-4.13-2.69-7.83-5.73-11.11z" fill="#ffc90e" fill-rule="evenodd"/><path d="m65.66 35.1c4.41-1.05 8.52-.99 12.29-.02 4.04 1.04 7.67 3.12 10.86 5.98.76.68.83 1.85.15 2.62l-.06.06c-2.98 3.04-6.29 5.37-10.06 6.72-3.8 1.36-8 1.71-12.72.77-1.01-.2-1.66-1.18-1.46-2.19.02-.08.04-.15.06-.22.47-1.82.68-3.66.62-5.52-.06-1.9-.4-3.85-1.02-5.83-.3-.98.24-2.02 1.22-2.33zm11.38 3.57c-2.66-.68-5.54-.83-8.63-.33.38 1.62.59 3.23.64 4.84.05 1.58-.06 3.15-.33 4.7 3.27.4 6.21.04 8.87-.91 2.61-.94 5-2.46 7.2-4.43-2.36-1.82-4.95-3.15-7.75-3.87z" fill="#864d16"/><path clip-rule="evenodd" d="m66.09 36.9c8.53-2.03 15.74.39 21.48 5.53-5.59 5.69-12.34 8.71-21.09 6.96 1.09-4.05.95-8.22-.39-12.49z" fill="#ffc90e" fill-rule="evenodd"/><path d="m67.4 44.98h.02c4.44.95 8.12 2.78 11.1 5.27 3.2 2.68 5.58 6.12 7.23 10.07.39.95-.06 2.03-1 2.43l-.16.06c-3.97 1.44-7.94 2.11-11.88 1.71-4.01-.41-7.95-1.9-11.81-4.79-.82-.61-.98-1.78-.37-2.59.04-.05.08-.1.13-.15 1.21-1.44 2.19-3.02 2.95-4.74.77-1.75 1.3-3.65 1.59-5.71.14-1.02 1.08-1.72 2.1-1.58zm8.73 8.12c-2.11-1.77-4.64-3.14-7.64-4.02-.36 1.63-.86 3.17-1.5 4.64-.63 1.45-1.41 2.82-2.33 4.11 2.77 1.76 5.58 2.7 8.4 2.99 2.76.28 5.57-.07 8.41-.9-1.35-2.64-3.12-4.95-5.34-6.82z" fill="#864d16"/><path clip-rule="evenodd" d="m67.01 46.8c8.58 1.84 14.04 7.12 17.01 14.24-7.5 2.73-14.89 2.55-22.03-2.79 2.73-3.2 4.39-7.02 5.02-11.45z" fill="#ffc90e" fill-rule="evenodd"/><path d="m64.78 54.7c3.57 2.76 6.08 5.97 7.69 9.49 1.74 3.8 2.4 7.92 2.19 12.19-.05 1.02-.92 1.81-1.94 1.77l-.16-.01c-4.21-.41-8.08-1.52-11.48-3.58-3.44-2.09-6.36-5.14-8.6-9.41-.47-.91-.12-2.03.79-2.5l.1-.05c1.75-.78 3.34-1.8 4.78-3.04 1.45-1.25 2.74-2.74 3.89-4.46.57-.85 1.72-1.09 2.57-.52.06.04.12.08.17.12zm4.32 11.04c-1.14-2.5-2.84-4.83-5.17-6.92-1.02 1.31-2.14 2.5-3.35 3.55-1.2 1.04-2.49 1.94-3.87 2.71 1.75 2.78 3.87 4.84 6.29 6.32 2.37 1.44 5.06 2.34 7.98 2.81-.07-2.99-.67-5.84-1.88-8.47z" fill="#864d16"/><path clip-rule="evenodd" d="m63.59 56.12c6.95 5.35 9.61 12.47 9.22 20.17-7.94-.76-14.54-4.11-18.68-12 3.83-1.71 6.98-4.44 9.46-8.17z" fill="#ffc90e" fill-rule="evenodd"/><path d="m58.14 62.23c2.06 4.05 2.95 8.05 2.89 11.95-.07 4.18-1.24 8.19-3.27 11.95-.49.9-1.61 1.24-2.51.76-.06-.03-.11-.06-.16-.1-3.62-2.18-6.63-4.85-8.8-8.16-2.2-3.36-3.52-7.37-3.71-12.19-.04-1.02.76-1.88 1.79-1.92h.15c1.9.04 3.77-.19 5.59-.69 1.84-.5 3.65-1.29 5.43-2.35.88-.53 2.02-.24 2.54.64zm-.82 11.89c.04-2.75-.49-5.58-1.69-8.47-1.49.75-3.01 1.33-4.56 1.76-1.53.42-3.08.68-4.65.78.38 3.26 1.41 6.03 2.97 8.41 1.52 2.32 3.56 4.29 5.98 5.97 1.22-2.72 1.91-5.55 1.95-8.45z" fill="#864d16"/><path clip-rule="evenodd" d="m56.48 63.07c3.97 7.82 3.3 15.39-.36 22.18-6.84-4.1-11.35-9.97-11.7-18.88 4.21.1 8.23-1 12.06-3.3z" fill="#ffc90e" fill-rule="evenodd"/><path d="m48.94 66.28c.11 4.53-.81 8.51-2.53 11.98-1.86 3.74-4.64 6.85-8.1 9.38-.83.61-1.99.43-2.59-.4l-.05-.07c-2.35-3.55-3.94-7.27-4.48-11.24-.54-3.99-.01-8.18 1.89-12.6.41-.94 1.5-1.38 2.44-.97.07.03.13.06.2.1 1.67.84 3.44 1.42 5.28 1.75 1.9.34 3.87.41 5.92.22 1.02-.1 1.92.65 2.02 1.67-.01.06-0 .12-0 .18zm-5.86 10.34c1.23-2.47 1.97-5.25 2.13-8.38-1.68.04-3.3-.09-4.87-.37-1.56-.28-3.07-.71-4.53-1.3-1.06 3.11-1.33 6.06-.95 8.87.37 2.75 1.37 5.39 2.84 7.96 2.25-1.93 4.09-4.19 5.38-6.78z" fill="#864d16"/><path clip-rule="evenodd" d="m47.08 66.28c.22 8.77-3.64 15.32-9.87 19.87-4.41-6.65-5.96-13.88-2.43-22.07 3.74 1.89 7.85 2.62 12.3 2.2z" fill="#ffc90e" fill-rule="evenodd"/><path d="m38.88 65.95c-1.85 4.12-4.39 7.32-7.44 9.71-3.28 2.57-7.14 4.19-11.35 4.98-1.01.19-1.98-.48-2.17-1.48l-.01-.09c-.6-4.21-.43-8.26.79-12.07 1.23-3.83 3.51-7.38 7.13-10.56.77-.67 1.94-.6 2.62.17l.07.09c1.17 1.52 2.53 2.83 4.07 3.94 1.55 1.11 3.3 2.03 5.25 2.74.96.35 1.46 1.41 1.11 2.38-.02.07-.04.13-.07.19zm-9.72 6.79c2.16-1.69 4.03-3.89 5.52-6.64-1.52-.69-2.94-1.5-4.24-2.44-1.28-.92-2.46-1.96-3.52-3.12-2.3 2.35-3.8 4.9-4.67 7.6-.85 2.64-1.09 5.46-.87 8.41 2.86-.78 5.49-2.02 7.78-3.81z" fill="#864d16"/><path clip-rule="evenodd" d="m37.21 65.13c-3.58 8.01-9.88 12.26-17.46 13.68-1.12-7.9.6-15.1 7.31-20.97 2.56 3.33 5.95 5.75 10.15 7.29z" fill="#ffc90e" fill-rule="evenodd"/><path d="m30 61.25c-3.46 2.95-7.15 4.76-10.95 5.61-4.07.91-8.24.71-12.38-.39-.99-.26-1.58-1.28-1.32-2.27l.02-.08c1.27-4.06 3.17-7.65 5.91-10.56 2.76-2.93 6.35-5.16 10.98-6.46.99-.28 2.01.3 2.29 1.29l.03.12c.4 1.87 1.06 3.64 1.98 5.31.93 1.68 2.11 3.26 3.55 4.73.72.73.71 1.9-.02 2.62zm-11.75 1.99c2.68-.6 5.31-1.78 7.84-3.62-1.08-1.28-2-2.62-2.78-4.02-.76-1.39-1.38-2.83-1.84-4.34-3.08 1.13-5.54 2.78-7.48 4.85-1.9 2.02-3.33 4.46-4.4 7.22 2.92.54 5.83.54 8.66-.09z" fill="#864d16"/><path clip-rule="evenodd" d="m28.8 59.84c-6.68 5.69-14.2 6.81-21.65 4.83 2.39-7.61 7.04-13.37 15.62-15.78.88 4.11 2.9 7.76 6.03 10.95z" fill="#ffc90e" fill-rule="evenodd"/><path d="m23.9 53.26c-4.37 1.16-8.46 1.2-12.23.33-4.07-.93-7.75-2.91-11.01-5.68-.78-.66-.88-1.83-.22-2.62l.08-.09c2.89-3.1 6.14-5.52 9.86-6.96 3.75-1.46 7.95-1.92 12.69-1.1 1.01.17 1.69 1.13 1.52 2.14l-.02.12c-.44 1.87-.61 3.76-.5 5.65.11 1.91.51 3.85 1.18 5.81.33.97-.19 2.03-1.16 2.35-.07.02-.13.04-.19.05zm-11.41-3.28c2.68.61 5.56.68 8.63.11-.42-1.61-.68-3.22-.77-4.82-.09-1.58-.03-3.16.2-4.71-3.27-.31-6.2.13-8.84 1.15-2.58 1-4.92 2.59-7.08 4.62 2.41 1.74 5.04 3 7.86 3.65z" fill="#864d16"/><path clip-rule="evenodd" d="m23.48 51.45c-8.48 2.26-15.74.04-21.62-4.96 5.43-5.84 12.11-9.04 20.89-7.52-.97 4.09-.72 8.25.73 12.48z" fill="#ffc90e" fill-rule="evenodd"/><path d="m21.83 43.39c-4.42-.84-8.11-2.56-11.13-4.95-3.27-2.59-5.73-5.96-7.49-9.87-.42-.93 0-2.03.94-2.45l.07-.03c3.96-1.56 7.93-2.35 11.92-2.05 4.01.3 8 1.69 11.93 4.48.83.59 1.03 1.75.44 2.58l-.07.09c-1.2 1.49-2.16 3.12-2.88 4.88-.72 1.78-1.2 3.69-1.44 5.74-.12 1.02-1.04 1.75-2.06 1.64-.06-.03-.15-.04-.23-.06zm-8.82-7.86c2.16 1.71 4.72 3.01 7.74 3.81.31-1.64.77-3.2 1.37-4.68.6-1.47 1.34-2.86 2.22-4.17-2.82-1.68-5.64-2.55-8.47-2.76-2.77-.21-5.57.22-8.39 1.12 1.43 2.61 3.26 4.87 5.53 6.68z" fill="#864d16"/><path clip-rule="evenodd" d="m22.29 41.59c-8.63-1.61-14.23-6.74-17.38-13.78 7.42-2.93 14.82-2.95 22.1 2.2-2.64 3.27-4.21 7.13-4.72 11.58z" fill="#ffc90e" fill-rule="evenodd"/><path d="m24.38 33.67c-3.68-2.68-6.3-5.84-8.01-9.33-1.84-3.75-2.61-7.85-2.51-12.12.02-1.02.87-1.84 1.89-1.82h.09c4.25.29 8.17 1.29 11.64 3.28h.01c3.5 2 6.49 4.97 8.84 9.17.5.9.18 2.03-.71 2.53-.07.04-.15.08-.23.11-1.67.82-3.2 1.86-4.58 3.12-1.42 1.3-2.68 2.82-3.77 4.56-.54.87-1.68 1.13-2.55.59zm-4.69-10.96c1.21 2.47 2.97 4.75 5.35 6.78.99-1.35 2.08-2.57 3.26-3.64 1.17-1.06 2.43-2 3.79-2.8-1.82-2.73-4-4.74-6.46-6.14-2.41-1.38-5.12-2.2-8.05-2.59.16 2.95.84 5.79 2.11 8.39z" fill="#864d16"/><path clip-rule="evenodd" d="m25.47 32.17c-7.09-5.16-9.94-12.21-9.76-19.92 7.96.55 14.64 3.72 19 11.5-3.79 1.82-6.87 4.63-9.24 8.42z" fill="#ffc90e" fill-rule="evenodd"/><path d="m30.71 25.84c-2.13-3.96-3.12-7.92-3.17-11.79-.04-4.17 1.02-8.21 2.95-12.03.46-.92 1.58-1.28 2.49-.82.06.03.13.07.19.11 3.66 2.08 6.74 4.66 8.99 7.91 2.3 3.31 3.72 7.28 4.04 12.08.06 1.02-.71 1.91-1.74 1.97-.08 0-.15 0-.22 0-1.86.01-3.69.3-5.49.84-1.84.56-3.63 1.39-5.37 2.5-.87.55-2.02.29-2.57-.57-.04-.07-.07-.13-.1-.2zm.54-11.82c.03 2.74.64 5.56 1.92 8.41 1.47-.79 2.98-1.42 4.52-1.88 1.5-.46 3.04-.75 4.62-.89-.47-3.25-1.57-6-3.19-8.33-1.58-2.28-3.67-4.19-6.14-5.8-1.15 2.74-1.76 5.59-1.73 8.49z" fill="#864d16"/><path clip-rule="evenodd" d="m32.38 25.04c-4.18-7.71-3.71-15.3-.23-22.18 6.95 3.92 11.62 9.66 12.2 18.56-4.2 0-8.19 1.22-11.97 3.62z" fill="#ffc90e" fill-rule="evenodd"/><path clip-rule="evenodd" d="m44.69 32.1c6.52 0 11.8 5.28 11.8 11.8 0 6.51-5.28 11.8-11.8 11.8-6.51 0-11.8-5.28-11.8-11.8s5.28-11.8 11.8-11.8z" fill="#864d16" fill-rule="evenodd"/></svg>