<svg clip-rule="evenodd" fill-rule="evenodd" image-rendering="optimizeQuality" shape-rendering="geometricPrecision" text-rendering="geometricPrecision" viewBox="0 0 511.989 511.989" xmlns="http://www.w3.org/2000/svg"><path d="m0 255.994c0-141.382 114.612-255.994 255.994-255.994s255.995 114.613 255.995 255.995-114.612 255.994-255.994 255.994-255.995-114.613-255.995-255.995z" fill="#ffd337"/><path d="m388.314 137.568c20.557 21.28 35.336 47.612 42.757 76.254 7.168 27.663 7.498 57.517-.418 87.102l.028.008c-12.242 45.693-41.829 82.089-79.759 103.991-52.896 30.539-117.646 30.413-170.148.638a170.591 170.591 0 0 1 -34.729-26.076c-6.122-5.984-6.239-15.8-.256-21.922l220.431-220.167c6.052-6.053 15.869-6.053 21.922 0z" fill="#292d35" fill-rule="nonzero"/><path d="m377.181 148.356c36.727 38.02 53.176 93.8 38.498 148.579-22.254 83.054-107.622 132.342-190.676 110.087-26.583-7.123-49.699-20.718-68.125-38.627z" fill="#565656"/><path d="m433.852 259.035c.736 53.149-23.958 103.43-66.351 135.242-29.301 21.99-65.665 34.161-103.515 33.311-8.569-.216-15.346-7.338-15.131-15.907 0-51.871 24.877-101.776 66.252-133.339 29.219-22.292 65.496-34.889 103.357-34.636 8.462.07 15.287 6.905 15.388 15.329z" fill="#292d35" fill-rule="nonzero"/><path d="m418.314 259.202a150.751 150.751 0 0 1 -5.151 41.179c-18.341 68.451-80.981 113.191-148.811 111.666a153.206 153.206 0 0 1 5.242-39.394c18.409-68.707 80.764-113.899 148.72-113.451z" fill="#fb3939"/><path d="m233.696 177.525c5.793-46.483 31.066-71.148 74.689-75.134 19.666-1.797 19.454-11.559 2.467-18.85-16.891-7.249-33.214-11.47-48.79-11.727-65.782-1.083-65.478 58.349-46.399 105.735 6.09 15.131 15.552 19.891 18.033-.024zm-56.17 56.171c-46.485 5.794-71.148 31.066-75.134 74.689-1.798 19.665-11.559 19.454-18.853 2.468-7.248-16.891-11.468-33.216-11.724-48.791-1.086-65.781 58.348-65.478 105.734-46.4 15.129 6.092 19.892 15.553-.023 18.034z" fill="#40270e"/><path d="m96.236 317.723 56.597 80.69c16.115 24.177 15.439 44.896 6.434 59.902-6.528 10.878-17.416 18.32-29.49 21.695-11.82 3.299-25.01 2.735-36.441-2.314-16.687-7.37-29.476-23.668-28.985-50.491l.036-.812 11.589-137.558zm300.991-169.704-108.548-71.983 133.803-14.793.815-.035c26.149-1.162 42.362 10.882 49.966 26.951 5.192 10.972 6.06 23.81 3.136 35.444-2.979 11.856-9.962 22.662-20.398 29.304-14.409 9.162-34.581 10.363-58.527-4.712z" fill="#4ba9ff"/></svg>