<svg viewBox="0 0 122.72 122.88" xmlns="http://www.w3.org/2000/svg"><path d="m4.15 95c-.49-11 12.18-24.88 28.85-20.13-4.85 6.2-7.84 11.21-8.91 15-1.57 5.61 2.22 10.2 8.09 8.9 4.23-.94 9.7-4.35 15.67-8.77 4.33 14-7.16 28.46-20.07 28.88 1.19-4.39 6.12-14.22-.78-9.7-4.84 3.18-13.62 8.15-20.12 6.76-2.38-12.42 13.56-25.66 3.89-23.32a37.63 37.63 0 0 0 -6.62 2.38z" fill="#d8182b" fill-rule="evenodd"/><path d="m36.37 58.88c12.15-36.34 43.87-61.52 83.46-58.66a2.75 2.75 0 0 1 2.56 2.7c3.62 40.4-23.1 70.49-58.52 84.51v22a2.75 2.75 0 0 1 -1.53 2.47l-17 10.53a2.76 2.76 0 0 1 -4.18-2c-3.81-28.78-7.82-30.16-31.4-38.32l-7.92-2.75a2.76 2.76 0 0 1 -1.68-3.52 2.91 2.91 0 0 1 .45-.84l11.24-16a2.75 2.75 0 0 1 2.38-1.18l22.14 1.05z" fill="#262626"/><path d="m74.33 16.26a64.47 64.47 0 0 1 41.29-11.2 2.27 2.27 0 0 1 2.11 2.23c1.36 15.18-3.12 29.22-11.16 41.2z" fill="#ce2700" fill-rule="evenodd"/><path d="m37.85 69.38c4.97-17.92 15.06-35.28 29.15-47.47l34 34a96.5 96.5 0 0 1 -47.08 29.5l-8.85-8.81z" fill="#ddd4d4" fill-rule="evenodd"/><path d="m78.05 44.19a8.41 8.41 0 1 0 2.46 6 8.37 8.37 0 0 0 -2.46-6z" fill="#262626"/></svg>