<svg enable-background="new 0 0 105.765 122.88" height="122.88" viewBox="0 0 105.765 122.88" width="105.765" xmlns="http://www.w3.org/2000/svg"><path d="m82.872 90.81c-2.983-8.16-7.707-14.175-13.283-18.06-3.772-2.629-7.914-4.284-12.133-4.97-4.236-.686-8.583-.408-12.747.828-9.136 2.715-17.379 10.108-21.806 22.202zm-62.254-63.6h64.535c.346-2.922 1.154-13.713 1.119-16.995h-66.775c-.035 3.283.773 14.073 1.121 16.995zm-19.708 85.455h9.567c-.255-27.545 12.171-44.635 27.55-51.199-15.39-6.566-27.822-23.676-27.549-51.252h-9.567c-.501 0-.909-.46-.909-1.025l-.002-8.165c0-.564.409-1.024.91-1.024h103.944c.5 0 .91.46.91 1.024v8.164c0 .563-.41 1.024-.91 1.024h-9.57c.225 23.214-8.581 39.038-20.546 47.376-2.188 1.522-4.543 2.832-6.994 3.873 2.446 1.049 4.81 2.354 6.992 3.88 11.955 8.332 20.756 24.139 20.546 47.321l9.572.001c.5 0 .91.463.91 1.026v8.162c0 .564-.41 1.027-.91 1.027h-103.944c-.501 0-.909-.463-.909-1.026v-8.162c-0-.562.409-1.025.909-1.025z"/></svg>