<svg enable-background="new 0 0 122.88 106.95" viewBox="0 0 122.88 106.95" xmlns="http://www.w3.org/2000/svg"><path d="m88.77 78.73h-15.15v-6.57h15.83v-.01c.26 0 .52-.02.79-.05 2-.24 3.67-1.06 5.01-2.23 1.3-1.14 2.19-2.54 2.71-4.01.48-1.39.63-2.89.46-4.31-.19-1.56-.78-3.1-1.76-4.4-.1-.14-.21-.27-.32-.41l-1.38-1.61-4.46-5.22c.43-.31.84-.66 1.22-1.04 1.1-1.11 1.9-2.49 2.34-3.96.43-1.44.52-3.01.23-4.57-.33-1.73-1.13-3.43-2.49-4.88l-7.8-9.17 6.64-7.88c.87-1.03 1.79-2.54 3.3-2.51 1.3.03 2.08 1.26 2.85 2.16l13.49 15.74c1.47 2.1.21 4.31-2.33 4.31h-3.64l13.83 16.21c1.66 1.64.81 4.28-1.1 4.63h-8.04l12.06 14.14 1.32 1.55c1.01 1.16.5 3.79-1.67 4.05h-21.74z" fill="#3e9c2a"/><path d="m94.32 70.59c.33-.22.64-.46.93-.72 1.3-1.14 2.19-2.54 2.71-4.01.48-1.39.63-2.89.46-4.31-.19-1.56-.78-3.1-1.76-4.4-.1-.14-.21-.27-.32-.41l-1.38-1.61-.64-.75v-10.53c.2-1.1.2-2.25 0-3.39v-24.5c1.08.23 1.78 1.3 2.46 2.12l13.49 15.74c1.47 2.1.21 4.31-2.33 4.31h-3.64l13.83 16.21c1.66 1.64.81 4.28-1.1 4.63h-8.03l12.06 14.14 1.32 1.55c1.01 1.16.5 3.79-1.67 4.05h-21.74l-4.65.01z" fill="#51b53c"/><path d="m35.14 65.38c-3.53.32-4.25-2.47-2.74-4.78l13.46-15.79-.39-.39h-7.2c-2.61.38-3.58-2.44-1.99-4.43l14.5-17.02h-4.24c-2.66.07-3.31-2.37-1.61-4.67l13.22-15.69c.9-1.07 1.87-2.65 3.44-2.61 1.35.03 2.16 1.31 2.97 2.24l14.04 16.38c1.52 2.19.22 4.49-2.43 4.49h-3.79l14.4 16.87c1.73 1.71.84 4.45-1.14 4.82h-8.37l12.54 14.74 1.38 1.61c1.05 1.2.52 3.95-1.74 4.22-18.1 0-36.2.01-54.31.01z" fill="#51b53c"/><path d="m61.62 0c1.33.05 2.14 1.31 2.94 2.24l14.04 16.38c1.52 2.19.22 4.49-2.43 4.49h-3.79l14.4 16.87c1.73 1.71.84 4.45-1.14 4.82h-8.37l12.54 14.74 1.38 1.61c1.05 1.2.52 3.95-1.74 4.22l-27.83.01z" fill="#3e9c2a"/><path d="m23.58 78.73h-20.24c-3.39.31-4.08-2.36-2.63-4.59l12.94-15.16-.37-.37h-6.92c-2.51.37-3.44-2.34-1.92-4.26l13.93-16.36h-4.06c-2.54.07-3.18-2.27-1.54-4.49l12.69-15.07c.86-1.03 1.79-2.54 3.3-2.5 1.3.03 2.08 1.26 2.85 2.16l7.26 8.47-7.37 8.65c-.18.18-.35.37-.51.57-1.3 1.63-2.01 3.53-2.18 5.41-.17 1.79.16 3.57.95 5.12.69 1.37 1.71 2.54 3.04 3.42l-5.51 6.46c-.19.22-.37.46-.53.71-1.38 2.12-2 4.57-1.79 6.85.12 1.33.5 2.59 1.15 3.73.7 1.22 1.67 2.27 2.92 3.1 1.6 1.04 3.58 1.64 5.92 1.57h.21 14.29v6.57h-15.67z" fill="#51b53c"/><path d="m29.09 15.96c1.1.21 1.82 1.3 2.52 2.13l7.26 8.47-7.37 8.65c-.18.18-.35.37-.51.57-.92 1.15-1.54 2.44-1.89 3.77v-23.59zm0 28.66c.16.59.38 1.16.66 1.7.69 1.37 1.71 2.54 3.04 3.42l-3.69 4.33v-9.45zm0 26.03c1.59 1.01 3.54 1.59 5.84 1.52h.21 14.26v6.57h-15.61-4.7z" fill="#3e9c2a"/><path d="m12.73 106.95c-3.31 0-5.99-2.26-5.99-5.05s2.68-5.05 5.99-5.05c32.72 0 65.37-.02 98.14-.02 3.21.1 5.77 2.32 5.77 5.04 0 2.79-2.68 5.05-5.99 5.05h-97.92z" fill="#983f15"/><g clip-rule="evenodd" fill="#6f4a40" fill-rule="evenodd"><path d="m23.58 78.73h10.21v18.12h-10.21z"/><path d="m56.21 65.39h10.62v31.46h-10.62z"/><path d="m88.76 78.73h10.2v18.12h-10.2z"/></g></svg>