<svg enable-background="new 0 0 122.88 122.88" viewBox="0 0 122.88 122.88" xmlns="http://www.w3.org/2000/svg"><path clip-rule="evenodd" d="m3.52 16.22 12.7-12.7c4.69-4.69 12.37-4.69 17.07 0l86.07 86.07c4.69 4.69 4.69 12.37 0 17.07l-12.7 12.7c-4.69 4.69-12.37 4.69-17.07 0l-86.07-86.07c-4.69-4.7-4.69-12.38 0-17.07zm79.51 75.85c1.22-1.22 3.19-1.22 4.41 0 .66.66.96 1.53.91 2.39.02.82-.29 1.64-.91 2.27-1.22 1.22-3.19 1.22-4.41 0-.65-.66-.96-1.53-.91-2.39-.01-.82.29-1.65.91-2.27zm-42.63-36.39 15.28-15.28c.78-.78 2.05-.78 2.83 0l23.97 23.97c.78.78.78 2.05 0 2.83l-15.28 15.28c-.78.78-2.05.78-2.83 0l-23.97-23.97c-.78-.78-.78-2.05 0-2.83zm-10.69-15.12c-1.15.51-2.54.3-3.48-.64-1.22-1.22-1.22-3.19 0-4.41.32-.32.7-.56 1.11-.71 1.15-.51 2.54-.3 3.48.64 1.22 1.22 1.22 3.19 0 4.41-.33.33-.71.56-1.11.71zm-7.28-12.02c.02.82-.29 1.64-.91 2.27-1.22 1.22-3.19 1.22-4.41 0-.66-.66-.96-1.53-.91-2.39-.02-.82.29-1.64.91-2.27 1.22-1.22 3.19-1.22 4.41 0 .66.65.96 1.53.91 2.39zm17.5-2.32c.58.58.89 1.34.91 2.11.05.86-.25 1.74-.91 2.4-1.22 1.22-3.19 1.22-4.41 0-.58-.58-.89-1.34-.91-2.11-.05-.86.25-1.74.91-2.4 1.22-1.21 3.19-1.21 4.41 0zm-9.12-9.12c1.22 1.22 1.22 3.19 0 4.41-.96.96-2.38 1.16-3.53.62-.38-.15-.74-.38-1.05-.69-1.22-1.22-1.22-3.19 0-4.41.96-.95 2.38-1.16 3.53-.62.39.16.74.39 1.05.69zm64.82 89.39c-1.15.51-2.54.3-3.48-.64-1.22-1.22-1.22-3.19 0-4.41.33-.33.7-.56 1.11-.71 1.15-.51 2.54-.3 3.48.64 1.22 1.22 1.22 3.19 0 4.41-.33.32-.71.55-1.11.71zm10.22-14.35c.58.58.89 1.34.91 2.11.06.86-.25 1.74-.91 2.4-1.22 1.22-3.19 1.22-4.41 0-.58-.58-.89-1.34-.91-2.11-.05-.86.25-1.74.91-2.4 1.22-1.21 3.2-1.21 4.41 0zm-9.12-9.12c1.22 1.22 1.22 3.19 0 4.41-.95.95-2.38 1.16-3.53.62-.38-.15-.74-.38-1.05-.69-1.22-1.22-1.22-3.19 0-4.41.96-.96 2.38-1.16 3.53-.62.39.16.74.39 1.05.69z" fill-rule="evenodd"/></svg>