<svg enable-background="new 0 0 122.88 71.5" viewBox="0 0 122.88 71.5" xmlns="http://www.w3.org/2000/svg"><path d="m44.44 71.5h-39.09-5.35l2.92-4.5 41.44-63.98c.23-.41.57-.77.99-1.03 1.37-.85 3.16-.43 4.01.93l16.04 25.64 3.37 5.38-1.75 2.7-4.09-6.54c-2.45-.73-5.86 8.9-8.45 8.53-3.57-.51-7.61-12.43-10.16-9.32l-8.71 10.62-9.13-3.95-21.13 32.6h40.97zm74.62-.22h-59.29-3.89l2.12-3.27 15.57-24.04.73-1.13 13.78-21.28c.17-.3.41-.56.72-.75.99-.62 2.3-.31 2.91.68l11.65 18.61 17.42 27.83c.05.07.1.14.14.22l1.96 3.13zm-59.29-2.12h59.29l-17.49-27.95c-1.78-.53-4.25 6.46-6.14 6.19-2.59-.37-5.53-9.02-7.38-6.77l-6.32 7.71-6.63-2.87zm15.62-69.16c4.6 0 8.34 3.73 8.34 8.34s-3.73 8.34-8.34 8.34c-4.6 0-8.34-3.73-8.34-8.34s3.73-8.34 8.34-8.34z"/></svg>