<svg enable-background="new 0 0 95.81 122.88" viewBox="0 0 95.81 122.88" xmlns="http://www.w3.org/2000/svg"><path clip-rule="evenodd" d="m5.2 74.42h1.24c.02-.07.04-.13.06-.2.17-.59.37-1.16.6-1.68.25-.58.54-1.15.88-1.7.66-1.09 1.48-2.07 2.42-2.87.59-.5 1.23-.93 1.92-1.28.09-1.37.35-2.65.75-3.82.12-.36.26-.71.41-1.06h-3.07zm84.17 0h1.39l-4.59-12.61h-3.84c.15.34.29.7.41 1.06.4 1.17.66 2.44.75 3.82.69.35 1.33.78 1.92 1.28.94.8 1.76 1.78 2.42 2.87.34.55.63 1.12.88 1.7.25.57.46 1.19.64 1.84zm5.48.41c.58.41.96 1.09.96 1.85v43.17c0 .84-.34 1.6-.89 2.14-.55.55-1.31.89-2.14.89h-89.75c-.84 0-1.6-.34-2.14-.89-.55-.55-.89-1.31-.89-2.14v-43.17c0-.8.42-1.5 1.05-1.91l6.19-14.96-6.45-26.37c-.05-.21-.06-.42-.04-.62.25-2.53.83-4.72 1.73-6.68.9-1.97 2.1-3.68 3.58-5.21 1.3-1.35 14.24-7.66 25.41-13.11 6.88-3.36 13.09-6.39 15.27-7.59.61-.33 1.33-.29 1.88.05 3.26 1.83 13.54 6.72 23 11.22 9.33 4.44 17.88 8.5 18.66 9.24 1.79 1.68 3.12 3.5 3.93 5.56.81 2.07 1.09 4.35.76 6.93l-.02.14-5.55 26.46zm-38.2 1.33h-17.9v10.46c0 4.92 4.03 8.95 8.95 8.95 4.92 0 8.95-4.03 8.95-8.95zm-23.9-21c.24-.16.48-.31.73-.45.67-.38 1.4-.68 2.16-.9.81-.23 1.67-.36 2.56-.39.84-.02 1.7.06 2.54.26l.03.01v-.01c4.24 1.08 6.51 1.9 7.73 2.45 1.19-.78 3.19-1.65 6.56-2.45l.17-.03c.79-.17 1.58-.25 2.37-.22.89.02 1.76.16 2.56.39.76.22 1.49.52 2.16.9.25.14.5.29.73.45.93-.48 1.92-.84 2.93-1.09 1.52-.38 3.1-.51 4.6-.4.91.06 1.82.22 2.7.46.86.23 1.72.56 2.57.97.86.42 1.67.92 2.41 1.49.57.45 1.13.96 1.65 1.53h6.05l5.34-25.43c.23-1.89.03-3.54-.55-5.02-.6-1.52-1.62-2.9-3.01-4.21-.35-.33-8.65-4.28-17.71-8.58-8.83-4.2-18.37-8.74-22.41-10.89-2.79 1.47-8.39 4.2-14.53 7.19-10.9 5.28-23.54 11.45-24.37 12.31-1.2 1.24-2.17 2.61-2.88 4.18-.69 1.51-1.15 3.22-1.37 5.2l6.16 25.23h5.27c.52-.57 1.07-1.08 1.65-1.53.74-.57 1.54-1.07 2.41-1.49.84-.41 1.7-.74 2.57-.97.88-.24 1.79-.39 2.7-.46 1.5-.11 3.08.03 4.6.4 1 .26 1.99.62 2.92 1.1zm2.55 2.78c-.38.21-.72.45-1.01.72l-.05.05-.03.02c-.61.59-1.58.7-2.31.2-.88-.59-1.89-1.01-2.96-1.27-1.14-.28-2.33-.38-3.46-.3-.67.05-1.35.16-2.01.34-.67.18-1.31.42-1.9.71-.6.29-1.19.66-1.76 1.1-.55.43-1.05.9-1.47 1.41-.75.89-1.35 1.94-1.77 3.15-.38 1.12-.6 2.37-.6 3.74.06.82-.44 1.6-1.25 1.88-.7.24-1.35.62-1.93 1.12-.64.54-1.19 1.21-1.65 1.97l-.15.25h73.83l-.15-.25c-.46-.76-1.02-1.43-1.65-1.97-.58-.49-1.23-.88-1.93-1.12-.73-.25-1.26-.95-1.25-1.76.01-1.42-.2-2.71-.6-3.86-.41-1.21-1.02-2.26-1.77-3.15-.43-.51-.92-.98-1.47-1.41-.57-.44-1.16-.81-1.76-1.1-.59-.29-1.23-.53-1.9-.71-.66-.18-1.33-.29-2.01-.34-1.13-.08-2.32.02-3.46.3-1.02.25-2 .65-2.85 1.2-.73.57-1.78.52-2.45-.15-.3-.29-.66-.55-1.06-.77-.42-.23-.88-.43-1.36-.56-.54-.15-1.09-.24-1.64-.26-.49-.01-.98.03-1.45.13l-.14.04c-1.81.43-7.09 2.87-7.27 2.87-.54 0-.82-.14-1.15-.4l-.06-.05c-.1-.08-.84-.71-7.58-2.42v-.01c-.51-.12-1.04-.17-1.57-.16-.54.01-1.1.1-1.64.26-.47.13-.93.32-1.35.56zm-9.92-28.04h-.29c0 2.35-.88 4.4-2.63 6.16-1.76 1.76-3.81 2.63-6.16 2.63v.29c2.35 0 4.4.88 6.16 2.64s2.63 3.81 2.63 6.15h.29c0-2.35.88-4.4 2.63-6.16 1.76-1.76 3.81-2.63 6.16-2.63v-.28c-2.35 0-4.4-.88-6.16-2.63-1.76-1.76-2.63-3.82-2.63-6.17zm35.46-10.95h-.13c0 1.08-.4 2.02-1.21 2.82-.81.81-1.75 1.21-2.82 1.21v.13c1.08 0 2.02.4 2.82 1.21.32.32 1.3 2.82 1.34 2.82 0-1.08.4-2.02 1.21-2.82.81-.81 1.75-1.21 2.82-1.21v-.13c-1.08 0-2.02-.4-2.82-1.21-.8-.8-1.21-1.74-1.21-2.82zm8.74 10.95h-.28c0 2.35-.88 4.4-2.63 6.16-1.76 1.76-3.81 2.63-6.16 2.63v.29c2.35 0 4.4.88 6.16 2.64s2.63 3.81 2.63 6.15h.29c0-2.35.88-4.4 2.63-6.16 1.76-1.76 3.81-2.63 6.16-2.63v-.28c-2.35 0-4.4-.88-6.16-2.63-1.76-1.76-2.64-3.82-2.64-6.17zm-32.51-11.59h-.13c0 1.08-.4 2.02-1.21 2.82-.81.81-1.75 1.21-2.82 1.21v.13c1.08 0 2.02.4 2.82 1.21.81.81 1.21 1.75 1.21 2.82h.13c0-1.08.4-2.02 1.21-2.82.81-.81 1.75-1.21 2.82-1.21v-.13c-1.08 0-2.02-.4-2.82-1.21-.81-.8-1.21-1.75-1.21-2.82zm9.43 9.55h-.24c0 1.97-.74 3.69-2.21 5.17-1.47 1.47-3.2 2.21-5.17 2.21v.24c1.97 0 3.69.74 5.17 2.21 1.47 1.48 2.21 3.2 2.21 5.16h.24c0-1.97.74-3.69 2.21-5.17 1.47-1.47 3.2-2.21 5.17-2.21v-.24c-1.97 0-3.69-.74-5.17-2.21-1.47-1.46-2.21-3.18-2.21-5.16zm-1.82 55.08h6.04v3.35c0 1.66-1.36 3.02-3.02 3.02-1.66 0-3.02-1.36-3.02-3.02zm36.27 36.65h10.8c.43 0 .77-.35.77-.77v-10.52c-.13 0-.25-.01-.38-.01-6.18 0-11.19 5.01-11.19 11.19zm-66.09 0h-10.79c-.43 0-.77-.35-.77-.77v-10.52c.13 0 .25-.01.38-.01 6.18 0 11.19 5.01 11.19 11.19-.01.04-.01.07-.01.11z" fill-rule="evenodd"/></svg>