<svg enable-background="new 0 0 122.88 111.1" viewBox="0 0 122.88 111.1" xmlns="http://www.w3.org/2000/svg"><path d="m89.83 63.17 32.59 32.59c.62.62.62 1.63 0 2.24l-12.64 12.64c-.62.62-1.63.62-2.24 0-.14-.14-.25-.31-.34-.49l-5.38-9.87-6.8 1.29c-.73.14-1.43-.25-1.72-.89l-4.12-8.94-5.92 1.18c-.74.15-1.46-.25-1.75-.91l-4.63-8.82-6.95 1.02-5.95-10.01-6.46.83-2.86-4.92-2.39-4.18-5.08.72c-.67.1-1.3-.25-1.61-.81l-5.31-8.89-5.46 1.19c-.48.11-.96-.02-1.32-.3l-6.72-4.64-1.01 1.01c-.51.51-1.18.76-1.84.76s-1.33-.26-1.84-.77l-16.89-16.86c-.09-.05-.17-.13-.25-.21l-4.47-4.47c-.62-.62-.62-1.63 0-2.24.62-.62 1.62-.62 2.24 0l3.34 3.34 27.7-27.72-3.34-3.34c-.62-.62-.62-1.63 0-2.24.62-.62 1.63-.62 2.24 0l4.36 4.36c.03.03.08.06.11.1l17.11 17.11c.51.51.76 1.17.76 1.84 0 .66-.25 1.32-.76 1.83l-.94.94 22.35 22.35zm-68.08-34.28 7.76-7.76.09-.08c1.13-1.08 2.58-1.62 4.04-1.62 1.49 0 2.99.57 4.12 1.7l.02.02c1.12 1.13 1.68 2.62 1.68 4.1 0 1.49-.57 2.98-1.7 4.12v.01l-7.76 7.76-.08.08c-1.12 1.08-2.58 1.62-4.04 1.62-1.49 0-2.99-.57-4.12-1.7-1.14-1.14-1.7-2.63-1.7-4.12-.01-1.5.56-2.99 1.69-4.13zm9.69-5.82-7.76 7.76h-.01c-.6.6-.89 1.39-.89 2.19 0 .79.3 1.59.9 2.19s1.39.9 2.19.9c.77 0 1.54-.28 2.13-.84l7.81-7.82c.6-.6.9-1.39.9-2.19 0-.79-.3-1.58-.89-2.18l-.02-.02c-.6-.59-1.38-.88-2.17-.88-.77 0-1.54.28-2.13.84zm4.57-14.79-27.7 27.7 15.58 15.58 27.7-27.7z"/></svg>