<svg enable-background="new 0 0 69.38 122.88" viewBox="0 0 69.38 122.88" xmlns="http://www.w3.org/2000/svg"><path d="m21.34.41 43.92-.41c.81-.04 1.64.18 2.37.66 1.81 1.21 2.3 3.67 1.08 5.48l-22.94 34.24h19.45v.01c.88 0 1.77.29 2.51.9 1.68 1.39 1.93 3.87.54 5.56l-61.27 74.59c-1.06 1.29-2.87 1.81-4.51 1.16-2.03-.8-3.02-3.1-2.21-5.13l21.04-52.97-15.77-.15c-.45.03-.9-.01-1.36-.14-2.1-.6-3.32-2.79-2.72-4.89l16.1-56.04h.01c.46-1.64 1.96-2.85 3.76-2.87z" fill="#383838"/><g clip-rule="evenodd" fill-rule="evenodd"><path d="m65.43 3.95-44.06.41-16.1 56.04 21.84.21-23.16 58.32 61.27-74.59h-26.87z" fill="#fcdb33"/><path d="m33.9 4.52-12.24.23-15.43 55.34 21.01.48-23.29 58.36 31.26-63.9-18.63-3.18z" fill="#ff0"/></g></svg>