<svg viewBox="0 0 122.88 122.88" xmlns="http://www.w3.org/2000/svg"><path d="m61.44 0a61.46 61.46 0 1 1 -43.44 18 61.23 61.23 0 0 1 43.44-18zm12.49 66.5h-5.18l-.09.11a7.73 7.73 0 0 1 -.6.67 8.9 8.9 0 0 1 -12.55 0 8.17 8.17 0 0 1 -.62-.7l-.13-.16h-5.63l12.51 28.58zm-5.85-2.69h7.86 2l-16.32 37.8-16.62-37.95 11.13.07.39.6q.18.27.39.54a5.26 5.26 0 0 0 .44.49 6.2 6.2 0 0 0 8.78 0c.15-.15.29-.31.42-.46a5 5 0 0 0 .37-.5l.4-.6zm-13.08-4.73-8.89-.08-.64-1.29q7.85-18.25 15.75-36.5l16.62 38-10-.06-.36-.78a5.42 5.42 0 0 0 -.55-1 5.87 5.87 0 0 0 -.7-.85 6.22 6.22 0 0 0 -8.79 0 7.57 7.57 0 0 0 -.69.81 5.73 5.73 0 0 0 -.53.92l-.37.77zm41.58-32.78a49.71 49.71 0 1 0 14.55 35.14 49.57 49.57 0 0 0 -14.55-35.14z"/></svg>