<svg viewBox="0 0 122.88 90.73" xmlns="http://www.w3.org/2000/svg"><path d="m6.2 24.32 5.64 16.51h19.84l-7.86-33.37a23.51 23.51 0 0 0 -2.38 1.14l-13.44 9.69a6.11 6.11 0 0 0 -1.91 2.71 5.68 5.68 0 0 0 .11 3.3zm79.28-16.23-7.71 32.74h19.17l5.78-17.63a3.55 3.55 0 0 0 0-2.23 6.84 6.84 0 0 0 -1.36-2.26l-14.55-9.92c-.44-.24-.89-.48-1.33-.7zm-13.76 32.74 8.17-34.69c-.56-.14-1.14-.14-1.73-.24h-47.3c-.45 0-.89.05-1.33.1l8.2 34.84zm24.22 13.67v8.61l26.9-12.11v6.34l-26.84 11.81v-.1.09h-3.77a14.12 14.12 0 1 1 -24 0h-27.68a14.12 14.12 0 1 1 -24 0h-2v-14.64h-6.84a2.36 2.36 0 0 1 -2.35-2.35v-4.25a2.35 2.35 0 0 1 1.89-2.29l-.25-.88-6.38-18.52v-.08a11.48 11.48 0 0 1 -.16-6.8 12 12 0 0 1 3.72-5.54l.11-.1q7.03-5.07 14.09-10.13l.11-.06a29.27 29.27 0 0 1 5.86-2.45 26 26 0 0 1 6.41-1h47.75a24.88 24.88 0 0 1 6 1.29 34.92 34.92 0 0 1 5.19 2.31l15.64 10.64.21.24a12.82 12.82 0 0 1 2.78 4.66 9.21 9.21 0 0 1 -.06 5.8l-6.74 20.59a2.36 2.36 0 0 1 1.87 2.29v4.25a2.36 2.36 0 0 1 -2.34 2.35zm-19.8 21.33-4.27-2.46a9 9 0 0 0 0 6.48l4.27-2.46a4 4 0 0 1 -.07-.78 4 4 0 0 1 .07-.78zm-2.88-4.83 4.27 2.47a4.24 4.24 0 0 1 1.33-.78v-3.55h-3.59a9.18 9.18 0 0 0 -1.37 1.12 8.54 8.54 0 0 0 -.64.71zm4.26 8.81-4.26 2.46a8.67 8.67 0 0 0 .64.72 8.89 8.89 0 0 0 5 2.52v-4.95a4.28 4.28 0 0 1 -1.34-.78zm4.12.78v4.92a8.92 8.92 0 0 0 5-2.52c.23-.23.44-.47.64-.71l-4.28-2.5a4.17 4.17 0 0 1 -1.34.78zm2.72-3.18 4.27 2.47a9 9 0 0 0 0-6.48l-4.27 2.46a3.79 3.79 0 0 1 0 1.55zm-1.36-3.97 4.25-2.44a9 9 0 0 0 -.65-.72 8.7 8.7 0 0 0 -1.37-1.12h-3.59v3.52a4.17 4.17 0 0 1 1.34.78zm-58.55 2.39-4.26-2.46a8.91 8.91 0 0 0 0 6.48l4.26-2.46a4.92 4.92 0 0 1 -.07-.78 5 5 0 0 1 .07-.78zm-2.88-4.83 4.27 2.47a4.17 4.17 0 0 1 1.34-.78v-3.55h-3.6a9.18 9.18 0 0 0 -1.37 1.12c-.22.23-.44.46-.64.71zm4.27 8.81-4.27 2.46c.2.25.42.49.64.72a8.89 8.89 0 0 0 5 2.52v-4.95a4.17 4.17 0 0 1 -1.34-.78zm4.11.78v4.92a9 9 0 0 0 5-2.52c.22-.23.44-.47.64-.71l-4.27-2.47a4.17 4.17 0 0 1 -1.34.78zm2.73-3.18 4.26 2.47a8.91 8.91 0 0 0 0-6.48l-4.26 2.46a4.33 4.33 0 0 1 0 1.55zm-1.39-3.94 4.27-2.47a8.87 8.87 0 0 0 -.64-.72 9.18 9.18 0 0 0 -1.37-1.12h-3.55v3.52a4.17 4.17 0 0 1 1.34.78z" fill-rule="evenodd"/></svg>