<svg viewBox="0 0 122.88 107.32" xmlns="http://www.w3.org/2000/svg"><path d="m37.45 4c-16.74 4.38-14.14 28.52-17.6 42.3-1.09 4.36-4.39 14.92-9.85 14.7-6-.26-5.27-18.3-5.54-23-.18-3.17-.66-9.15-4.46-10.19 7.15-25.32 19.52-33.64 37.45-23.81z" fill="#a0470d" fill-rule="evenodd"/><path d="m102.37 34.73c1.12 8.6 2.2 16.9 5.91 21.58a1.15 1.15 0 0 1 .22.87 46 46 0 0 1 -7 18.08 36.25 36.25 0 0 1 -12.24 11.14 31.3 31.3 0 0 1 -2.88 3.65s0 0 0 0l-.11-.05c-1.16 6.64-4 11.06-8.35 13.8s-9.82 3.69-16.46 3.55c-15.66-.35-21.59-6.39-23.7-11.26a14 14 0 0 1 -1-3.36 10.12 10.12 0 0 1 -.07-2.4v-.16a14.54 14.54 0 0 1 -1.61-1.63 9.3 9.3 0 0 1 -1.36-2.12 36.37 36.37 0 0 1 -12.14-11.16 45.87 45.87 0 0 1 -7-18.05 1.1 1.1 0 0 1 .12-.77c4.41-7.54 5.45-16.37 6.42-24.64 1.51-12.8 2.88-24.39 15.88-28.8a1.13 1.13 0 0 1 .73 0 16.07 16.07 0 0 0 2.27.52 18.28 18.28 0 0 0 2.3.19 16 16 0 0 0 5.77-1c2.7-.86 5.93-1.89 13.52-1.83a45.84 45.84 0 0 1 13.63 1.89 18.71 18.71 0 0 0 6 1 13.16 13.16 0 0 0 2-.2 13.44 13.44 0 0 0 2-.52 1.12 1.12 0 0 1 .68 0c12.91 3.42 14.8 18 16.6 31.74zm-16.09 55v.27l.08.07c0-.12-.07-.54-.07-.25z" fill="#edc797"/><g fill-rule="evenodd"><path d="m107.43 57c-9.88-12.47-1.78-47.62-21.94-53a13.72 13.72 0 0 1 -4.28.79c-5.68.21-7.72-2.74-19.63-2.79-12.72-.13-12.87 2.89-19.27 2.79a17 17 0 0 1 -4.86-.79c-20.81 7-10.54 33.73-21.81 53 2.57 14.27 9.34 23.26 19 28.63a10.5 10.5 0 0 0 3.36 4.14c-.57 0-2.06 15.89 23.47 16.45 12.87.28 21.51-3.82 23.72-16.45 0 0 2.87-3.18 3.25-4.15 9.65-5.37 16.42-14.36 19-28.63z" fill="#f7d7b1"/><path d="m85.43 4c16.74 4.38 14.14 28.52 17.6 42.3 1.09 4.32 4.39 14.88 9.83 14.65 6-.25 5.29-18.29 5.56-23 .18-3.17.66-9.15 4.46-10.19-7.16-25.27-19.52-33.59-37.45-23.76z" fill="#a0470d"/><path d="m40.76 37.69a6.92 6.92 0 0 1 6.89 6.89v3.89a6.92 6.92 0 0 1 -6.89 6.89 6.91 6.91 0 0 1 -6.89-6.89v-3.89a6.91 6.91 0 0 1 6.89-6.89z" fill="#39474a"/><path d="m40.64 39.57a3 3 0 1 1 -3 3 3 3 0 0 1 3-3z" fill="#fff"/><path d="m82.18 37.69a6.92 6.92 0 0 0 -6.9 6.89v3.52a6.92 6.92 0 0 0 6.9 6.9 6.91 6.91 0 0 0 6.89-6.89v-3.53a6.91 6.91 0 0 0 -6.89-6.89z" fill="#39474a"/><path d="m82.3 39.57a3 3 0 1 0 3 3 3 3 0 0 0 -3-3z" fill="#fff"/><path d="m61.43 93.56c10.67 5.25 19.1 3.29 24.72-7.69 1.75-3.41 1.5-4.83-.17-8.23-.48-1-1-1.9-1.47-2.84a190.34 190.34 0 0 0 -10.43-17.37c-2-2.91-3.84-6-7-7.71a12.5 12.5 0 0 0 -11.18 0c-3.21 1.68-5.08 4.8-7.05 7.71a190.34 190.34 0 0 0 -10.5 17.37c-.5.94-1 1.88-1.47 2.84-1.67 3.4-1.92 4.82-.17 8.23 5.62 11 14 12.94 24.72 7.69z" fill="#bf9e83"/><path d="m70.55 77a21.91 21.91 0 0 1 -9.06 5.9 24.25 24.25 0 0 1 -8.88-5.77c-1.53-1.66-2.17-2.29-1.94-4.56a6.58 6.58 0 0 1 2.1-4.32c3.83-3.51 13.12-3.58 17.09-.21a6.51 6.51 0 0 1 2.24 4c.42 2.38 0 3.21-1.55 5z" fill="#3f3d31"/></g></svg>