<svg enable-background="new 0 0 103.4 122.88" viewBox="0 0 103.4 122.88" xmlns="http://www.w3.org/2000/svg"><path d="m56.76 37.15c-.09.04-.17.09-.26.14-.3.18-.55.41-.74.7-.2.32-.35.72-.44 1.23-.49 2.95-.2 7.71.14 13.21.17 2.86.36 5.92.46 9.27.11 3.63-.08 7.05-.26 10.45-.17 3.18-.34 6.34-.27 9.47.01.33.02.72.04 1.16.01.31.03.69.06 1.16.25 4.4.64 8.24 1.72 11.71 1.04 3.35 2.76 6.43 5.68 9.48.77.81 3.66 3.11 6.83 5.55 4.04 3.11 8.45 6.36 9.6 7.07 1.22.75 1.6 2.35.84 3.57s-2.35 1.6-3.57.84c-1.3-.8-5.91-4.19-10.05-7.38-3.34-2.57-6.44-5.06-7.4-6.06-3.54-3.7-5.63-7.45-6.9-11.54-.18-.57-.34-1.15-.49-1.74-1.25 4.03-3.35 8.04-6.74 12.14-.81.98-3.75 3.76-6.92 6.65-3.85 3.51-8.1 7.26-9.24 8.12-1.15.86-2.78.64-3.64-.51s-.64-2.78.51-3.64c1.03-.78 5.12-4.39 8.88-7.81 3.05-2.78 5.81-5.37 6.41-6.1 8.41-10.19 7.56-20.32 6.58-32.01-.7-8.4-1.47-17.55.78-28.26.44-2.1.59-3.79.08-4.81-.33-.65-1.09-1.13-2.47-1.42-1.43 1.72-2.78 4.34-4.04 7.56-1.57 4.02-2.98 8.94-4.25 14.28-.33 1.4-1.73 2.26-3.13 1.93s-2.26-1.73-1.93-3.13c1.32-5.52 2.79-10.67 4.48-14.97 1.61-4.12 3.44-7.49 5.54-9.73l6.03-26.73c-1.09-1.12-2.03-1.67-2.78-1.54-1.09.2-2.33 1.62-3.75 4.51l-10.72 27.77c-2.73 7.07-4.3 11.75-5.03 16.52-.74 4.76-.68 9.81-.16 17.66l.63 9.57c.06.97-.42 1.85-1.18 2.34l-21.59 15.34c-1.17.83-2.79.56-3.62-.61s-.56-2.79.61-3.62l20.49-14.57-.53-8.13c-.54-8.19-.59-13.53.22-18.78.81-5.24 2.46-10.19 5.32-17.59l10.74-27.79c.03-.1.07-.2.12-.3 2.22-4.57 4.75-6.92 7.54-7.42 2.25-.4 4.41.38 6.49 2.17 1.56-1.34 3.18-2.26 4.9-2.48 2.75-.35 5.29.91 7.52 4.69.11.16.2.34.28.54l9.13 24.1c.66 1.74 1.13 2.95 1.59 4.14 3.92 10.15 7.13 18.45 7.38 30.4.07 3 .12 6.09.03 9.22-.08 2.72-.28 5.45-.67 8.16l20.8 16.73c1.12.9 1.29 2.53.4 3.65-.9 1.12-2.53 1.29-3.65.4l-21.99-17.68c-.76-.61-1.09-1.57-.93-2.47.53-3.01.77-5.99.86-8.93.09-3.03.03-6.05-.03-8.98-.25-11.02-3.31-18.93-7.05-28.62-.58-1.51-1.18-3.06-1.61-4.18l-9.06-23.92c-.95-1.6-1.71-2.18-2.35-2.1-.77.1-1.71.78-2.75 1.8l5.95 26.18c.35.44.7.9 1.04 1.39.47.66.91 1.34 1.33 2.03 1.75 2.88 3.24 6.23 4.57 10.08 1.32 3.8 2.48 8.06 3.58 12.82.32 1.4-.55 2.79-1.95 3.11s-2.79-.55-3.11-1.95c-1.07-4.65-2.18-8.74-3.41-12.29-1.22-3.51-2.56-6.53-4.11-9.08-.37-.61-.75-1.19-1.13-1.73-.09-.14-.19-.27-.28-.41zm-8.62-4.16c1.45.44 2.59 1.08 3.47 1.9.62-.86 1.37-1.54 2.21-2.05.29-.18.6-.33.91-.47l-3.24-14.23z"/></svg>