<svg enable-background="new 0 0 119.31 122.88" viewBox="0 0 119.31 122.88" xmlns="http://www.w3.org/2000/svg"><path d="m23.15 69.72c1.95.25 3.33 2.03 3.09 3.98-.25 1.95-2.03 3.33-3.98 3.09-2.59-.33-4.95-.94-7.08-1.82-2.18-.9-4.13-2.08-5.86-3.53h-.02c-1.63-1.36-3.06-2.91-4.27-4.59-3.24-4.47-4.99-9.92-5.03-15.36-.04-5.49 1.67-10.96 5.36-15.38 1.2-1.43 2.6-2.75 4.21-3.92 1.88-1.36 4.02-2.51 6.44-3.45 1.67-.65 3.45-1.19 5.34-1.63 2.13-8.48 6.69-15.02 12.54-19.56 5.47-4.25 12.07-6.72 18.86-7.37 6.75-.65 13.71.5 19.95 3.49 6.82 3.27 12.76 8.72 16.62 16.38 1.55-.24 3.11-.36 4.65-.35 6.52.04 12.81 2.38 17.77 7.72 1.04 1.12 2.02 2.38 2.94 3.79 3.11 4.78 4.7 11.16 4.63 17.4-.07 6.12-1.72 12.23-5.1 16.72-1.67 2.22-3.7 4.13-6.06 5.74-2.29 1.57-4.91 2.88-7.82 3.94-1.85.67-3.9-.29-4.57-2.14s.29-3.9 2.14-4.57c2.34-.85 4.42-1.89 6.23-3.13 1.74-1.19 3.21-2.56 4.38-4.12 2.43-3.23 3.62-7.8 3.67-12.5.05-4.92-1.14-9.86-3.48-13.46-.67-1.03-1.4-1.97-2.18-2.81-3.5-3.77-7.96-5.42-12.57-5.45-3.36-.02-6.82.78-10.11 2.24-.73.36-1.46.75-2.19 1.18-2.19 1.28-4.35 2.85-6.54 4.64l-4.69-5.38c1.62-1.5 3.38-2.88 5.25-4.09 1.49-.97 3.04-1.83 4.64-2.57.64-.32 1.29-.62 1.94-.9-3.1-5.48-7.56-9.42-12.61-11.85-5.05-2.42-10.7-3.35-16.2-2.82-5.47.53-10.78 2.51-15.17 5.92-5.07 3.94-8.94 9.82-10.42 17.61l-.46 2.44-2.43.43c-2.38.42-4.5.99-6.37 1.71-1.81.7-3.42 1.56-4.82 2.58-1.13.82-2.1 1.73-2.92 2.72-2.56 3.06-3.74 6.9-3.71 10.78.03 3.94 1.31 7.92 3.68 11.2.88 1.21 1.91 2.33 3.07 3.3l-.01.01c1.17.97 2.5 1.78 4.01 2.4 1.56.64 3.31 1.09 5.26 1.34zm37.39 26.69 8.25-29.41h21.1l-7.35 15.4 12.52.24-30.51 40.24 5.87-26.47zm-16.51-34.98c1.44 6.68 5.76 10.02 5.76 13.36s-1.44 6.68-5.76 6.68-5.76-3.34-5.76-6.68c0-3.33 4.32-6.67 5.76-13.36zm3.74 27.1c1.66 7.68 6.63 11.53 6.63 15.37s-1.66 7.68-6.63 7.68-6.63-3.84-6.63-7.68c0-3.85 4.97-7.69 6.63-15.37zm-19.51-8.14c1.66 7.68 6.63 11.53 6.63 15.37s-1.66 7.68-6.63 7.68-6.63-3.84-6.63-7.68 4.97-7.68 6.63-15.37z"/></svg>