<svg clip-rule="evenodd" fill-rule="evenodd" image-rendering="optimizeQuality" shape-rendering="geometricPrecision" text-rendering="geometricPrecision" viewBox="0 0 512 512" xmlns="http://www.w3.org/2000/svg"><path d="m34.78 172.57h160.63l49.61-152.68c-60.9 2.79-115.8 28.61-156.16 68.97-23.52 23.53-42.11 52-54.08 83.71zm232.2-152.68 49.61 152.68h160.63c-11.97-31.71-30.56-60.18-54.08-83.71-40.36-40.36-95.26-66.18-156.16-68.97zm217.02 173.56-129.95 94.42 49.62 152.7c6.81-5.45 13.31-11.27 19.47-17.43 42.77-42.78 69.23-101.87 69.23-167.14 0-21.65-2.92-42.62-8.37-62.55zm-98.09 260.04-129.91-94.38-129.91 94.38c37.27 24.58 81.92 38.88 129.91 38.88s92.64-14.3 129.91-38.88zm-277.58-12.92 49.62-152.7-129.95-94.42c-5.45 19.93-8.37 40.9-8.37 62.55 0 65.27 26.46 124.36 69.23 167.14 6.16 6.16 12.66 11.98 19.47 17.43zm328.69-365.59c46.33 46.33 74.98 110.33 74.98 181.02s-28.65 134.69-74.98 181.02-110.33 74.98-181.02 74.98-134.69-28.65-181.02-74.98c-46.33-46.33-74.98-110.33-74.98-181.02s28.65-134.69 74.98-181.02c46.33-46.33 110.33-74.98 181.02-74.98s134.69 28.65 181.02 74.98zm-221.01 97.59h79.98l-39.99-123.07zm236.35 19.64h-129.39l24.71 76.05zm-149.99 0h-92.74l-28.64 88.16 75.01 54.5 75.01-54.5zm-113.34 0h-129.39l104.68 76.05zm148.35 107.77-64.7 47.01 104.69 76.06zm-202.75 123.07 104.69-76.06-64.7-47.01z" fill-rule="nonzero"/></svg>