<svg xmlns="http://www.w3.org/2000/svg" shape-rendering="geometricPrecision" text-rendering="geometricPrecision" image-rendering="optimizeQuality" fill-rule="evenodd" clip-rule="evenodd" viewBox="0 0 512 512.002"><circle fill="#FBD433" transform="matrix(2.64389 -.70843 .70843 2.6439 256 256.001)" r="93.504"/><path fill="#40270E" d="M157.643 319.474c-8.7-3.812-17.218 4.883-8.549 13.841 70.096 62.332 143.717 62.332 213.812 0 8.67-8.958.152-17.653-8.548-13.841-63.919 38.189-132.796 38.189-196.715 0zm186.406-171.995c18.838 0 34.106 19.332 34.106 43.178 0 23.846-15.268 43.177-34.106 43.177-18.834 0-34.103-19.331-34.103-43.177s15.269-43.178 34.103-43.178zm-176.098 0c18.835 0 34.104 19.332 34.104 43.178 0 23.846-15.269 43.177-34.104 43.177-18.837 0-34.105-19.331-34.105-43.177s15.268-43.178 34.105-43.178z"/><path fill="#89611B" d="M336.008 163.962c6.586 0 11.923 5.638 11.923 12.589 0 6.954-5.337 12.591-11.923 12.591-6.584 0-11.923-5.637-11.923-12.591 0-6.951 5.339-12.589 11.923-12.589zm-176.098 0c6.584 0 11.921 5.638 11.921 12.589 0 6.954-5.337 12.591-11.921 12.591-6.586 0-11.923-5.637-11.923-12.591 0-6.951 5.337-12.589 11.923-12.589z"/></svg>