<svg enable-background="new 0 0 122.88 94.48" viewBox="0 0 122.88 94.48" xmlns="http://www.w3.org/2000/svg"><g clip-rule="evenodd" fill-rule="evenodd"><path d="m.93 89.62c1.5.34 3.07.49 4.63.45 2.17-.06 4.31-.48 6.17-1.25 2.18-.9 4.19-2.35 5.04-4.6.78 2.16 2.92 3.74 5.01 4.6 1.86.77 4.01 1.2 6.17 1.25 2.17.06 4.37-.25 6.34-.95 3.16-1.11 3.83-2.56 5.91-5.01 1.2 2.57 3.3 4.09 5.91 5.01 1.97.69 4.17 1 6.34.95 2.17-.06 4.31-.48 6.17-1.25 2.09-.86 4.23-2.45 5.01-4.6.85 2.25 2.88 3.7 5.04 4.6 1.86.77 4.01 1.2 6.17 1.25 2.17.06 4.37-.25 6.34-.95 3.15-1.11 3.83-2.57 5.91-5.01 2.08 2.43 2.77 3.9 5.92 5.01 1.97.69 4.17 1 6.34.95 2.17-.06 4.31-.48 6.17-1.25 2.17-.9 4.19-2.34 5.04-4.6.78 2.15 2.92 3.73 5.01 4.6 1.86.77 4.01 1.2 6.17 1.25.38.01.76.01 1.13 0v4.4c-3.12.08-6.28-.45-9.02-1.58-1.42-.59-2.53-1.16-3.53-1.88-1.35.92-2.69 1.71-3.1 1.88-4.78 1.98-10.85 2.11-15.72.39-1.61-.57-3.1-1.33-4.41-2.31-1.31.98-2.81 1.74-4.41 2.31-4.88 1.72-10.95 1.58-15.73-.39-.41-.17-1.74-.97-3.1-1.88-1 .72-2.11 1.3-3.53 1.88-4.78 1.98-10.85 2.11-15.73.39-1.42-.5-2.81-1.13-4.04-1.94-1.64.8-3.53 1.5-4.77 1.94-4.87 1.72-10.95 1.58-15.72-.39-1.42-.59-2.53-1.16-3.53-1.88-1.35.92-2.69 1.71-3.1 1.88-3.77 1.56-8.35 1.97-12.51 1.23v-4.5z" fill="#3ab7fc"/><path d="m27.73 69.31c-13.78 1.93-26.26 6.37-26.26 15.18 6.65 1.81 11.38-.71 15.35-5.96 8.88 7.71 14.54 10.06 23.47-.45 5.83 10.17 17.37 7.79 23.48.32 6.75 8.76 18.41 9.44 23.32-1.44 7.1 10.93 18.15 9.32 23.37.67 3.32 4.15 5.05 6.84 10.66 7.27-3.69-11.94-16.91-17.53-33.9-18.17l-5.27-.06c-6.6.14-13.65.94-20.84 2.34-4.46-.87-14.23-1.33-24.6-.61z" fill="#ebc18f"/><path d="m83.73 42.51 2.5-.68c-2.73 8.24-1.58 16.2 1 24.89l-5.27-.06c-2.05-13.25-.28-18.98 1.77-24.15z" fill="#9a5d26"/><path d="m29.61 28.09c4.51 13.63 2.48 26.79-1.88 41.21l8.78-.91c3.33-21.5.47-30.78-2.86-39.17z" fill="#9a5d26"/><path d="m16.12 57.81c1.18-13.83 3.59-25.21 13.49-29.72l4.04 1.13c6.11 3.84 11.55 12.12 16.75 25.28 7.31-13.62 2.66-23.64-14.69-30.14 9.92-3.08 19.22.86 27.97 8.58-4.67-17.63-18-21.88-29.91-11.82 1.62-12.62-3.58-15.65-10.55-18.43 3.28 5 5.76 10.2 5.39 16.19-10.75-9.87-19.73-6.22-27.99 2.48 7.93-1.85 16.15-2.64 23.08 2.01-12.44-1.57-19.4 5.44-23.7 14.64 5.2-4.77 10.11-7.86 15.31-8.42-5.46 9.9-3.05 18.64.83 28.24z" fill="#3e9c2a"/><path d="m28.61 18.88-.07 3.82c-7.42-8.65-19.87-6.36-27.93-1.34 8.38-9.34 18.25-11.58 28-2.48z" fill="#51b53c"/><path d="m0 38.01c5.02-11.78 17.2-18.96 29.26-12.59-13.4-4.12-21.42 3.54-29.26 12.59z" fill="#51b53c"/><g fill="#f1ca09"><path d="m71.07 22.63c0 .41-.34.75-.75.75s-.75-.34-.75-.75v-1.92c0-.41.34-.75.75-.75s.75.34.75.75z"/><path d="m76.46 20.87c.21.36.09.82-.27 1.02-.36.21-.82.09-1.02-.27l-.96-1.67c-.21-.36-.09-.82.27-1.02.36-.21.82-.09 1.02.27z"/><path d="m80.25 16.65c.36.21.48.66.28 1.02-.21.36-.66.48-1.02.28l-1.67-.96c-.36-.21-.48-.66-.28-1.02.21-.36.66-.48 1.02-.28z"/><path d="m75.43 1.92c.21-.36.66-.48 1.02-.28.36.21.48.66.28 1.02l-.96 1.67c-.21.36-.66.48-1.02.28-.36-.21-.48-.66-.28-1.02z"/><path d="m69.88.75c0-.41.33-.75.75-.75.41 0 .75.34.75.75v1.92c0 .41-.34.75-.75.75s-.75-.34-.75-.75z"/><path d="m64.49 2.52c-.21-.36-.09-.82.26-1.02.36-.21.82-.09 1.02.27l.96 1.67c.21.36.09.82-.27 1.02-.36.21-.82.09-1.02-.27z"/><path d="m81.42 11.1c.41 0 .75.34.75.75s-.34.75-.75.75h-1.92c-.41 0-.75-.34-.75-.75s.34-.75.75-.75z"/><path d="m79.65 5.71c.36-.21.82-.09 1.03.27.2.36.08.82-.28 1.02l-1.67.96c-.36.21-.82.09-1.02-.27-.21-.36-.09-.82.27-1.02z"/><path d="m70.46 4.99c1.85 0 3.53.75 4.74 1.96s1.96 2.89 1.96 4.74-.75 3.53-1.96 4.74-2.89 1.96-4.74 1.96-3.53-.75-4.74-1.96-1.96-2.89-1.96-4.74.75-3.53 1.96-4.74c1.23-1.21 2.9-1.96 4.74-1.96z"/><path d="m65.52 21.46c-.21.36-.66.48-1.02.28-.36-.21-.48-.66-.28-1.02l.96-1.67c.21-.36.66-.48 1.02-.28.36.21.48.66.28 1.02z"/><path d="m60.69 6.74c-.36-.21-.48-.66-.28-1.02.21-.36.66-.48 1.02-.28l1.67.96c.36.21.48.66.28 1.02-.21.36-.66.48-1.02.28z"/><path d="m59.52 12.29c-.41 0-.75-.34-.75-.75s.34-.75.75-.75h1.92c.41 0 .75.34.75.75s-.34.75-.75.75z"/><path d="m61.29 17.68c-.36.21-.82.09-1.02-.27-.21-.36-.09-.82.27-1.02l1.67-.96c.36-.21.82-.09 1.02.27.21.36.09.82-.27 1.02z"/></g><path d="m33.77 21.12c12.41-3.15 22.79-.38 29.91 11.82-2.85-13.62-15.48-23.84-29.91-11.82z" fill="#51b53c"/><path d="m35.71 24.36c16.33 6.48 22.28 14.42 14.69 30.14 2.94-14.84-4.74-22.53-14.69-30.14z" fill="#51b53c"/><path d="m29.61 28.09c-12.64.34-16.84 13.03-13.47 29.74-7.72-16.49-4.62-36.93 13.47-29.74z" fill="#51b53c"/><path d="m76.45 60.85c.74-8.7 2.26-15.85 8.48-18.69l2.54.71c3.84 2.42 7.26 7.62 10.53 15.9 4.6-8.56 1.67-14.87-9.24-18.95 6.24-1.94 12.09.54 17.59 5.4-2.94-11.09-11.32-13.76-18.81-7.43 1.02-7.94-2.25-9.84-6.63-11.59 2.06 3.14 3.62 6.41 3.39 10.18-6.76-6.21-12.41-3.91-17.6 1.56 4.99-1.16 10.16-1.66 14.51 1.26-7.82-.99-12.2 3.42-14.9 9.21 3.27-3 6.36-4.94 9.63-5.3-3.43 6.23-1.92 11.72.52 17.76z" fill="#3e9c2a"/><path d="m84.3 36.36-.04 2.4c-4.67-5.44-12.5-4-17.56-.84 5.27-5.87 11.47-7.28 17.6-1.56z" fill="#51b53c"/><path d="m66.31 48.39c3.16-7.41 10.82-11.92 18.4-7.92-8.42-2.58-13.47 2.23-18.4 7.92z" fill="#51b53c"/><path d="m87.55 37.77c7.81-1.98 14.33-.24 18.81 7.43-1.8-8.56-9.74-14.98-18.81-7.43z" fill="#51b53c"/><path d="m88.77 39.81c10.27 4.07 14.01 9.07 9.24 18.95 1.84-9.33-2.98-14.17-9.24-18.95z" fill="#51b53c"/><path d="m84.93 42.16c-7.95.21-10.59 8.19-8.47 18.7-4.86-10.38-2.9-23.23 8.47-18.7z" fill="#51b53c"/><path d="m29.61 28.09c4.29 14.45 2.36 28.18-1.88 41.21l5.35-.55c2.22-21.5.33-31.82-1.88-40.21z" fill="#c97630"/></g></svg>