<svg enable-background="new 0 0 92.81 122.88" viewBox="0 0 92.81 122.88" xmlns="http://www.w3.org/2000/svg"><path clip-rule="evenodd" d="m66.69 101.35h-40.01l-4.7 6.94h49.24zm-49.13 13.46-5.47 8.07h-12.09l19.64-29.46h-3.49c-4.76 0-8.66-3.9-8.66-8.66v-76.1c.01-4.76 3.9-8.66 8.66-8.66h61.22c4.76 0 8.66 3.9 8.66 8.66v76.1c0 4.76-3.9 8.66-8.66 8.66h-3.4l18.83 29.04h-12.35l-4.99-7.65zm45.41-47.15h10.48c1.14 0 2.07.93 2.07 2.07v10.47c0 1.14-.93 2.07-2.07 2.07h-10.48c-1.14 0-2.07-.93-2.07-2.07v-10.48c0-1.13.93-2.06 2.07-2.06zm-43.99 0h10.48c1.14 0 2.07.93 2.07 2.07v10.47c0 1.14-.93 2.07-2.07 2.07h-10.48c-1.14 0-2.07-.93-2.07-2.07v-10.48c0-1.13.93-2.06 2.07-2.06zm6.12-50.96h42.81c4.6 0 8.36 3.76 8.36 8.37v13.17c0 4.6-3.76 8.36-8.36 8.36h-42.81c-4.6 0-8.36-3.76-8.36-8.36v-13.17c-0-4.6 3.76-8.37 8.36-8.37zm13.23-12.9h16.2c.81 0 1.47.66 1.47 1.47v6.38c0 .81-.66 1.47-1.47 1.47h-16.2c-.81 0-1.47-.66-1.47-1.47v-6.38c-.01-.81.65-1.47 1.47-1.47z" fill-rule="evenodd"/></svg>