<svg enable-background="new 0 0 81.97 122.88" viewBox="0 0 81.97 122.88" xmlns="http://www.w3.org/2000/svg"><path clip-rule="evenodd" d="m40.95 0c7.88 33.66 17.45 35.4 33.8 60.69 4.25 6.57 7.22 13.56 7.22 21.58 0 11.14-4.02 20.69-12.07 28.65-8.08 7.96-17.71 11.96-28.93 11.96-11.19 0-20.8-4-28.88-11.96-8.06-7.96-12.09-17.51-12.09-28.65 0-8.06 3.02-15.1 7.31-21.71 16.38-25.23 25.91-27.01 33.64-60.56zm-23.38 71.78c2.29-.21 4.31 1.48 4.51 3.76.52 5.52 1.73 10.61 4.04 15 2.23 4.24 5.55 7.89 10.35 10.7 1.98 1.16 2.64 3.71 1.48 5.68-1.16 1.98-3.71 2.64-5.68 1.48-6.25-3.66-10.58-8.42-13.51-13.99-2.95-5.61-4.36-11.85-4.95-18.12-.21-2.27 1.49-4.3 3.76-4.51z" fill="#42a5f5" fill-rule="evenodd"/></svg>