<svg enable-background="new 0 0 72.54 122.88" viewBox="0 0 72.54 122.88" xmlns="http://www.w3.org/2000/svg"><path clip-rule="evenodd" d="m27.51 37.35c-.86.01-1.49-.37-1.94-1.06-.85-1.3-.77-2.72-.77-4.2v-21.95c0-.44-.36-.81-.81-.81h-11.38c-.44 0-.81.37-.81.81v20.15 2.09c0 1.34.08 2.32-.64 3.54-.5.84-1.25 1.43-2.22 1.82-2.07.87-3.75 2.15-5.07 3.86-1.36 1.75-2.33 3.95-2.93 6.56v39.84 27.5c-.13 3.06.89 5.03 3.01 5.95 1.24.53 2.02.49 3.31.49h19.37c1.43 0 2.77.06 4.19-.19 3.57-.63 4.87-2.52 4.93-5.77v-66.8c-.36-6.19-3.94-9.35-8.24-11.83z" fill="#96223b" fill-rule="evenodd"/><path d="m27.25 38.27c-.49-.03-.92-.16-1.31-.38-.45-.25-.83-.62-1.14-1.1-.94-1.43-.93-2.87-.92-4.37v-.34-21.81h-11.14v22.1.35c.01 1.3.01 2.33-.77 3.66v.01c-.31.52-.69.96-1.15 1.33-.44.36-.94.65-1.51.87-.96.41-1.83.91-2.61 1.5-.78.59-1.47 1.28-2.08 2.07-.64.83-1.19 1.75-1.64 2.76-.45 1-.81 2.11-1.09 3.32v67.26.04c-.06 1.36.13 2.47.56 3.32.4.79 1.03 1.37 1.88 1.74.98.42 1.65.41 2.67.41h.28 19.37c.3 0 .2 0 .7.01 1.12.01 2.2.02 3.32-.18 1.55-.28 2.58-.79 3.22-1.57.63-.78.91-1.87.95-3.28v-66.8c-.18-2.85-1.09-5.01-2.45-6.73-1.35-1.71-3.16-3.02-5.14-4.19zm-.4-2.01c.18.1.4.15.66.15l.48.12c2.24 1.29 4.29 2.77 5.86 4.76 1.59 2.02 2.66 4.52 2.86 7.83v.05 66.8.02c-.04 1.83-.44 3.3-1.36 4.44-.93 1.14-2.33 1.88-4.34 2.24-1.25.22-2.43.21-3.65.2h-20.07-.28c-1.25 0-2.08 0-3.4-.56-1.27-.55-2.22-1.42-2.82-2.61-.57-1.13-.83-2.52-.76-4.2v-67.36l.03-.21c.31-1.35.72-2.61 1.24-3.77.52-1.17 1.14-2.23 1.86-3.16.71-.91 1.52-1.71 2.43-2.41s1.92-1.28 3.02-1.74h.02c.39-.16.74-.35 1.03-.59.29-.23.53-.51.72-.84.52-.89.52-1.69.51-2.7v-.36-22.22c0-.48.2-.92.51-1.23.32-.32.75-.51 1.23-.51h11.37c.48 0 .92.2 1.23.51.32.32.51.75.51 1.23v21.95.35c-.01 1.21-.01 2.36.62 3.33.14.22.3.39.49.49z"/><path clip-rule="evenodd" d="m24.85 27.26v-17.12c0-.44-.37-.81-.81-.81h-11.38c-.44 0-.81.37-.81.81v17.12z" fill="#eecd65" fill-rule="evenodd"/><path d="m23.91 26.32v-16.05h-11.12v16.05zm1.88-16.18v18.06h-14.88v-18.06c0-.48.2-.91.51-1.23.32-.32.75-.51 1.23-.51h11.38c.48 0 .91.2 1.23.51.33.32.53.75.53 1.23z"/><path clip-rule="evenodd" d="m13.92 56.21h19.82v42.42h-19.82c-1.32 0-2.39-1.08-2.39-2.39v-37.64c0-1.31 1.07-2.39 2.39-2.39z" fill="#ffe2cf" fill-rule="evenodd"/><path d="m14.54 0h7.88c1.02 0 1.95.42 2.62 1.09.67.67 1.09 1.6 1.09 2.63v5.86c0 1.04-.84 1.88-1.88 1.88h-11.55c-1.04 0-1.88-.84-1.88-1.88v-5.86c0-1.02.42-1.95 1.09-2.62.68-.68 1.61-1.1 2.63-1.1zm7.84 3.76h-7.8v3.94h7.8z"/><path clip-rule="evenodd" d="m14.54 1.88h7.88c1.01 0 1.84.83 1.84 1.84v5.86h-11.56v-5.86c0-1.01.83-1.84 1.84-1.84z" fill="#f7d569" fill-rule="evenodd"/><path d="m12.33 5.49h12.3c.83 0 1.59.34 2.14.89s.89 1.31.89 2.14v3.42c0 .83-.34 1.58-.89 2.13l-.01.01c-.55.55-1.3.88-2.13.88h-12.3c-.83 0-1.59-.34-2.14-.89s-.89-1.31-.89-2.14v-3.41c0-.83.34-1.58.89-2.13l.01-.01c.54-.55 1.3-.89 2.13-.89zm11.57 3.76h-10.84v1.96h10.84z"/><g clip-rule="evenodd" fill-rule="evenodd"><path d="m12.33 7.37h12.3c.63 0 1.15.52 1.15 1.15v3.42c0 .63-.52 1.15-1.15 1.15h-12.3c-.63 0-1.15-.52-1.15-1.15v-3.42c-0-.63.52-1.15 1.15-1.15z" fill="#e6a10a"/><path d="m50.19 80.07h-.01c.37-3.61 1.04-7.6 1.81-11.83.68-3.74.69-3.74 3.39-3.72.5.01 1.06.01 1.63.01l8.95-.07c.46.03.82.16 1.09.37.28.21.49.53.65.95.22 1.27.48 2.66.76 4.12.56 2.92 1.17 6.11 1.54 9.29l.13.12c1.79 8.23.25 16.23-7.3 18.45-3.31.97-7.21.41-9.62-2.16-1.18-1.26-2.08-2.95-2.52-5.09-.43-2.09-.6-4.53-.58-7.31-0-.99.03-2.04.08-3.13zm22.14.04c.57 6.06.14 12.07-3.24 16.39-1.22 1.56-2.76 2.68-4.62 3.34-.85.3-1.76.5-2.74.61l.01 15.26 6.55-.07c.88-.01 1.6.69 1.61 1.57s-.69 1.6-1.57 1.61l-16.36.18c-.88.01-1.6-.69-1.61-1.57s.69-1.6 1.57-1.61l6.62-.08-.01-15.29c-.12-.01-.24-.02-.36-.04-.02 0-.04 0-.06-.01-6.57-.74-9.45-4.71-10.26-10.79-.76-5.7.38-13.28 1.92-21.77 1.02-5.59 1.04-5.59 5.59-5.55.44.01.95.01 1.59 0l8.97-.07h.07c.95.05 1.74.34 2.38.84.19.15.37.31.53.49 1.46 5.52 2.51 11.04 3.42 16.56z"/><path d="m70.03 79.3c-5.86-3.51-13.16.14-19.84.76-.05 1.09-.08 2.14-.09 3.14-.02 2.78.15 5.22.58 7.31.44 2.14 1.34 3.84 2.53 5.1 2.42 2.57 6.32 3.13 9.63 2.16 7.56-2.22 9.1-10.22 7.31-18.46l-.13-.13zm-2.62 6.02c-.02-.35.25-.65.6-.67s.65.25.67.6c.14 2.47-.29 4.56-1.24 6.3-.95 1.75-2.4 3.14-4.28 4.22-.3.17-.7.07-.87-.23s-.07-.7.23-.87c1.68-.96 2.97-2.19 3.8-3.72.84-1.54 1.22-3.4 1.09-5.63z" fill="#96223b"/></g></svg>