<svg enable-background="new 0 0 99.32 122.88" viewBox="0 0 99.32 122.88" xmlns="http://www.w3.org/2000/svg"><path clip-rule="evenodd" d="m0 81.48h.07v-.02c1.05-7.73 9.44-13.85 24.53-18.5 2.26-25.05 6.57-43.77 13.16-54.03l-37.76-8.93zm98.51 0h.13c.29-26.76 1.31-53.52.14-80.28-8.44.27-22.51 4.95-29.89 7.78l-.35.05c-1.32 17.84-1.85 35.06-.54 52.6 15.85 3.51 28.52 8.75 30.51 19.85z" fill="#393939" fill-rule="evenodd"/><path clip-rule="evenodd" d="m24.6 62.97c2.38-26.32 7.01-45.64 14.18-55.52l29.86.06c-1.39 18.39-1.98 36.08-.64 54.12 16.09 3.55 28.9 8.9 30.59 20.34-1.4 15.5-29.09 40.95-52.09 40.9-12.43-.03-15.86-10.72-23.77-19.77-3.73-4.26-13.72-8.16-16.43-10.39-4.52-3.73-6.43-7.37-6.24-11.25 1.06-7.73 9.45-13.85 24.54-18.49zm23.54-47.74c-2.16 5.65-3.61 10.68-4.87 17.65-.86 4.73-1.48 9.82-1.84 15.31-.38 5.82-.32 4.49-3.6 10.16.13-8.91.91-18.87 2.21-26.04 1.3-7.21 3.13-13.63 5.34-19.43zm19.11 53.74c3.24 1.42 5.19 3.24 5.19 5.22 0 4.57-10.35 8.27-23.12 8.27s-23.12-3.7-23.12-8.27c0-1.91 1.81-3.67 4.84-5.07-.85.75-1.32 1.57-1.32 2.43 0 3.71 8.74 6.71 19.51 6.71s19.51-3.01 19.51-6.71c.01-.91-.52-1.79-1.49-2.58zm12.01 3c5.42 2.52 8.67 5.74 8.67 9.25 0 8.09-17.29 14.65-38.61 14.65-21.33 0-38.61-6.56-38.61-14.65 0-3.38 3.02-6.49 8.09-8.97-1.42 1.33-2.2 2.79-2.2 4.3 0 6.56 14.59 11.89 32.59 11.89s32.59-5.32 32.59-11.89c-0-1.62-.9-3.17-2.52-4.58zm-18.46-57.3c-.99 2.59-1.76 5.21-2.45 7.97-.68 2.76-1.68 7.22-2.31 10.44l-2.82-2.13c.63-3.21 1.23-6.2 1.95-9.1s1.08-3.97 2.11-6.67zm-5.49 23.47c-.51 3.88-1.02 7.76-1.52 11.65-.31 4.06-1.63 6.82-3.39 9-.21-3.12-.15-6.29.13-9.29.3-3.31 1.39-11.31 2.07-13.91z" fill="#42a5f5" fill-rule="evenodd"/><path d="m48.14 15.23c-2.16 5.65-3.61 10.68-4.87 17.65-.86 4.73-1.48 9.82-1.84 15.31-.38 5.82-.32 4.49-3.6 10.16.13-8.91.91-18.87 2.21-26.04 1.3-7.21 3.13-13.63 5.34-19.43zm19.11 53.74c3.24 1.42 5.19 3.24 5.19 5.22 0 4.57-10.35 8.27-23.12 8.27s-23.12-3.7-23.12-8.27c0-1.91 1.81-3.67 4.84-5.07-.85.75-1.32 1.57-1.32 2.43 0 3.71 8.74 6.71 19.51 6.71s19.51-3.01 19.51-6.71c.01-.91-.52-1.79-1.49-2.58zm12.01 3c5.42 2.52 8.67 5.74 8.67 9.25 0 8.09-17.29 14.65-38.61 14.65-21.33 0-38.61-6.56-38.61-14.65 0-3.38 3.02-6.49 8.09-8.97-1.42 1.33-2.2 2.79-2.2 4.3 0 6.56 14.59 11.89 32.59 11.89s32.59-5.32 32.59-11.89c-0-1.62-.9-3.17-2.52-4.58zm-18.46-57.3c-.99 2.59-1.76 5.21-2.45 7.97-.68 2.76-1.68 7.22-2.31 10.44l-2.82-2.13c.63-3.21 1.23-6.2 1.95-9.1s1.08-3.97 2.11-6.67zm-5.49 23.47c-.51 3.88-1.02 7.76-1.52 11.65-.31 4.06-1.63 6.82-3.39 9-.21-3.12-.15-6.29.13-9.29.3-3.31 1.39-11.31 2.07-13.91z" fill="#fff"/></svg>