<svg viewBox="0 0 122.88 118.01" xmlns="http://www.w3.org/2000/svg"><path d="m15.77 92.35a15 15 0 0 1 -2.38-9.81 23.31 23.31 0 0 1 4.17-10.84c3.85-5.64 7.35-9 11.32-10.24s8.37-.24 13.83 2.91a13.88 13.88 0 0 1 6 5.63c.4.6.87 1.3 1.43 2.11.43.6.85 1.16 1.25 1.68s.78 1 1.14 1.45l.89 1.1c3.82 4.66 5.13 6.3 1.68 14.66a22.32 22.32 0 0 1 -19.05 13.54 20.25 20.25 0 0 1 -9.11-1.54 22.29 22.29 0 0 1 -11.17-10.65zm100.72-52.57a3.74 3.74 0 0 1 5.29 5.29l-63 63c-11.19 11.19-24.77 12-36.11 7a39.41 39.41 0 0 1 -19.77-19.77c-5-11.28-4.13-24.78 7.1-36l58.31-58a3.73 3.73 0 1 1 5.26 5.29l-58.3 58c-8.67 8.62-9.34 19-5.52 27.64a32 32 0 0 0 15.9 16c8.7 3.86 19.15 3.23 27.81-5.42l63-63zm-50.4 17.51a3.74 3.74 0 1 1 -5.24-5.29l50.22-49.68a3.73 3.73 0 1 1 5.24 5.32zm4.2 18.45a3.73 3.73 0 1 1 -5.24-5.32l40.36-39.78a3.73 3.73 0 1 1 5.24 5.36zm-22.29-22.99a3.73 3.73 0 0 1 -5.24-5.32l46.9-46.36a3.74 3.74 0 1 1 5.24 5.33zm-14.94 20.83a3.64 3.64 0 1 1 2.57 4.42 3.63 3.63 0 0 1 -2.57-4.45zm-11.91 6.36a2.87 2.87 0 1 1 2 3.52 2.87 2.87 0 0 1 -2-3.52zm12 8.88a4.62 4.62 0 1 1 3.26 5.65 4.61 4.61 0 0 1 -3.26-5.65z" fill-rule="evenodd"/></svg>