<svg enable-background="new 0 0 122.88 106.68" viewBox="0 0 122.88 106.68" xmlns="http://www.w3.org/2000/svg"><path clip-rule="evenodd" d="m52.4 20.33c7.64-4.44 11.36-11.8 15.79-20.33 2.26 2.44 3.48 8.44 2.98 16.83 21.29-1.39 34.78 10.58 51.71-7.42-7.28 28.11-33.56 12.14-44.54 14.59 16.95 1.92 21.76 11.28 41.28 7.96-6.72 8.09-21.59 6.45-34.11.75 2.21 6.08 24.83 10.01 20.22 28.16-4.36-7.49-8.45-12.09-12.29-14.08 7.91 13.68 7.29 26.15-.09 39.78-1.63 3-3.62 5.73-6.05 8.09 3.38-7.47 5.02-14.43 3.58-20.48-1.37 5.2-26.98 55.76-13.31 14.34-27.3 26.82-53.87-.48-77.57 18.16 7.91-37.07 50.98-22.56 66.84-39.74 3.26-3.54 4.44-8.33 3.04-11.78-4.08-10.04-18.37-7.09-23.55-.96-3.19 4.91-9.37 10.37-14.44 4.29-.83-.99-1.3-2.26-1.43-3.78 2.56 1.09 5.12 1.51 7.68.26l-2.05-2.3c2.73-.77 5.78.09 8.19-2.42l8.96-5.89c1.71-1.26-2.13-2.07-11.26-2.7-.77 1.99-.42 3.81 1.79 5.38-2.62.35-4.89-.35-6.66-2.56-1.04.81-.89 1.38 1.9 5.81-2.51.11-5.02-.89-7.53-2.48-.58 2.02.27 4.04.41 6.06-1.83-.53-3.51-1.4-5.02-2.62-1.52-1.23-2.89-2.8-4.09-4.72-.83-1.88-.82-3.29-.18-4.34.39-.65 1.02-1.16 1.85-1.57 3.1-1.53 4.66-1.35 8.29-3.77 3.43-2.28 6.93-5.01 9.91-8.69 4.82-5.96 4.69-4.89 9.75-7.83zm-.71 9.24c-1.19.49-1.28 1.07-2.92 1.52-.49.13-1.35.87-1.62 1.3-.84 1.37 2.22 2.1 3.14.46.23-.4 1.26-2.3 1.34-2.53.08-.24.29-.43.13-.7-.02 0-.03-.06-.07-.05z" fill-rule="evenodd"/></svg>