<svg clip-rule="evenodd" fill-rule="evenodd" image-rendering="optimizeQuality" shape-rendering="geometricPrecision" text-rendering="geometricPrecision" viewBox="0 0 288 511.915" xmlns="http://www.w3.org/2000/svg"><path d="m1.965 249.029c-6.004 74.41 2.057 96.471 19.981 145.511 3.641 9.964 7.716 21.109 12.406 34.838 7.928 23.207 7.92 45.122 7.911 69.717h-.041v2.617c0 5.635 4.568 10.203 10.203 10.203h178.443c5.634 0 10.202-4.568 10.202-10.203 0-3.764-.194-9.706-.396-15.96-.482-14.798-1.029-31.637 1.469-42.347 1.642-7.033 7.67-17.699 14.637-30.027 20.992-37.138 49.449-87.489 15.448-129.388a109.027 109.027 0 0 0 -3.859-4.532v-238.429c0-11.234-4.212-21.527-11.306-29.002-7.051-7.427-16.854-12.027-28.153-12.027s-21.103 4.598-28.155 12.026c-7.093 7.475-11.305 17.765-11.305 29.003v89.011a33.941 33.941 0 0 0 -2.364-3.401c-5.809-7.337-14.194-11.832-25.408-11.832-11.107 0-20.735 4.519-27.652 11.818a39.604 39.604 0 0 0 -5.969 8.195c-1.254-3.764-2.974-7.219-5.224-10.244-5.546-7.448-13.697-11.995-25.115-11.995-11.31 0-20.655 4.562-27.296 11.962-6.55 7.295-10.288 17.269-10.463 28.145-4.785-6.046-11.794-9.646-21.937-9.646-10.862 0-19.788 4.388-26.129 11.5-6.381 7.153-9.928 16.998-9.928 27.695v66.792z" fill-rule="nonzero"/><path d="m199.644 230.691v-189.661c0-16.96 12.306-30.836 29.265-30.836 16.96 0 29.266 13.882 29.266 30.836v229.57c-1.585-1.109-3.357-2.301-5.446-3.725z" fill="#fdd0bf"/><path d="m199.644 230.691v-180.244c0-16.959 4.458-30.835 21.418-30.835 16.959 0 26.126 13.889 26.126 30.835v212.652z" fill="#fedecf"/><path d="m133.13 212.451v-57.324c0-16.563 11.984-30.117 28.548-30.117 16.565 0 23.84 13.56 23.84 30.117v65.937c-4.873-3.306-7.511-4.964-11.112-6.088-3.476-1.088-6.337-1.179-11.649-1.348l-4.025-.144z" fill="#fdd0bf"/><path d="m133.13 212.451v-49.476c0-16.563 8.845-30.117 25.41-30.117 16.564 0 19.13 13.567 19.13 30.117v53.28a24.332 24.332 0 0 0 -3.264-1.279c-3.476-1.088-6.337-1.179-11.649-1.348l-4.025-.144z" fill="#fedecf"/><path d="m70.154 212.384v-58.897c0-16.887 10.677-30.704 27.564-30.704s22.856 13.827 22.856 30.704v58.457l-31.995-1.291c-6.798-.304-12.989.328-18.425 1.731z" fill="#fdd0bf"/><path d="m70.154 212.384v-52.619c0-16.887 5.968-30.703 22.856-30.703 16.886 0 19.716 13.833 19.716 30.703v51.862l-24.147-.974c-6.798-.304-12.989.328-18.425 1.731z" fill="#fedecf"/><path d="m57.598 217.801v-35.564c0-15.946-3.63-28.993-19.577-28.993-15.946 0-25.854 13.053-25.854 28.993v56.864l.046.046c10.077 10.5 22.938 21.552 37.749 20.41-2.23-3.581-3.774-7.159-4.678-10.662-1.778-6.902-1.113-13.44 1.666-19.217 2.265-4.704 5.876-8.738 10.648-11.877z" fill="#fdd0bf"/><path d="m51.32 220.114v-33.168c0-15.947-.491-28.994-16.438-28.994-15.946 0-22.715 13.057-22.715 28.994v52.155l.046.046c10.077 10.5 22.938 21.552 37.749 20.41-2.23-3.581-3.774-7.159-4.678-10.662-1.099-4.27-1.264-8.4-.573-12.297-2.581-8.354-.731-14.399 6.609-16.484z" fill="#fedecf"/><path d="m65.503 262.602c-9.511 12.678-39.019 9.836-53.336-12.185-7.174 88.247 5.889 99.773 31.828 175.694 8.736 25.568 8.43 49.005 8.43 75.601h178.443c0-17.568-2.445-44.345 1.353-60.619 7.522-32.23 81.321-108.595 22.815-160.325l-72.869-49.669c-11.568-7.884-9.904-6.891-23.833-7.454l-70.194-2.831c-31.268-1.399-45.019 19.937-22.637 41.788z" fill="#fdd0bf"/><path d="m65.503 262.602c-9.511 12.678-39.019 18.166-53.336-3.855-7.174 88.246 5.887 91.443 31.828 167.364 8.736 25.569 8.43 49.005 8.43 75.601h162.747c0-17.568-2.443-44.35 1.353-60.619 7.518-32.228 84.46-108.595 25.955-160.325l-60.313-43.39c-11.568-7.884-9.904-6.892-23.833-7.454l-70.194-2.832c-31.268-1.398-45.019 13.659-22.637 35.51z" fill="#ffe2d4"/><path d="m165.521 303.064a5.226 5.226 0 0 0 -.267-.369l-15.058-20.861a5.473 5.473 0 0 0 -5.258-2.214c-17.456 2.197-33.292 1.866-47.461-1.385-13.963-3.205-25.85-10.12-36.597-19.444l-7.167 8.283c12.15 10.542 25.612 18.242 41.317 21.846 14.57 3.344 30.637 3.864 48.171 1.926l10.644 14.745c-12.575 13.6-21.816 29.191-26.235 47.649-4.751 19.847-3.866 42.842 4.529 70.021a5.479 5.479 0 0 0 10.473-3.219c-7.786-25.206-8.664-46.288-4.36-64.271 3.762-15.713 11.538-29.196 22.147-41.101l8.645 11.976a5.474 5.474 0 0 0 8.883-6.395z" fill-rule="nonzero"/><path d="m84.476 262.636 5.679-29.423c-5.888.057-13.892-.658-19.24 1.217-11.352 3.983-12.995 16.607 5.489 25.371z" fill="#e1beb1"/></svg>