<svg enable-background="new 0 0 122.88 86.59" viewBox="0 0 122.88 86.59" xmlns="http://www.w3.org/2000/svg"><path d="m53.65 50.1h-.71v34.17h13.7v-17.2c0-.55.44-.99.99-.99h11.49c.55 0 .99.44.99.99v17.2h40.44v-51.87h-24.53v51.86h-2.32v-81.94h-40.81v39.89l2.98 4.75c.19.3.28.62.28.95 0 .42-.15.81-.4 1.14-.15.2-.34.38-.55.53l-.13.09c-.42.26-.94.43-1.42.43zm56.02-46.48c5.55-3.84 5.97 3.76 11.42-.98v7.74c-5.2 4.68-6.32-2.88-11.42.96zm-1.37-2.11c.59 0 1.06.47 1.06 1.06 0 .39-.21.73-.52.91h.05v9.31c2.98 4.14 13.99 18.96 13.99 19v53.64c0 .64-.52 1.16-1.16 1.16-23.72 0-47.44 0-71.15 0h-16.08-12.84-17.1c-.75 0-1.35-.61-1.35-1.35v-35.14h-.71c-.47 0-1-.17-1.42-.43-.26-.17-.5-.38-.68-.61-.24-.34-.39-.73-.39-1.15 0-.32.09-.65.28-.95 2.74-4.37 5.66-8.78 8.28-13.21.42-.76.81-1.46 2.07-1.46h34.87c1.26 0 1.65.7 2.08 1.47l.14.24 2.84 4.52v-36.48c0-.56.23-1.07.6-1.44.37-.37.88-.6 1.44-.6h41.37c.56 0 1.07.23 1.44.6l.09.1c.32.36.51.83.51 1.35v28.04l11.69-17.47v-9.14h.05c-.31-.18-.52-.52-.52-.91.01-.58.48-1.06 1.07-1.06zm-39.67 82.75h9.51v-16.21h-9.51zm-46.78-28.68h11.58v7.7h-11.58zm2.89 10.58h6.65c1.22 0 2.34.5 3.14 1.31.81.81 1.31 1.92 1.31 3.14v13.28h14.4v-33.79h-44.34v33.79h14.4v-13.28c0-1.22.5-2.34 1.31-3.14.8-.81 1.91-1.31 3.13-1.31zm6.66 2.7h-6.65c-.48 0-.91.2-1.23.51-.32.32-.52.76-.52 1.24v13.28h10.14v-13.28c0-.48-.2-.91-.51-1.23-.32-.32-.75-.52-1.23-.52zm8.71.64h6.67v7.7h-6.67zm0-13.92h6.67v7.7h-6.67zm-30.74 13.92h6.67v7.7h-6.67zm0-13.92h6.67v7.7h-6.67zm48.52-48.89h30.98v24.38h-30.98zm44.26 56.82h12.81c.11 0 .2.07.2.14v3.78c0 .07-.09.14-.2.14h-12.81c-.1 0-.2-.06-.2-.14v-3.78c.01-.07.1-.14.2-.14zm0-8.28h12.81c.11 0 .2.07.2.14v3.78c0 .07-.09.14-.2.14h-12.81c-.1 0-.2-.06-.2-.14v-3.78c.01-.07.1-.14.2-.14zm0-8.28h12.81c.11 0 .2.07.2.14v3.78c0 .07-.09.14-.2.14h-12.81c-.1 0-.2-.06-.2-.14v-3.78c.01-.07.1-.14.2-.14zm-20.53 6.45h6.84c.11 0 .2.09.2.2v6.84c0 .11-.09.2-.2.2h-6.84c-.11 0-.2-.09-.2-.2v-6.84c.01-.11.1-.2.2-.2zm-11.75 0h6.84c.11 0 .2.09.2.2v6.84c0 .11-.09.2-.2.2h-6.84c-.11 0-.2-.09-.2-.2v-6.84c0-.11.09-.2.2-.2zm-11.75 0h6.84c.11 0 .2.09.2.2v6.84c0 .11-.09.2-.2.2h-6.84c-.11 0-.2-.09-.2-.2v-6.84c0-.11.09-.2.2-.2zm23.5-13.27h6.84c.11 0 .2.09.2.2v6.84c0 .11-.09.2-.2.2h-6.84c-.11 0-.2-.09-.2-.2v-6.84c.01-.11.1-.2.2-.2zm-11.75 0h6.84c.11 0 .2.09.2.2v6.84c0 .11-.09.2-.2.2h-6.84c-.11 0-.2-.09-.2-.2v-6.84c0-.11.09-.2.2-.2zm-11.75 0h6.84c.11 0 .2.09.2.2v6.84c0 .11-.09.2-.2.2h-6.84c-.11 0-.2-.09-.2-.2v-6.84c0-.11.09-.2.2-.2z"/></svg>