<svg enable-background="new 0 0 122.88 74.34" viewBox="0 0 122.88 74.34" xmlns="http://www.w3.org/2000/svg"><path clip-rule="evenodd" d="m94.42 18.73-17.98-.1v-12.1c0-1.8-.73-3.43-1.92-4.61-1.18-1.19-2.81-1.92-4.61-1.92h-49.84c-1.8 0-3.43.73-4.61 1.92-1.18 1.18-1.92 2.81-1.92 4.61 0 .98.79 1.77 1.77 1.77s1.77-.79 1.77-1.77c0-.82.34-1.57.88-2.11s1.29-.88 2.11-.88h49.84c.82 0 1.57.34 2.11.88s.88 1.29.88 2.11v55.41h-9.98c-.98 0-1.77.79-1.77 1.77s.79 1.77 1.77 1.77h11.75c.98 0 1.77-.79 1.77-1.77v-2.01h10.68c.81-18.42 27.26-20.96 29.95 0h5.81l-1.79-19.22-19.07-7.3zm-91.77 18.81c-1.47 0-2.65-.8-2.65-1.78s1.19-1.78 2.65-1.78h23.89c1.47 0 2.65.8 2.65 1.78s-1.19 1.78-2.65 1.78zm5.47-9.58c-1.1 0-1.99-.79-1.99-1.77s.89-1.77 1.99-1.77h18.43c1.1 0 1.99.79 1.99 1.77s-.89 1.77-1.99 1.77zm2.53-9.58c-1.1 0-1.99-.79-1.99-1.77s.89-1.77 1.99-1.77h15.89c1.1 0 1.99.79 1.99 1.77s-.89 1.77-1.99 1.77zm15.81 43.55c.98 0 1.77.79 1.77 1.77s-.79 1.77-1.77 1.77h-6.39c-1.79 0-3.42-.78-4.61-2.01-1.18-1.23-1.92-2.91-1.92-4.69v-13c0-.98.79-1.77 1.77-1.77s1.77.79 1.77 1.77v13c0 .85.35 1.66.92 2.25.54.56 1.27.92 2.06.92h6.4zm18-11.56c-6.62 0-11.99 5.37-11.99 11.99s5.37 11.99 11.99 11.99 11.99-5.37 11.99-11.99c-.01-6.62-5.37-11.99-11.99-11.99zm0 7.38c-2.54 0-4.61 2.06-4.61 4.61 0 2.54 2.06 4.61 4.61 4.61 2.54 0 4.61-2.06 4.61-4.61-.01-2.55-2.07-4.61-4.61-4.61zm57.6-7.38c-6.62 0-11.99 5.37-11.99 11.99s5.37 11.99 11.99 11.99 11.99-5.37 11.99-11.99-5.37-11.99-11.99-11.99zm0 7.38c-2.54 0-4.61 2.06-4.61 4.61 0 2.54 2.06 4.61 4.61 4.61s4.61-2.06 4.61-4.61-2.06-4.61-4.61-4.61zm-12.27-33.94-8.93-.1v11.49h14.97z" fill-rule="evenodd"/></svg>