<svg enable-background="new 0 0 122.88 100.7" viewBox="0 0 122.88 100.7" xmlns="http://www.w3.org/2000/svg"><path d="m76.74 57.48-.11.12c-.52.56-1.07 1.13-1.65 1.71-10.44 10.43-22.96 16.85-34.77 18.79-12.04 1.98-23.38-.68-31.14-8.44-7.76-7.76-10.42-19.09-8.44-31.14 1.94-11.81 8.36-24.33 18.8-34.77l.11-.11c.54-.54 1.07-1.05 1.6-1.54.63-.59 1.21-1.12 1.74-1.59.82-.72 2.06-.68 2.83.09l52.42 52.42 44.15 44.15c.81.81.81 2.12 0 2.92-.81.81-2.12.81-2.92 0zm-9.57 3.35-6.84-.06-.04 5.08c2.34-1.49 4.64-3.16 6.88-5.02zm-9.71 6.71.06-6.79-10.55-.09-.09 10.55 2.79.02c2.61-1.01 5.22-2.24 7.79-3.69zm-17.49 6.42-3.12-.03-7.19.06v.49c3.17.26 6.49.11 9.88-.45.15-.02.29-.05.43-.07zm-13.11.17v-.11l-.59.01c.19.03.39.07.59.1zm-13.42-6.05-.06-7.31-5.78.05c1.16 2.16 2.62 4.15 4.39 5.92.47.47.96.91 1.45 1.34zm-7.14-10.05 7.05-.06-.09-10.55-9.11.08c.15 3.73.86 7.29 2.15 10.53zm-2.15-13.35 9.09-.08-.05-5.5c-.02-.09-.03-.18-.03-.28l.01-1.36-.01-1.36c0-.1.01-.19.03-.28l.05-5.5-6.2-.05c-1.08 2.99-1.86 5.98-2.34 8.91-.31 1.86-.49 3.7-.55 5.5zm3.99-17.21 5.13.04.08-9.79c-2.08 3.19-3.82 6.46-5.21 9.75zm8.05-13.76v.47l10.55.09.06-6.73-2.63-2.63-.21.19c-.52.49-1.03.98-1.51 1.46l-.1.11c-2.25 2.26-4.31 4.61-6.16 7.04zm13.39-3.39-.03 3.97 4.04.03zm6.85 6.85-.75.01c-.09 0-.18-.01-.26-.02l-5.89-.05-.09 10.55 7.42.06 7.42-.06-.02-2.67zm13.25 13.25-2.57.02.04 4.43c.03.11.04.23.04.35l-.02 2.25.02 2.24c0 .12-.01.24-.04.35l-.04 4.43 10.55.09.05-6.13zm10.81 10.81-.03 3.37 3.43.03zm6.24 6.24-6.28-.05-.09 10.55 9.98.09c.19-.18.39-.37.58-.55l.05-5.8zm7.01 7.01v.16l.08-.08zm-29.67 16.71.09-10.55-7.3-.06-7.3.06.09 10.55 4.82-.04c.11-.03.22-.04.34-.04l2.06.02 2.06-.02c.12 0 .23.01.34.04zm.11-13.36.09-10.55-7.42-.06-7.42.06.09 10.55 5.89-.05c.09-.02.17-.02.26-.02l1.17.01 1.17-.01c.09 0 .18.01.26.02zm.12-13.36.06-7-.06-7-7.01.06c-.05 0-.09.01-.14.01h-.29-.29c-.05 0-.1 0-.14-.01l-7.01-.06-.06 7 .06 7 7.01-.06c.05 0 .1-.01.14-.01h.29.29c.05 0 .1 0 .14.01zm2.78 2.83-.09 10.55 10.55.09.09-10.55zm-20.52-7.24c-.03-.11-.04-.23-.04-.35l.02-2.24-.02-2.25c0-.12.01-.24.04-.35l.04-4.43-10.55-.09-.06 7.12.06 7.12 10.55-.09zm.07 7.24-10.55.09.09 10.55 10.55-.09zm.11 13.36-10.55.09.08 9.42c.63.4 1.27.77 1.94 1.12l8.63-.07zm-.02-43.58-10.55-.09-.09 10.55 10.55.09z"/></svg>