<svg enable-background="new 0 0 122.88 121.71" viewBox="0 0 122.88 121.71" xmlns="http://www.w3.org/2000/svg"><path clip-rule="evenodd" d="m74.63 71.74.13-24.69 5.21-7.65-.12-8.21c0-.23-.19-.42-.42-.42h-16.12v-9.44l22-8.91-22-8.83v-1.85c0-2.32-3.52-2.32-3.52 0v29.04h-15.18c-.23 0-.42.19-.42.42l-.12 8.21 5.53 7.49v24.85h-6.49v-7.4h-12.47l.04-8.39 5.21-7.65-.12-8.21c0-.23-.19-.42-.42-.42h-34.81c-.23 0-.42.19-.42.42l-.12 8.2 5.53 7.49v65.92h24.69.12 20.12v-25.21c0-6.28 5.14-11.43 11.43-11.43 6.28 0 11.43 5.14 11.43 11.43v25.22h19.2.12 24.69l.35-65.76 5.21-7.65-.12-8.21c0-.23-.19-.42-.42-.42h-34.83c-.23 0-.42.19-.42.42l-.12 8.21 5.53 7.49v8.55h-12.3v7.4h-5.58zm-12.61-32.99c2.59 0 4.69 2.1 4.69 4.69s-2.1 4.69-4.69 4.69-4.69-2.1-4.69-4.69c-.01-2.58 2.09-4.69 4.69-4.69zm42.91 7.33c2.59 0 4.69 2.1 4.69 4.69s-2.1 4.69-4.69 4.69-4.69-2.1-4.69-4.69 2.1-4.69 4.69-4.69zm-48.26 15.57h10.69c.15 0 .27.12.27.27v9.55c0 .15-.12.27-.27.27h-10.69c-.15 0-.27-.12-.27-.27v-9.55c0-.14.12-.27.27-.27zm-38.72-15.57c2.59 0 4.69 2.1 4.69 4.69s-2.1 4.69-4.69 4.69-4.69-2.1-4.69-4.69c-.01-2.59 2.1-4.69 4.69-4.69z" fill-rule="evenodd"/></svg>