<svg enable-background="new 0 0 106.41 122.88" viewBox="0 0 106.41 122.88" xmlns="http://www.w3.org/2000/svg"><path d="m8.31 108.22c4.77-.44 18.07-1.58 22.24-8.01.42-.65 3.9-6.42 3.9-6.45l14.36 5.47c.31 1.57-8.11 13.33-9.64 14.6-1.95 1.62-3.82 2.51-5.8 3.26-6.65 2.5-12.37 4.52-19.91 5.79zm29.7-58.77-6.14 22.24c-1.46 7.19.12 13.28 6.89 17.48 3.53 2.19 4.52 2.08 8.56 3.25l18.65 4.28c1.11.25 23.27 18.19 25.35 19.98l9.57-8.62c1.39-1.25-22.08-21.96-26.17-23.99-19.42-9.63-20.24 1.38-12.93-26.41 3.71 3.62 6.52 7.66 13.56 10.42 8.57 2.19 13.35-.83 20.48-3.14l10.59-3.81-4.57-12.91-10.59 3.81c-.3.1-1.06.38-2.39.84-3.3.8-6.22 2.9-8.31 1.89-6.93-3.35-11.04-17.49-30.39-19.03-2.91-.23-8.32-.96-12.54-1.08-15.69-.91-21.04 4.97-29.63 13.79-3.95 3.82-4.01 3.78-8 7.57l10.15 10.1c4.02-3.82 4.11-3.8 8.09-7.66 3.61-3.45 6.08-7.01 9.79-8.53 2.41-.99 5.52-.58 9.22-.51.26.02.51.03.76.04zm18.11-48.72c7.8-2.53 16.18 1.74 18.72 9.55 2.53 7.8-1.74 16.18-9.55 18.72-7.8 2.53-16.18-1.74-18.72-9.55-2.53-7.81 1.75-16.19 9.55-18.72z"/></svg>