<svg enable-background="new 0 0 122.88 122.88" viewBox="0 0 122.88 122.88" xmlns="http://www.w3.org/2000/svg"><path clip-rule="evenodd" d="m31.77 56.55 12.18 12.18 55.72-52.58c-1.32-3.95-.42-8.48 2.71-11.6l1.26-1.26c4.38-4.38 11.57-4.38 15.96.01 4.39 4.39 4.38 11.57 0 15.95l-1.27 1.27c-3.13 3.13-7.67 4.02-11.6 2.71l-52.59 55.71 12.43 12.43c1.54 1.54 1.54 4.06 0 5.6l-17.53 17.53c-11.18 11.18-29.47 11.18-40.66 0-11.18-11.18-11.18-29.47 0-40.66l17.28-17.28c1.69-1.68 4.43-1.69 6.11-.01zm83.01-48.45c1.94 1.94 1.94 5.11 0 7.06l-.56.56c-1.94 1.94-5.11 1.94-7.06 0-1.94-1.94-1.94-5.11 0-7.06l.56-.56c1.94-1.95 5.12-1.94 7.06 0z" fill-rule="evenodd"/></svg>