<svg xmlns="http://www.w3.org/2000/svg" shape-rendering="geometricPrecision" text-rendering="geometricPrecision" image-rendering="optimizeQuality" fill-rule="evenodd" clip-rule="evenodd" viewBox="0 0 512 451.27"><path fill="#9B5927" d="M450.36 25.22c5.98-6.34 7.61-14.39 13.58-20.72-.85 6.61 1.33 16.37.06 24.51 3.52-5.88 5.61-13.06 12.17-18.53-1.31 20.15-1.39 29.16-4.83 32.85 3.91 4.25 8.4 10.48 9.67 14.53 1.67 5.29.72 8.97 4.81 14.73l11.68 16.43c3.29 3.24 6.42 6.64 9.04 10.52 3.85 5.69 4.84 6.64 2.92 12.88-2.83 9.14-5.48 14.8-14.84 15.98-3.58 1.97-7.14 2.4-10.66.92-2.04-.86-4.07-2.37-6.08-4.59-5.65-6.25-7.94-8.53-15.62-13.12-6.92-4.12-21.89-9.86-26.25-7.37-1.9 1.08-3.72 2.46-4.99 4.94a96.5 96.5 0 00-1.55 3.17c-8.87 18.91-24.3 63-25.92 71.48-5.21 27.3 3.6 47.08-23.9 62.55-.38 17.63-16.48 40.34-25.12 65.5-1.74 7.84-3.66 15.48-6.01 22.66-1.65 5.02-3.06 10.69-5.21 15.17-.8 10.22-1.31 19.56-.93 29.78.37 10.09-.34 13.25 4.45 22.16a187.28 187.28 0 0011.75 18.98c-8.95 3.43-18.34 3.87-26.91 1.46l.1-8.59c2.25-3.09 2.05-8.59-6.92-6.78-1.89-.09-2.89-1.85-2.89-5.46l-.24-8.83-5.41.48c2.62-4.52 2.86-8.56 1.83-12.4-.8-2.97-2.35-5.82-4.14-8.68-2.87-5.58 2.67-19.67 5.25-31.86.8-6.58.38-12.63-.45-18.48-.97-6.83-.55-11.09-.2-17.99l1.96-37.95c-35.09-2.74-50.25 8.41-106.14-2.99-12.73-2.59-22.89-6.31-33.5-7.25-19.66-1.75-36.31 7.8-50.85 20.08-5.4 4.57-9.56 9.94-14.79 15.45l-1.91 1.83c-2.54 10.71-5.77 20.86-11.59 28.07-2.69 4.34-4.7 11.77-7.32 17.6-3.55 7.94-5.13 5.46-6.32 15.65-.75 6.43-1.06 14.6-1.23 22.99-.1 5.33-.08 10.77-.22 15.9-.67 24.49 2.82 17.83 10.51 24.96 4.03 3.74 4.1 4.14 4.1 9.22v9.36c-8.74.78-17.68 2.06-24.65-1.3-5.34-2.58-.11-4.75 2.04-14.24-5.93-.53-9-2.8-9.79-6.57-1.55-7.43 4.64-19.48 4.48-32.3.91-16.06.68-30.55-1.29-42.68-5.56 2.58-12.8 10.43-20.63 20.12-7.09 19.03-14.23 34.11-22.79 51.58-3.32 10.21-4.25 16.55-2.22 27.56.79 4.28 2.14 8.04 4.21 11.14H6.92c-2.44-1.56-3.44-3.84-3.73-6.47-2.88-4.32-2.17-9.2 3.51-13.67l5.73-7.88c-2.29-2.96-6.37-6.05-6.93-9.21-.61-3.38 1.95-9.06 5.39-14.98 8.27-14.18 15.68-21.5 21.26-37.79 3.48-10.14 5.92-21.39 8.03-32.99-.93-8.14 3.29-14.32 9.54-19.09 21.29-14.17 24.3-26.42 22.93-42.53-3.07-35.91-14.96-77.75 13.96-106.85 17.84-17.96 45.77-23.95 72.89-24.11 25.67-.15 51.87 2.4 71.36 2.75 20.29.36 37.33-3.41 50.13-7.48 58.6-24 143.3-110.51 169.37-104.21z"/><path fill="#89491E" fill-rule="nonzero" d="M449.81 23.55c2.53-2.88 4.26-6.14 5.98-9.41 1.95-3.69 3.91-7.38 7.03-10.7L466.07 0l-.61 4.69c-.36 2.87-.12 6.5.13 10.32.15 2.3.31 4.66.35 7.02 2.2-4.39 4.66-8.9 9.25-12.73l2.75-2.29-.69 10.9c-.87 13.99-1.33 21.39-3.91 25.34 1.87 2.13 3.82 4.63 5.45 7.09 1.69 2.52 3.05 5.03 3.69 7.06.58 1.85.86 3.5 1.12 5.09.49 2.91.95 5.66 3.47 9.21l11.6 16.32c1.63 1.61 3.23 3.27 4.76 5.01 1.57 1.79 3.05 3.66 4.39 5.64l.58.87c3.69 5.44 4.56 6.72 2.53 13.33-1.46 4.73-2.9 8.59-5.25 11.49-2.38 2.95-5.62 4.84-10.57 5.52-1.89 1-3.79 1.62-5.7 1.8-2.03.19-4.05-.11-6.05-.95-1.13-.48-2.26-1.13-3.37-1.97-1.08-.81-2.17-1.81-3.24-3-2.78-3.07-4.73-5.17-6.92-7.05-2.17-1.86-4.6-3.54-8.36-5.78-3.78-2.26-10.07-5.02-15.6-6.57-4.06-1.14-7.6-1.64-9.11-.79-.85.49-1.69 1.04-2.44 1.74-.73.68-1.39 1.51-1.93 2.57l-1.53 3.13c-4.06 8.64-9.51 22.63-14.37 36.04-5.7 15.7-10.57 30.56-11.43 35.06-1.4 7.33-1.78 14.12-2.13 20.43-.97 17.34-1.74 31.15-21.78 42.75-.52 10.82-6.46 23.22-12.98 36.84-4.27 8.92-8.79 18.37-12.18 28.21-.87 3.93-1.78 7.78-2.75 11.5-1.01 3.84-2.09 7.59-3.26 11.17-.5 1.54-.92 2.92-1.34 4.29-1.13 3.73-2.29 7.54-3.82 10.8-.39 5.04-.71 9.84-.88 14.55-.18 4.86-.22 9.71-.03 14.78l.12 4.07c.16 6.84.24 10.14 4.15 17.42 1.82 3.37 3.7 6.61 5.63 9.72 1.96 3.14 3.97 6.18 6.03 9.11l1.14 1.61-1.85.71c-4.59 1.75-9.31 2.75-13.98 3.01-4.73.25-9.42-.26-13.89-1.51l-1.13-.32.11-10.25.29-.4c.48-.67.82-1.48.89-2.25.04-.5-.03-.97-.25-1.34-.22-.36-.63-.67-1.26-.86-1.04-.33-2.59-.36-4.76.08l-.19.03h-.18c-1.52-.08-2.67-.8-3.44-2.22-.6-1.11-.91-2.69-.91-4.74l-.2-7.2-6.73.61 1.48-2.56c1.2-2.07 1.85-4.02 2.09-5.88.22-1.85.05-3.63-.42-5.37-.37-1.38-.92-2.75-1.59-4.09-.7-1.42-1.5-2.8-2.36-4.17l-.07-.11c-2.32-4.51 0-13.12 2.46-22.28.95-3.51 1.92-7.11 2.64-10.53.38-3.2.48-6.26.37-9.21-.1-2.98-.41-5.9-.82-8.8-.88-6.14-.65-10.22-.34-15.87l2.01-38.87c-12.33-.83-22.22.05-32.46.96-18.05 1.61-37.2 3.31-72.38-3.86-4.85-.99-9.37-2.16-13.68-3.26-6.87-1.77-13.21-3.4-19.65-3.97-9.54-.85-18.38 1.05-26.59 4.66-8.28 3.63-15.96 9.01-23.13 15.07-3.58 3.02-6.61 6.42-9.78 9.97-1.6 1.79-3.24 3.62-4.89 5.35l-1.63 1.57c-1.25 5.24-2.69 10.37-4.52 15.11-1.89 4.88-4.21 9.33-7.19 13.05-1.53 2.48-2.87 6.13-4.25 9.87-.92 2.51-1.86 5.07-2.94 7.47-1.35 3.01-2.41 4.58-3.29 5.86-1.35 1.99-2.19 3.22-2.9 9.34-.38 3.22-.64 6.83-.83 10.66-.19 3.92-.31 8.03-.39 12.18l-.09 6.98c-.03 3.04-.06 6.06-.14 8.94-.47 17.27 1.08 18.12 4.63 20.05 1.49.82 3.29 1.79 5.39 3.75 2.17 2.02 3.29 3.15 3.92 4.62.65 1.5.68 2.98.68 5.72v10.76l-3.92.36c-8.13.77-16.26 1.54-22.94-1.68-4.68-2.26-3.75-4.13-1.73-8.16.77-1.54 1.76-3.52 2.52-6.15-2.39-.39-4.3-1.1-5.77-2.12-1.95-1.34-3.13-3.17-3.6-5.44-.85-4.07.37-9.15 1.76-14.92 1.3-5.42 2.76-11.5 2.68-17.68v-.1c.46-8 .63-15.61.44-22.7-.17-6.23-.61-12.09-1.37-17.49-2.17 1.37-4.59 3.46-7.2 6.07-3.39 3.41-7.08 7.69-10.91 12.42-3.52 9.45-7.07 17.94-10.78 26.22-3.72 8.28-7.64 16.4-11.91 25.12-1.62 4.99-2.65 9.01-3.03 13.08-.38 4.09-.11 8.3.88 13.66.38 2.06.9 3.99 1.56 5.76.64 1.74 1.45 3.35 2.42 4.8l1.61 2.4H6.48l-.38-.25c-1.45-.92-2.49-2.08-3.2-3.39-.64-1.18-1.01-2.47-1.19-3.84-1.57-2.5-2.11-5.18-1.41-7.9.65-2.53 2.36-5.03 5.28-7.37l4.9-6.75c-.53-.61-1.12-1.23-1.71-1.86-2.13-2.23-4.32-4.53-4.78-7.14-.36-1.99.17-4.53 1.26-7.36 1.03-2.68 2.56-5.65 4.32-8.66 2.68-4.61 5.28-8.5 7.75-12.21 5.09-7.62 9.66-14.46 13.38-25.31 1.72-5.02 3.19-10.33 4.48-15.8 1.29-5.48 2.42-11.08 3.44-16.73-.44-4.32.46-8.13 2.29-11.51 1.83-3.36 4.6-6.26 7.88-8.76l.09-.06c10.38-6.91 16.29-13.32 19.42-19.91 3.1-6.55 3.48-13.41 2.81-21.21-.52-6.08-1.3-12.38-2.09-18.77-3.88-31.36-8.01-64.63 16.5-89.29 8.42-8.48 19.03-14.35 30.71-18.21 13.51-4.47 28.51-6.27 43.27-6.35 15.32-.1 30.76.77 44.86 1.56 9.66.54 18.69 1.04 26.52 1.18 10.03.18 19.28-.66 27.6-2.06 8.29-1.38 15.66-3.32 21.98-5.33 27.24-11.17 60.3-36.02 90.38-58.65 33.88-25.48 64.05-48.17 78.97-45.78zm8.7-7.98c-1.95 3.69-3.9 7.39-7.03 10.7l-.61.65-.87-.21c-13.16-3.18-43.34 19.52-77.31 45.07-30.26 22.76-63.5 47.76-91.12 59.06l-.12.05c-6.46 2.05-14 4.04-22.47 5.46-8.47 1.41-17.89 2.27-28.15 2.09-8-.14-17.01-.65-26.64-1.18-76.4-4.28-144.08 12.26-132.11 108.85.79 6.39 1.57 12.7 2.1 18.89.71 8.29.28 15.62-3.11 22.77-3.35 7.08-9.58 13.88-20.44 21.12-2.96 2.26-5.42 4.83-7.02 7.77-1.58 2.89-2.33 6.18-1.91 9.91l.03.21-.04.24c-1.07 5.85-2.21 11.6-3.51 17.11-1.32 5.58-2.82 10.98-4.57 16.1-3.84 11.21-8.52 18.21-13.74 26.02-2.43 3.66-5 7.49-7.65 12.04-1.69 2.91-3.16 5.74-4.11 8.22-.9 2.33-1.35 4.33-1.1 5.72.31 1.71 2.17 3.66 3.98 5.57.94.99 1.87 1.96 2.65 2.97l.71.91-6.53 8.99-.17.13c-2.47 1.95-3.89 3.93-4.38 5.84-.49 1.95-.04 3.91 1.2 5.77l.21.31.04.37c.12 1.13.4 2.18.88 3.08.41.76.99 1.44 1.79 2.01h20.59c-.5-.96-.94-1.98-1.34-3.04-.73-1.95-1.29-4.06-1.7-6.27-1.04-5.65-1.32-10.12-.91-14.5.4-4.38 1.49-8.61 3.17-13.81l.09-.2c4.26-8.7 8.18-16.82 11.93-25.16 3.73-8.31 7.28-16.81 10.8-26.28l.09-.24.15-.19c3.95-4.88 7.75-9.31 11.28-12.85 3.6-3.62 6.95-6.33 9.91-7.7l1.83-.86.33 2.01c.99 6.13 1.54 12.85 1.74 20.07.19 7.2.02 14.88-.44 22.92.07 6.52-1.43 12.77-2.77 18.34-1.3 5.41-2.45 10.17-1.73 13.58.31 1.49 1.07 2.68 2.33 3.55 1.39.95 3.4 1.57 6.08 1.81l1.76.15-.39 1.71c-.87 3.83-2.21 6.5-3.2 8.49-1.06 2.12-1.56 3.11.33 4.02 5.91 2.86 13.62 2.12 21.31 1.4l1.12-.11v-7.96c0-2.34-.01-3.6-.4-4.5-.4-.93-1.34-1.87-3.2-3.59-1.83-1.7-3.43-2.58-4.77-3.3-4.69-2.56-6.75-3.68-6.22-22.83.08-2.91.1-5.89.13-8.89l.09-7c.08-4.24.2-8.41.39-12.27.2-3.95.47-7.64.84-10.86.8-6.88 1.8-8.35 3.42-10.73.81-1.19 1.81-2.65 3.03-5.38.99-2.2 1.93-4.76 2.85-7.28 1.45-3.92 2.85-7.74 4.57-10.5l.11-.15c2.8-3.47 4.99-7.68 6.78-12.31 1.82-4.69 3.24-9.85 4.5-15.16l.11-.44 2.19-2.1c1.76-1.85 3.31-3.58 4.82-5.28 3.27-3.65 6.39-7.15 10.09-10.27 7.36-6.22 15.28-11.77 23.88-15.54 8.65-3.8 17.98-5.79 28.09-4.9 6.69.6 13.14 2.26 20.14 4.06 4.24 1.09 8.69 2.23 13.53 3.22 34.76 7.08 53.67 5.4 71.5 3.81 10.81-.96 21.22-1.89 34.45-.86l1.5.12c-.72 13.96-1.41 27.92-2.16 41.87-.3 5.47-.52 9.42.31 15.28.42 2.95.74 5.97.85 9.12.11 3.16.01 6.39-.39 9.75l-.02.13c-.75 3.53-1.74 7.19-2.7 10.76-2.3 8.58-4.47 16.63-2.7 20.08.91 1.46 1.76 2.9 2.46 4.33.75 1.53 1.38 3.08 1.8 4.66.56 2.1.78 4.27.5 6.54a17.09 17.09 0 01-1.21 4.49l4.29-.39c.1 3.48.29 7.05.29 10.51 0 1.54.19 2.65.56 3.33.18.33.43.53.73.58 2.61-.5 4.6-.42 6.05.04 1.41.44 2.37 1.23 2.96 2.2.59.97.79 2.08.69 3.2-.1 1.16-.54 2.35-1.19 3.37l-.07 6.93c3.81.95 7.77 1.32 11.77 1.1 3.72-.2 7.48-.92 11.19-2.15-1.71-2.47-3.37-5-4.98-7.59-1.98-3.21-3.9-6.5-5.72-9.89-4.26-7.92-4.34-11.46-4.52-18.81l-.12-4.03c-.19-5.14-.15-10.07.03-15 .18-4.98.51-9.87.9-14.94l.03-.29.12-.26c1.5-3.13 2.66-6.92 3.79-10.64.46-1.55.93-3.08 1.35-4.34 1.17-3.59 2.23-7.26 3.21-11 .99-3.8 1.9-7.65 2.76-11.52l.04-.17c3.42-9.96 8.01-19.54 12.33-28.57 6.55-13.68 12.49-26.1 12.72-36.46l.02-.89.76-.42c19.3-10.86 20.04-24.05 20.97-40.67.35-6.42.74-13.33 2.17-20.83.89-4.66 5.82-19.71 11.56-35.54 4.88-13.46 10.37-27.54 14.48-36.3l1.57-3.22c.73-1.41 1.61-2.52 2.58-3.42.95-.89 1.98-1.57 3.02-2.16 2.31-1.32 6.68-.84 11.45.5 5.78 1.62 12.36 4.52 16.34 6.89 3.93 2.34 6.49 4.11 8.79 6.09 2.29 1.97 4.32 4.14 7.19 7.32.93 1.03 1.87 1.9 2.81 2.61.92.68 1.83 1.22 2.72 1.59 1.52.64 3.04.87 4.57.72 1.56-.14 3.15-.69 4.76-1.57l.25-.14.3-.04c4.23-.53 6.93-2.05 8.86-4.44 2.03-2.51 3.34-6.06 4.7-10.46 1.6-5.21.89-6.26-2.13-10.71l-.59-.86c-1.28-1.9-2.68-3.67-4.15-5.35-1.49-1.7-3.08-3.33-4.7-4.93-2.44-2.35-9.36-13.13-11.85-16.64-2.94-4.13-3.45-7.22-4-10.48-.24-1.48-.5-3.01-1.03-4.68-.54-1.75-1.77-3.98-3.31-6.29a65.877 65.877 0 00-6.02-7.66l-.97-1.04.97-1.04c2.62-2.81 3.06-9.87 3.97-24.57l.21-3.36c-2.77 3.16-4.55 6.72-6.25 10.14-.9 1.79-1.78 3.55-2.82 5.29l-4.04 6.75 1.21-7.77c.65-4.22.33-9.04.03-13.57-.13-2.09-.27-4.13-.31-6.06-1.39 2.07-2.54 4.25-3.7 6.43z"/><path fill="#89491E" d="M73.25 280.48c-3.94-32.27-11.76-96.94 13.36-122.21 3.98-4.01 8.47-7.42 13.34-10.31-17.65 23.96-18.39 120.66-26.7 132.52zM320.56 265.55c-35.09-2.74-50.25 8.41-106.14-2.99-12.73-2.59-22.89-6.31-33.5-7.25-19.66-1.75-36.31 7.8-50.85 20.08-5.4 4.57-9.56 9.94-14.79 15.45l-1.53 1.47-2.37.3c89.51-134.3 93.76-6.78 230.97-61.65l-21.79 34.59z"/><path fill="#36261E" d="M353.76 413.43c1.57 2.46 3.18 4.86 4.82 7.2-8.95 3.43-18.34 3.87-26.91 1.46l.1-8.59.04-.07h21.95zM101.3 429.96v6.46c-8.74.78-17.68 2.06-24.65-1.3-3.55-1.71-2.44-3.24-.66-6.85l25.31 1.69zM26.72 439.91c.81 3.73 2.09 7.04 3.94 9.82H6.92c-3.97-2.53-2.58-4.67-3.95-6.82l23.75-3z"/><path fill-rule="nonzero" d="M446.18 24.22c-.52-.19-1.08-.35-1.67-.49-2.45-.56-5.44-.64-8.59-.34-4.69.46-8.91 1.84-13.19 3.22-3.06.99-6.15 2-9.52 2.71-2.17.46-4.26.75-6.3 1.02-4.81.66-9.34 1.29-13.91 4.15-2.6 1.63-3.25 2.92-3.86 4.16-1.08 2.16-2.09 4.19-8.7 6.83-22.06 8.82-32.3 20.4-43.67 33.27-12.2 13.8-25.68 29.06-55.96 44.06 2.95.85 6.44 1.13 10.56.77 5.84-.51 12.87-2.3 21.25-5.55.79-.31 1.68.09 1.98.88.2.5.11 1.05-.19 1.46-3.27 4.42-8.07 7.92-14.09 10.66-4.4 2-9.46 3.61-15.05 4.9 5.49 1.38 10.79 1.85 16.05 1.21 7.06-.86 14.1-3.72 21.48-9.04.69-.5 1.65-.34 2.15.34.36.5.37 1.15.08 1.66-6.16 10.89-6.18 20.68-6.2 31.26-.01 5.7-.02 11.62-.94 18.08 3.01-3.2 5.61-6.36 7.99-9.94 3.25-4.9 6.11-10.65 9.04-18.45.29-.79 1.18-1.2 1.97-.9.48.18.82.57.94 1.03l.33 1.18c2.94 10.83 5.83 21.45 9.8 26.86 3.41-10.88 9.51-18.61 15.81-26.59 7.67-9.71 15.66-19.83 19.12-36.59 2.19-10.62 2.58-21.02 2.89-29.03.32-8.56.54-14.58 3.13-16.1.73-.42 1.67-.18 2.1.55.09.15.15.32.18.49.42 2.15.78 4.37 1.11 6.47.67 4.12 1.25 7.77 2.27 10.5.8-3.79 1.38-8.19 1.71-13.15.45-6.63.46-14.24.01-22.68a1.533 1.533 0 012.71-1.06c3.02 3.6 5.55 7.67 7.15 12.57 1.1 3.39 1.75 7.19 1.81 11.5 1.68-3.88 1.97-7.91 2.28-12.25.19-2.59.38-5.29.87-8.19 1.32-7.77 3.82-14.95 9.7-20.63 5.27-5.1 13.2-8.93 25.37-10.81zm-.98-3.49c2.7.62 4.92 1.76 6.35 3.51a1.545 1.545 0 01-1.02 2.51c-13.71 1.52-22.22 5.3-27.58 10.48-5.3 5.13-7.59 11.74-8.81 18.94-.46 2.73-.65 5.37-.83 7.9-.48 6.68-.91 12.7-5.99 18.84-.32.38-.81.6-1.34.55-.84-.09-1.46-.85-1.37-1.69.67-6.43.07-11.72-1.39-16.22-.91-2.8-2.16-5.31-3.65-7.61.22 6.6.14 12.64-.22 18.03-.46 6.91-1.39 12.81-2.74 17.52-.08.28-.25.54-.49.75-.65.55-1.62.47-2.17-.18-2.76-3.27-3.63-8.66-4.68-15.16l-.02-.16c-.18 2.24-.28 5.1-.41 8.38-.3 8.13-.7 18.68-2.95 29.54-3.6 17.46-11.82 27.87-19.72 37.87-6.6 8.36-12.97 16.44-16.01 28.17-.06.23-.18.45-.35.64-.56.63-1.53.68-2.16.12-5.12-4.59-8.39-15.42-11.56-27-2.45 5.92-4.91 10.61-7.65 14.74-3.37 5.08-7.14 9.29-11.8 13.92a1.54 1.54 0 01-2.64-1.36c1.74-8.16 1.75-15.46 1.77-22.4.01-9.35.03-18.11 4.05-27.63-6.13 3.66-12.11 5.73-18.13 6.47-7.57.92-15.16-.28-23.16-3.11-.5-.18-.9-.61-.99-1.17-.15-.84.4-1.64 1.23-1.79 7.75-1.4 14.61-3.31 20.27-5.89 3.25-1.48 6.09-3.17 8.48-5.12-6.02 1.98-11.3 3.13-15.89 3.53-6.2.54-11.22-.28-15.23-2.26a1.5 1.5 0 01-.81-.76c-.37-.77-.04-1.69.72-2.06 31.98-15.23 45.75-30.81 58.16-44.85 11.63-13.16 22.09-25.01 44.83-34.09 5.52-2.21 6.28-3.73 7.09-5.35.79-1.6 1.63-3.28 4.98-5.38 5.15-3.23 9.99-3.89 15.13-4.6 1.98-.27 4-.55 6.08-.99 3.19-.67 6.21-1.65 9.2-2.62 4.42-1.44 8.8-2.86 13.85-3.35 3.46-.34 6.79-.24 9.57.39z"/><path fill="#36261E" d="M450.36 25.22c-2.53-3.1-8.28-3.97-14.59-3.35-8.26.8-14.88 4.26-22.87 5.95-7.41 1.56-13.9 1.1-20.71 5.37-6.95 4.36-1.71 6.62-12.32 10.86-46.78 18.7-41 49.42-102.9 78.91 7.53 3.78 19.14 3.12 36.2-3.5-6.2 8.41-18.39 13.33-34.13 16.19 15.57 5.49 29.45 4.66 44.66-6.31-10.51 18.56-3.71 33.69-8.19 54.74 9.22-9.15 14.89-16.63 20.85-32.5 3.52 12.96 6.9 25.88 12.31 30.73 6.74-26 29.14-34.1 35.72-65.96 4.44-21.48 1.58-41.92 5.29-44.11 1.75 9.06 2.14 16.91 5.45 20.83 2.62-9.14 3.62-22.87 2.69-40.06 5.82 6.94 9.71 15.59 8.32 28.92 6.67-8.07 4.81-16.16 6.49-26.02 2.54-14.97 9.55-27.56 37.73-30.69z"/><path fill-rule="nonzero" d="M66.2 216.65c.02-13.43 1.35-25.39 4.39-35.41 2.86-9.4 7.23-17.12 13.44-22.77-.69-.39-1.39-.74-2.1-1.05-6.94-2.99-14.46-1.71-21.36 1.93-7.07 3.72-13.48 9.88-18.04 16.49-1.83 2.65-3.36 5.38-4.51 8.05-8.94 20.75-10.28 50.14-11.49 77.08-.69 15.08-1.34 29.4-3.26 41.13-8.99 54.77-1.34 75.2 5.97 94.72 2.23 5.96 4.43 11.84 6.14 18.55 6.13-12.84 11.6-31.11 15.56-52.94 4.02-22.12 6.48-47.88 6.48-75.36l8.78-70.42zm7.33-34.52c-2.96 9.73-4.25 21.4-4.26 34.53l-.01.32-8.76 70.18c-.01 27.58-2.49 53.51-6.54 75.82-4.41 24.32-10.71 44.34-17.72 57.53-.2.41-.59.74-1.08.84a1.54 1.54 0 01-1.82-1.19c-1.75-8.33-4.34-15.24-6.97-22.27-7.46-19.9-15.25-40.71-6.13-96.28 1.89-11.56 2.54-25.79 3.22-40.77 1.23-27.23 2.58-56.92 11.73-78.16 1.22-2.84 2.86-5.75 4.81-8.58 4.82-6.99 11.62-13.51 19.14-17.47 7.67-4.04 16.11-5.44 24.01-2.03 1.43.62 2.87 1.41 4.28 2.38.13.08.26.19.37.32.53.66.43 1.63-.23 2.16-6.57 5.34-11.12 13.06-14.04 22.67z"/><path fill="#36261E" d="M67.73 216.79c.03-26.67 5.22-47.43 18.88-58.52-18.59-12.82-42.37 7.3-50 25.02-14.07 32.64-9.5 85.93-14.86 118.56-12.31 75.02 6.39 86.15 13.1 118 13.34-25.03 24.11-75.23 24.11-132.78l8.77-70.28z"/><path fill="#89491E" fill-rule="nonzero" d="M479.38 115c-.89-.9-.88-2.37.03-3.26.9-.89 2.37-.87 3.26.03l2.91 2.9c3.97 3.92 7.86 7.76 9.8 11.33.61 1.12.2 2.51-.92 3.12-1.11.61-2.51.2-3.12-.92-1.61-2.96-5.26-6.56-9-10.25l-2.96-2.95z"/><path fill="#36261E" d="M502.23 108.89c.2-3.73.85-4.33 3.11-5.47 7.4-3.7 3.05 16.25-1.69 17.87-1.88-2.65-2.24-6.91-1.42-12.4zM454.09 64.27c6.89-3.33 10.32-.36 12.37 1.41l.69.57c.56.4.7 1.15.35 1.72-.54.87-1.27 1.53-2.12 2-1.27.7-2.8.95-4.36.81-1.5-.14-3.04-.66-4.37-1.49-1.27-.8-2.38-1.9-3.13-3.24-.34-.63-.11-1.41.51-1.75l.06-.03z"/><path fill="#89491E" d="M454.45 107.73c-19.91-10.03-23.76-28.5-19.29-49.09-7.19 8.84-7.81 22.9-4.47 33.5 1.57 5 2.63 9.49 5.5 10.62 3.9 1.53 11.09.78 18.26 4.97z"/><path fill="#89491E" fill-rule="nonzero" d="M343.65 231.78l-21.8 34.59-2.59-1.64 21.79-34.59z"/></svg>