<svg enable-background="new 0 0 84.2 122.88" viewBox="0 0 84.2 122.88" xmlns="http://www.w3.org/2000/svg"><path d="m25.93 0h33.82c1.88 0 3.59.77 4.84 2.01v.01h.01l.01.01c1.23 1.25 2 2.95 2 4.82v10.37c0 1.89-.77 3.6-2.01 4.85-.06.06-.13.12-.19.17-1.22 1.14-2.87 1.84-4.65 1.84h-.78v18.15c7.25 3.18 13.43 8.34 17.87 14.78 4.64 6.77 7.36 14.96 7.36 23.78 0 23.25-18.84 42.09-42.09 42.09-23.28.01-42.12-18.83-42.12-42.08 0-8.96 2.82-17.28 7.61-24.12 4.56-6.51 10.92-11.67 18.34-14.76v-17.84h-.01c-1.88 0-3.59-.77-4.84-2.02l-.01.01c-1.25-1.25-2.01-2.95-2.01-4.84v-10.38c0-1.88.77-3.59 2.01-4.83h.01v-.01-.01c1.25-1.24 2.97-2 4.83-2z" fill="#262626"/><path d="m32.96 77.63c12.3 5.93 13.86 3.99 16.53.68 2.26-2.81 5.08-6.31 11.5-8.88 3.2-1.28 6.46-2.06 9.77-2.53 2.01-.28 4-.43 6-.51-.91-1.99-1.99-3.9-3.22-5.68-4.28-6.24-9.71-11.13-16.86-13.93-1.16-.35-2.01-1.43-2.01-2.7v-22.85c0-1.55 1.26-2.81 2.81-2.81h3.63c.37 0 .7-.13.96-.35.02-.03.06-.06.09-.09.27-.27.44-.65.44-1.05v-10.43c0-.41-.17-.78-.43-1.05l-.01-.01c-.27-.27-.63-.42-1.05-.42h-36.37c-.41 0-.78.17-1.05.42l-.01.01c-.27.27-.42.64-.42 1.05v10.43c0 .4.17.78.43 1.05v.01c.27.27.63.42 1.05.42h2.82c1.55 0 2.81 1.26 2.81 2.81v22.58h-.01c0 1.15-.71 2.23-1.85 2.64-7.41 2.7-13.1 7.62-17.54 13.96-3.55 5.07-5.89 11.05-6.62 17.54 7.92-1.8 21.51-3.72 28.61-.31z" fill="#fefdef"/><path d="m15.36 79.84c-4.16.46-8.21 1.25-11.26 1.99.81 20.29 17.51 36.49 37.99 36.49 21 0 38.02-17.02 38.02-38.03 0-3.55-.49-6.99-1.39-10.25-1.53.02-3.03.09-4.51.21-12.47 1.64-14.76 2.65-20.41 9.66-4.43 5.5-7.02 8.71-23.34.86-3.99-1.89-10.65-1.29-15.1-.93z" fill="#fe5b61"/><g fill="#fff"><path d="m61.05 92.13c1.51 0 2.89.62 3.88 1.61.99 1 1.61 2.37 1.61 3.88s-.62 2.89-1.61 3.88c-.99 1-2.37 1.61-3.88 1.61s-2.89-.62-3.88-1.61-1.61-2.37-1.61-3.88.62-2.89 1.61-3.88c1-1 2.37-1.61 3.88-1.61z"/><path d="m40.1 99.15c1.92 0 3.67.78 4.93 2.04 1.26 1.27 2.04 3.01 2.04 4.93s-.79 3.67-2.04 4.93c-1.26 1.27-3.01 2.04-4.93 2.04s-3.67-.79-4.93-2.04c-1.26-1.26-2.04-3.01-2.04-4.93s.78-3.67 2.04-4.93 3-2.04 4.93-2.04z"/><path d="m19.51 86.48c2.89 0 5.23 2.34 5.23 5.23s-2.34 5.23-5.23 5.23-5.23-2.34-5.23-5.23 2.34-5.23 5.23-5.23z"/><path d="m72.4 75.88c-.8-.8-1.91-1.29-3.13-1.29s-2.33.49-3.13 1.29c-.79.8-1.28 1.91-1.28 3.13s.49 2.33 1.29 3.13 1.91 1.29 3.13 1.29 2.33-.49 3.13-1.29 1.29-1.91 1.29-3.13-.49-2.33-1.3-3.13z"/></g></svg>