<svg enable-background="new 0 0 112.65 122.88" viewBox="0 0 112.65 122.88" xmlns="http://www.w3.org/2000/svg"><path d="m25.21 96.28v2.7c0 .25.21.46.46.46h7.72c.25 0 .46-.21.46-.46v-7.79c0-.25-.21-.46-.46-.46h-7.72c-.25 0-.46.21-.46.46zm-12.56 13.2v-79.29h-4.13c-.48 0-.87-.39-.87-.87v-27.09c0-.61.25-1.17.66-1.57.4-.41.96-.66 1.57-.66 11.3 0 29.03.02 46.72.04 14.39.02 28.69.03 46.17.03.61 0 1.17.25 1.57.65.4.41.65.96.65 1.57v27.02c0 .48-.39.87-.87.87h-4.12v79.3h12.66v13.4h-112.66v-13.4zm2.69 0h81.96l.01-79.2-81.97-.05zm63.62-66.03h7.72c.25 0 .46.21.46.46v7.79c0 .25-.21.46-.46.46h-7.72c-.25 0-.46-.21-.46-.46v-7.79c0-.26.21-.46.46-.46zm-13.49 0h7.72c.25 0 .46.21.46.46v7.79c0 .25-.21.46-.46.46h-7.72c-.25 0-.46-.21-.46-.46v-7.79c0-.26.21-.46.46-.46zm13.49 47.28h7.72c.25 0 .46.21.46.46v7.79c0 .25-.21.46-.46.46h-7.72c-.25 0-.46-.21-.46-.46v-7.79c0-.25.21-.46.46-.46zm-13.49 0h7.72c.25 0 .46.21.46.46v7.79c0 .25-.21.46-.46.46h-7.72c-.25 0-.46-.21-.46-.46v-7.79c0-.25.21-.46.46-.46zm13.49-15.76h7.72c.25 0 .46.21.46.46v7.79c0 .25-.21.46-.46.46h-7.72c-.25 0-.46-.21-.46-.46v-7.79c0-.25.21-.46.46-.46zm-13.49 0h7.72c.25 0 .46.21.46.46v7.79c0 .25-.21.46-.46.46h-7.72c-.25 0-.46-.21-.46-.46v-7.79c0-.25.21-.46.46-.46zm13.49-15.76h7.72c.25 0 .46.21.46.46v7.79c0 .25-.21.46-.46.46h-7.72c-.25 0-.46-.21-.46-.46v-7.79c0-.25.21-.46.46-.46zm-13.49 0h7.72c.25 0 .46.21.46.46v7.79c0 .25-.21.46-.46.46h-7.72c-.25 0-.46-.21-.46-.46v-7.79c0-.25.21-.46.46-.46zm-26-15.76h7.72c.25 0 .46.21.46.46v7.79c0 .25-.21.46-.46.46h-7.72c-.25 0-.46-.21-.46-.46v-7.79c0-.26.21-.46.46-.46zm-13.49 0h7.72c.25 0 .46.21.46.46v7.79c0 .25-.21.46-.46.46h-7.72c-.25 0-.46-.21-.46-.46v-7.79c-0-.26.2-.46.46-.46zm13.18 47.28h7.72c.25 0 .46.21.46.46v7.79c0 .25-.21.46-.46.46h-7.72c-.25 0-.46-.21-.46-.46v-7.79c0-.25.21-.46.46-.46zm0-15.76h7.72c.25 0 .46.21.46.46v7.79c0 .25-.21.46-.46.46h-7.72c-.25 0-.46-.21-.46-.46v-7.79c0-.25.21-.46.46-.46zm-13.5 0h7.72c.25 0 .46.21.46.46v7.79c0 .25-.21.46-.46.46h-7.72c-.25 0-.46-.21-.46-.46v-7.79c.01-.25.21-.46.46-.46zm13.5-15.76h7.72c.25 0 .46.21.46.46v7.79c0 .25-.21.46-.46.46h-7.72c-.25 0-.46-.21-.46-.46v-7.79c0-.25.21-.46.46-.46zm-13.5 0h7.72c.25 0 .46.21.46.46v7.79c0 .25-.21.46-.46.46h-7.72c-.25 0-.46-.21-.46-.46v-7.79c.01-.25.21-.46.46-.46zm-5.75-51.32h4.32v5.03h4.73v-5.03h4.34v14.41h-4.34v-5.84h-4.73v5.84h-4.32zm16.08 7.21c0-2.35.64-4.18 1.91-5.49s3.05-1.97 5.32-1.97c2.33 0 4.13.64 5.39 1.93s1.89 3.09 1.89 5.41c0 1.68-.27 3.06-.82 4.14s-1.35 1.92-2.39 2.52-2.34.9-3.89.9c-1.58 0-2.88-.26-3.92-.78-1.03-.52-1.87-1.34-2.52-2.46-.64-1.11-.97-2.51-.97-4.2zm4.33.01c0 1.45.26 2.5.79 3.13s1.24.95 2.15.95c.93 0 1.65-.31 2.16-.93s.77-1.74.77-3.35c0-1.36-.27-2.35-.8-2.97-.53-.63-1.25-.94-2.17-.94-.87 0-1.58.32-2.11.95-.53.64-.79 1.7-.79 3.16zm11.39-7.22h13.16v3.56h-4.42v10.85h-4.32v-10.85h-4.42zm15.46 0h11.58v3.08h-7.23v2.3h6.71v2.94h-6.71v2.84h7.45v3.26h-11.8zm14.48 0h4.32v10.87h6.77v3.54h-11.09zm-71.31-4.7v24.3h91.96v-24.23c0-.14-.05-.26-.14-.35-.09-.09-.21-.14-.35-.14-10.95 0-27.61-.02-45.21-.04-14.5-.02-28.1-.03-45.76-.03-.14 0-.26.06-.35.15-.09.08-.15.2-.15.34zm49.93 31.81h31.6c.54 0 1.02.25 1.36.66.3.36.49.85.49 1.38v67.8c0 .53-.19 1.02-.49 1.38-.02.02-.04.05-.06.07-.33.36-.79.59-1.29.59h-31.6c-.54 0-1.01-.25-1.35-.66-.31-.36-.5-.85-.5-1.38v-67.8c0-.53.19-1.02.49-1.38.33-.41.81-.66 1.35-.66zm30.64 2.69h-29.68s-.01.01-.03.03c-.05.06-.08.16-.08.27v65.88c0 .11.03.21.08.27.02.02.03.03.03.03h29.68.01l.98-.03c.05-.06-.88-.16-.88-.27v-65.88c0-.11.93-.21.88-.27-.02-.02-.99-.03-.99-.03zm-70.28-2.76h31.59c.54 0 1.02.25 1.36.65.3.36.49.85.49 1.38v67.87c0 .53-.19 1.02-.49 1.38-.34.4-.82.65-1.36.65h-31.59c-.53 0-1.01-.25-1.35-.66-.31-.36-.5-.85-.5-1.38v-67.86c0-.53.19-1.02.5-1.38.34-.4.82-.65 1.35-.65zm30.64 2.69h-29.68s-.02.01-.03.03c-.05.06-.08.15-.08.27v65.95c0 .11.03.21.08.27.02.02.03.03.03.03h29.67s.01-.01.03-.03c.05-.06.08-.16.08-.27v-65.95c0-.11-.03-.21-.08-.27-.01-.02-.02-.03-.02-.03z"/></svg>