<svg enable-background="new 0 0 78.28 122.88" viewBox="0 0 78.28 122.88" xmlns="http://www.w3.org/2000/svg"><path clip-rule="evenodd" d="m3.9 35.42c.67-.58 1.29-.98 2.07-1.03.4-.03.81.02 1.24.14 1.12.31 1.55.82 2.4 1.56 4.19 3.69 8.31 7.78 12.32 12.48 2.07 1.9 2.54 3.88.92 5.78l-2.96 3.31c-1.5 1.5-3.41 1.42-5.49-.08-9.36-7.87-20.43-11.93-10.5-22.16zm.02 17.93c.23 6.91 1.5 11.13 3.93 15.73 3.58 4.63 6.5 9.07 8.09 13.13 1.11 2.84 2.02 5.52 3.24 8.39l10.48 32.27h48.19l-22.09-38.93c-1.69-2.72-2.05-2.06.17-4.13 4.51-4.23 8.38-8.83 11.81-13.62 9.43-13.18 14.46-18.08 6.83-31.68l-5.74-10.48c-7.02-12.68-21.5-.99-32.35 5.23-3.17 3.94 3.99 12.37 10.3 10l8.15-3.06 2.41 5.71c-19.94-2.62-24 10.25-25.39 27.06-1.99-10.31-.31-18.56 3.82-22.75-3.55 2.61-7.29 6.03-10.72 10.29-.83 1.03-1.64 2.11-2.43 3.24-4.18 5.58-8.4 1.72-12.4-1.42-2.14-1.68-4.32-3.48-6.3-4.98zm43.55-53.34c.42.03.84.15 1.26.33 2.12.94 4.57 5.22 5.63 7.19.68 1.25 2.6 4.65 4.16 7.52l-13.39 5.4c-2.15-3.47-4.08-7.03-6.03-9.87-1.18-1.53-1.37-3.07-.72-4.56.76-1.73 2.67-3.03 4.24-4 1.1-.67 3.63-2.12 4.85-2.01zm-15.88 8.9c.42.01.84.09 1.28.25 1.14.42 1.54.99 2.35 1.84 1.34 1.41 2.56 3.12 3.72 4.98.65 1.04 2.09 3.26 3.59 5.63-4.62 2.08-10.85 3.2-11.06 9.13-2.73-3.72-5.17-7.7-7.56-10.76-1.27-1.46-1.56-2.98-1-4.51.96-2.61 6.09-6.61 8.68-6.56zm-14.29 11.97c.4-.03.81.02 1.24.14 1.12.31 1.55.82 2.4 1.56 1.39 1.23 2.69 2.77 3.95 4.45 1.67 2.22 8.06 10.36 8.97 12.23.62 1.28.69 2.61-.47 3.97l-3.8 3.69c-1.5 1.5-3.41 1.42-5.49-.08-4.86-4.69-9.31-10.57-13.21-14.76-1.33-1.28-1.73-2.71-1.32-4.22.64-2.4 5.31-6.82 7.73-6.98z" fill-rule="evenodd"/></svg>