<svg xmlns="http://www.w3.org/2000/svg" shape-rendering="geometricPrecision" text-rendering="geometricPrecision" image-rendering="optimizeQuality" fill-rule="evenodd" clip-rule="evenodd" viewBox="0 0 493 511.608"><path fill="#FFD337" d="M72.198 90.804c96.265-96.265 252.339-96.265 348.603 0 96.265 96.264 96.265 252.341 0 348.605-96.264 96.265-252.338 96.265-348.603 0-96.264-96.264-96.264-252.341 0-348.605z"/><path fill="#40270E" d="M197.195 237.306c-29.42-22.899-57.523-22.557-84.316-.251-12.078 10.055-17.45 4.443-11.997-9.221 5.426-13.585 12.239-25.146 20.859-34.056 36.408-37.629 69.684-4.011 85.616 33.39 5.088 11.943 2.441 19.946-10.162 10.138zm-49.862 91.275c-8.771-3.843-17.358 4.924-8.618 13.956 70.672 62.845 144.899 62.845 215.572 0 8.737-9.032.151-17.799-8.62-13.956-64.446 38.502-133.888 38.502-198.334 0zm234.318-91.275c-29.421-22.899-57.524-22.557-84.317-.251-12.077 10.055-17.452 4.443-11.997-9.221 5.427-13.585 12.239-25.146 20.859-34.056 36.409-37.629 69.684-4.011 85.614 33.39 5.088 11.943 2.443 19.946-10.159 10.138z"/><path fill="#4BA9FF" d="M246.499 0c133.558 0 241.827 29.471 241.827 65.832 0 36.357-108.269 65.832-241.827 65.832-133.555 0-241.825-29.475-241.825-65.832C4.674 29.471 112.944 0 246.499 0zm163.879 41.422c-69.599-30.526-259.116-30.526-328.715 0-144.179 63.236 472.895 63.236 328.715 0z"/></svg>