<svg viewBox="0 0 122.88 105.59" xmlns="http://www.w3.org/2000/svg"><path d="m12.82 96.3h97.24l-49.58-82.45z" fill="#fff"/><path d="m12.73 96.26h97.27l-49.61-82.45zm105.48 9.33h-113.55a4.71 4.71 0 0 1 -2.34-.59 4.67 4.67 0 0 1 -1.69-6.41l55.65-96.27a4.74 4.74 0 0 1 1.64-1.66 4.65 4.65 0 0 1 6.38 1.6l57.7 95.95a4.66 4.66 0 0 1 -3.79 7.38z" fill="#d92d27"/><path d="m39.52 88.09c-.44 0-.87 0-1.29 0s-.83-.09-1.23-.16-.79-.11-1.17-.18-.73-.15-1.07-.24v-3.08l1.46.1c.53 0 1.06 0 1.6.06h1.51a4.85 4.85 0 0 0 1.1-.1 1.28 1.28 0 0 0 .66-.32.79.79 0 0 0 .22-.6v-.24a.76.76 0 0 0 -.31-.66 1.26 1.26 0 0 0 -.73-.22h-1.07a5.32 5.32 0 0 1 -3.52-1 4.31 4.31 0 0 1 -1.19-3.45v-.65a4 4 0 0 1 1.31-3.29 5.81 5.81 0 0 1 3.8-1.06 16.36 16.36 0 0 1 1.77.09c.55.06 1.07.13 1.56.22s.92.17 1.31.27v3.08c-.61-.06-1.3-.1-2.07-.13s-1.46 0-2.09 0a5.13 5.13 0 0 0 -1 .08 1.24 1.24 0 0 0 -.68.32.94.94 0 0 0 -.24.7v.19a.92.92 0 0 0 .32.76 1.51 1.51 0 0 0 1 .26h1.32a4.7 4.7 0 0 1 2.33.53 3.52 3.52 0 0 1 1.4 1.44 4.51 4.51 0 0 1 .47 2.02v.66a5.27 5.27 0 0 1 -.66 2.9 3.22 3.22 0 0 1 -1.88 1.35 10.76 10.76 0 0 1 -2.92.35zm13.4-22.09a3.64 3.64 0 0 1 -3.6-2.21 8.43 8.43 0 0 1 -.67-2.38 22.19 22.19 0 0 1 -.19-2.9 19.66 19.66 0 0 1 .23-3.12 6.74 6.74 0 0 1 .84-2.4 4 4 0 0 1 1.75-1.54 7 7 0 0 1 3-.54 19.64 19.64 0 0 1 2 .09 14.66 14.66 0 0 1 1.59.26l1.54.39v3c-.3 0-.67-.1-1.12-.14l-1.52-.1c-.56 0-1.15 0-1.78 0a3.35 3.35 0 0 0 -1.72.35 1.8 1.8 0 0 0 -.74 1.25 13.59 13.59 0 0 0 -.18 2.52 15.74 15.74 0 0 0 .1 2 3.64 3.64 0 0 0 .33 1.19 1.32 1.32 0 0 0 .59.58 2.24 2.24 0 0 0 .86.16 12.84 12.84 0 0 0 1.32-.07c.38 0 .68-.09.88-.13v-1.98h-2.07v-3.08c.29 0 .64-.08 1-.1l1.31-.1h1.19 1.27 1v8.81h-2.91l-.52-1a7.16 7.16 0 0 1 -1.5.7 6.34 6.34 0 0 1 -2.28.38zm15.14 0a11 11 0 0 1 -2.77-.31 4.21 4.21 0 0 1 -2-1.11 4.93 4.93 0 0 1 -1.19-2.28 15.09 15.09 0 0 1 -.41-3.85 15 15 0 0 1 .41-3.85 5 5 0 0 1 1.19-2.29 4.39 4.39 0 0 1 2-1.11 12.53 12.53 0 0 1 5.54 0 4.34 4.34 0 0 1 2 1.11 5.07 5.07 0 0 1 1.17 2.26 15.56 15.56 0 0 1 .4 3.85 15.62 15.62 0 0 1 -.4 3.85 5 5 0 0 1 -1.2 2.28 4.16 4.16 0 0 1 -2 1.11 10.9 10.9 0 0 1 -2.77.31zm0-3.47a3.57 3.57 0 0 0 1.24-.18 1.47 1.47 0 0 0 .75-.62 3.24 3.24 0 0 0 .38-1.24 16.22 16.22 0 0 0 .11-2 16.59 16.59 0 0 0 -.11-2.1 3.13 3.13 0 0 0 -.38-1.23 1.37 1.37 0 0 0 -.75-.59 3.89 3.89 0 0 0 -1.24-.16 4 4 0 0 0 -1.23.16 1.4 1.4 0 0 0 -.76.59 3.13 3.13 0 0 0 -.38 1.23 16.59 16.59 0 0 0 -.11 2.1 16.22 16.22 0 0 0 .11 2 3.24 3.24 0 0 0 .38 1.24 1.5 1.5 0 0 0 .76.62 3.63 3.63 0 0 0 1.23.18zm-17.9 25.47a5.15 5.15 0 0 1 -2.2-.4 2.53 2.53 0 0 1 -1.26-1.26 5.18 5.18 0 0 1 -.4-2.2v-11h3.88v10.31a1.28 1.28 0 0 0 .11.58.67.67 0 0 0 .35.35 1.43 1.43 0 0 0 .58.11h4.31v3.51zm12.25.12a10.9 10.9 0 0 1 -2.77-.31 4.39 4.39 0 0 1 -2-1.11 5.07 5.07 0 0 1 -1.2-2.29 18.68 18.68 0 0 1 0-7.69 5 5 0 0 1 1.2-2.29 4.21 4.21 0 0 1 2-1.11 12.53 12.53 0 0 1 5.54 0 4.21 4.21 0 0 1 2 1.11 5 5 0 0 1 1.2 2.29 18.68 18.68 0 0 1 0 7.69 5.07 5.07 0 0 1 -1.2 2.29 4.39 4.39 0 0 1 -2 1.11 10.9 10.9 0 0 1 -2.77.31zm0-3.48a3.57 3.57 0 0 0 1.24-.18 1.43 1.43 0 0 0 .75-.62 3.13 3.13 0 0 0 .38-1.24 16 16 0 0 0 .11-2 16.81 16.81 0 0 0 -.11-2.1 3 3 0 0 0 -.38-1.22 1.33 1.33 0 0 0 -.75-.59 3.89 3.89 0 0 0 -1.24-.16 4 4 0 0 0 -1.23.16 1.32 1.32 0 0 0 -.76.59 3 3 0 0 0 -.42 1.15 16.81 16.81 0 0 0 -.11 2.1 16 16 0 0 0 .11 2 3.13 3.13 0 0 0 .38 1.24 1.41 1.41 0 0 0 .76.62 3.63 3.63 0 0 0 1.23.18zm9.77 3.36-3.39-14.88h4l1.84 9 2.22-9h3.48l2.2 9 1.84-9h4l-3.37 14.88h-3.88l-2.52-9.11-2.54 9.11z"/></svg>