<svg viewBox="0 0 122.88 122.88" xmlns="http://www.w3.org/2000/svg"><g fill-rule="evenodd"><path d="m61.44 0a61.44 61.44 0 1 1 -61.44 61.44 61.44 61.44 0 0 1 61.44-61.44z" fill="#f44336"/><path d="m32.5 72.66h10.56a2.18 2.18 0 0 0 2.17-2.18v-28.95a2.18 2.18 0 0 0 -2.17-2.18h-10.56a2.19 2.19 0 0 0 -2.18 2.18v29a2.19 2.19 0 0 0 2.18 2.18zm27.7 21.71c1.14 5.82 10.66.46 11.29-8.91a40.41 40.41 0 0 0 -.81-9.93h13.61c5.65-.23 10.59-4.28 7.1-10.93.8-2.9.92-6.3-1.24-7.65.27-4.57-1-7.41-3.37-9.65a11.39 11.39 0 0 0 -1.78-5.88c-1.83-2.58-3.31-2-6.19-2h-23c-3.64 0-5.62 1-8 4v25.58c6.91 1.88 10.55 11.25 12.39 17.4v8z" fill="#fff"/></g></svg>