<svg enable-background="new 0 0 106.6 122.88" viewBox="0 0 106.6 122.88" xmlns="http://www.w3.org/2000/svg"><path d="m21.61 91.11c.93-.41 2.01.01 2.42.94s-.01 2.01-.94 2.42c-1.91.84-3.89 1.14-5.92.94-1.02-.1-2.04-.33-3.07-.68.04.42.09.84.15 1.25.18 1.35.42 2.73.73 4.14.11.49.01.97-.23 1.36-1.05 2.11-1.57 3.88-1.67 5.34-.1 1.53.31 2.68 1.12 3.5.89.91 2.3 1.51 4.08 1.84 2.83.53 6.45.37 10.39-.34 1.41-.25 2.92-.57 4.49-.96 1.44-.36 2.88-.76 4.3-1.22 2.28-.73 4.51-1.6 6.56-2.61 1.8-.89 3.44-1.88 4.81-2.98.79-.63 1.95-.5 2.58.29s.5 1.95-.29 2.58c-1.58 1.26-3.45 2.39-5.47 3.4-1.95.96-4.06 1.81-6.22 2.53.04 1.22-.01 2.44-.13 3.67-.17 1.7-.47 3.37-.91 5-.26.98-1.27 1.56-2.25 1.3s-1.56-1.27-1.3-2.25c.39-1.47.67-2.94.81-4.4.07-.73.11-1.47.12-2.21-.58.16-1.16.31-1.73.45-1.58.39-3.17.73-4.72 1-4.37.78-8.44.96-11.71.34-2.49-.47-4.56-1.4-6.01-2.88-1.54-1.56-2.34-3.64-2.17-6.3.12-1.81.7-3.9 1.84-6.3-.26-1.23-.47-2.51-.65-3.83-.2-1.5-.33-3.02-.38-4.56v-.03c-.01-.07-.03-.14-.03-.21-.27-2.81-.3-5.55-.34-8.32l-.01-.77-4.29-.16h-.04c-1.14-.03-2.16-.36-3.01-.92-.81-.53-1.46-1.26-1.89-2.14-.43-.84-.65-1.82-.63-2.89.03-1.48.53-3.14 1.62-4.84l4.61-9.42c2.26-4.62 2.24-5.23 2.14-7.66-.04-1.09-.1-2.48-.03-4.57.08-2.49.36-4.87.9-7.1.38-1.59.9-3.1 1.56-4.52l-8.4-3.66c-.93-.4-1.35-1.48-.95-2.41.06-.13.12-.24.2-.35 20-27.26 42.6-34.77 61.7-31 11.16 2.2 21.1 8.26 28.63 16.5 7.52 8.22 12.63 18.62 14.15 29.51 2.49 17.91-4.7 37.09-26.83 50.07-.2.11-.4.19-.61.23.01 2.73.18 5.37.49 7.94.62 5.07 1.81 9.82 3.49 14.28.36.95-.12 2-1.07 2.36s-2-.12-2.36-1.07c-1.79-4.75-3.05-9.78-3.7-15.13-.65-5.33-.7-10.99-.08-17.03.1-1.01 1-1.74 2.01-1.64s1.74 1 1.64 2.01c-.14 1.38-.25 2.74-.32 4.08 19.59-12.07 25.97-29.42 23.72-45.6-1.41-10.15-6.19-19.86-13.21-27.54-7.03-7.68-16.28-13.32-26.65-15.37-17.4-3.43-38.02 3.33-56.66 27.73l7.99 3.49c.11.04.21.09.32.15.87.52 1.15 1.65.62 2.52-.97 1.61-1.66 3.4-2.12 5.32-.48 1.98-.72 4.11-.8 6.35-.06 1.95-.01 3.28.03 4.31.13 3.15.16 3.95-2.51 9.41l-4.62 9.45c-.04.09-.09.18-.14.27-.73 1.12-1.06 2.14-1.08 3-.01.46.08.87.24 1.2.12.29.33.53.58.69.3.2.68.31 1.12.33h.07l6.02.22c.97.03 1.75.82 1.77 1.79.02.82.03 1.68.04 2.53.03 2.46.07 4.91.27 7.37 1.29.61 2.54.99 3.75 1.11 1.39.15 2.75-.06 4.07-.64zm27.07-10.17c.4-7.06-2-9.81-4.59-12.78-1.54-1.76-3.13-3.59-4.4-6.3-1.25-2.67-1.94-5.44-1.91-8.31.02-2.88.76-5.83 2.34-8.88.01-.03.03-.05.04-.08 2.09-3.53 5-5.89 8.25-7.21 2.72-1.11 5.68-1.49 8.57-1.23 2.88.26 5.7 1.17 8.17 2.62 3.15 1.86 5.73 4.62 7.16 8.12.77 1.88 1.29 3.99 1.35 6.29s-.33 4.77-1.39 7.39c-1.41 3.49-3.26 5.65-5 7.67-2.58 3-4.86 5.65-4.34 12.66.29 3.71-1.44 6.44-3.77 7.79-.96.56-2.03.88-3.11.95-1.1.07-2.21-.14-3.22-.63-2.29-1.12-4.09-3.69-4.16-7.96.01-.04.01-.07.01-.11zm26.29-48.3c.55-.82 1.66-1.04 2.48-.49s1.04 1.66.49 2.48l-2.51 3.76c-.55.82-1.66 1.04-2.48.49s-1.04-1.66-.49-2.48zm-47.62 23.98c-.99.03-1.81-.74-1.84-1.73s.74-1.81 1.73-1.84l4.52-.16c.99-.03 1.81.74 1.84 1.73s-.74 1.81-1.73 1.84zm5.59-22.71c-.72-.67-.76-1.8-.09-2.53.67-.72 1.8-.76 2.53-.09l3.31 3.09c.72.67.76 1.8.09 2.53-.67.72-1.8.76-2.53.09zm22.53-7.52c.02-.99.84-1.77 1.83-1.74.99.02 1.77.84 1.74 1.83l-.12 4.52c-.02.99-.84 1.77-1.83 1.74-.99-.02-1.77-.84-1.74-1.83zm28.2 24.39c.98-.1 1.86.61 1.96 1.6.1.98-.61 1.86-1.6 1.96l-4.5.47c-.98.1-1.86-.61-1.96-1.6-.1-.98.61-1.86 1.6-1.96zm-32.56 23.07 9.99-2.06c.97-2.19 2.36-3.81 3.84-5.54 1.58-1.83 3.26-3.8 4.48-6.81.89-2.21 1.22-4.27 1.17-6.16s-.49-3.64-1.13-5.23c-1.16-2.84-3.28-5.09-5.87-6.63-2.08-1.23-4.46-1.99-6.89-2.22-2.41-.22-4.88.1-7.14 1.02-2.65 1.08-5.03 3.01-6.75 5.9-1.33 2.6-1.95 5.07-1.97 7.45-.02 2.4.56 4.72 1.62 6.99 1.08 2.32 2.54 3.98 3.93 5.58 1.93 2.22 3.77 4.32 4.72 7.71z"/></svg>