<svg viewBox="0 0 105.7 122.88" xmlns="http://www.w3.org/2000/svg"><path d="m30.46 14.57v-9.35a5.18 5.18 0 0 1 1.54-3.67 5.19 5.19 0 0 1 3.68-1.55h34.32a5.22 5.22 0 0 1 3.67 1.53 5.22 5.22 0 0 1 1.53 3.67v9.35h27.08a3.36 3.36 0 0 1 3.38 3.37v11.66a3.38 3.38 0 0 1 -3.34 3.42h-3.81l-8.3 87.22a3 3 0 0 1 -2.95 2.69h-68.83a3 3 0 0 1 -3-2.95l-8.24-86.96h-3.82a3.38 3.38 0 0 1 -3.37-3.42v-11.64a3.36 3.36 0 0 1 3.37-3.37zm36.27 0v-6.06h-27.73v6.06zm-17.25 34.68a3.4 3.4 0 0 1 6.8 0v51.81a3.4 3.4 0 1 1 -6.8 0zm20.11-.25a3.4 3.4 0 1 1 6.78.42l-3.37 51.85a3.4 3.4 0 0 1 -6.78-.43zm-40.26.42a3.39 3.39 0 1 1 6.77-.42l3.41 51.8a3.39 3.39 0 1 1 -6.77.43l-3.41-51.77zm63.18-16.04h-79.32l7.94 83.55h63.43l8-83.55z"/></svg>