<svg enable-background="new 0 0 122.88 96.16" viewBox="0 0 122.88 96.16" xmlns="http://www.w3.org/2000/svg"><path d="m108.82 14.33c-.02-.18-.05-.37-.05-.57 0-.19.01-.38.05-.57v-12.49c-8.76-.83-17.79.13-25.68 3.12-7.37 2.8-13.73 7.39-17.86 13.98v71.15c6.43-4.29 13-7.82 19.75-10.22 7.69-2.74 15.6-4.04 23.79-3.39zm-51.11 73.88v-70.53c-3.97-7-10.39-11.68-17.63-14.46-8.21-3.14-17.44-3.85-25.48-2.71l-.43 75.05c8.77-.32 17.36.8 25.43 3.44 6.43 2.09 12.52 5.16 18.11 9.21z" fill="#da5652"/><path d="m6.62 79.25.35-61.69h-6.97v78.5c9.57-2.47 19.17-4.04 28.85-4.11 8.93-.05 17.86 1.19 26.81 4.22-5.56-4.5-11.76-7.82-18.38-9.97-8.33-2.72-17.34-3.62-26.58-2.83-2.09.17-3.91-1.38-4.09-3.46-.02-.23-.02-.45.01-.66zm62.33 16.34c8.37-2.63 16.72-3.71 25.08-3.66 9.67.05 19.28 1.64 28.85 4.11v-78.48h-6.48v62.03c0 2.09-1.7 3.79-3.79 3.79-.3 0-.59-.03-.87-.1-8.29-1.3-16.32-.22-24.16 2.57-6.32 2.25-12.52 5.62-18.63 9.74z" fill="#2e2e2e"/></svg>