<svg enable-background="new 0 0 122.49 122.88" viewBox="0 0 122.49 122.88" xmlns="http://www.w3.org/2000/svg"><path clip-rule="evenodd" d="m101.12 37.47c14.95 18.54 22.23 40.44 21.28 60.48-6.91-16.93-17.64-34.09-31.87-49.9l-4.77 4.77c-.54.54-1.42.54-1.96 0l-15.08-15.07c-.54-.54-.54-1.42 0-1.96l4.63-4.63c-16.19-14.04-33.67-24.49-50.81-30.96 20.2-1.52 42.5 5.45 61.44 20.33l2.09-2.09c.54-.54 1.42-.54 1.96 0l15.08 15.08c.54.54.54 1.42 0 1.96zm-32.96 5.04 12.22 12.22-65.64 65.64c-3.36 3.36-8.86 3.36-12.22 0-3.36-3.36-3.36-8.86 0-12.22z" fill-rule="evenodd"/></svg>