<svg enable-background="new 0 0 122.88 59.05" viewBox="0 0 122.88 59.05" xmlns="http://www.w3.org/2000/svg"><path d="m13.55 38.63c-1.09.06-2.02-.78-2.08-1.88-.06-1.09.78-2.02 1.88-2.08 2.74-.15 5.01-.98 6.89-2.39 1.92-1.44 3.48-3.52 4.75-6.12.48-.99 1.67-1.4 2.65-.92.46.23.8.61.98 1.05 1.65 3.27 4.23 5.63 7.14 6.91 1.65.73 3.4 1.11 5.13 1.11.83 0 1.66-.09 2.48-.27-.02-.09-.03-.19-.03-.28.02-6.32 1.35-12.1 4.23-17.21s7.3-9.55 13.5-13.2c.02-.01.04-.02.06-.03 2.07-1.09 4.05-1.88 5.92-2.42 2.02-.58 3.94-.86 5.72-.9 3.85-.08 7.04 1.02 9.35 2.79 1.72 1.32 2.96 3 3.64 4.86.68 1.88.79 3.92.23 5.92-.65 2.34-2.19 4.59-4.75 6.42-1.41 1.01-3.09 1.66-4.8 1.82-1.39.14-2.81-.05-4.12-.61-1.32-.56-2.53-1.5-3.51-2.85-1.13-1.58-1.94-3.74-2.21-6.56-.08-.82.52-1.54 1.34-1.62s1.54.52 1.62 1.34c.22 2.25.83 3.92 1.68 5.11.64.89 1.41 1.5 2.25 1.85.84.36 1.76.48 2.68.39 1.17-.11 2.34-.57 3.34-1.29 1.97-1.41 3.14-3.09 3.62-4.8.39-1.39.31-2.81-.16-4.11-.48-1.33-1.39-2.54-2.65-3.51-19.86-10.78-31.3 23.78-7 26.79 1.89-1.41 3.8-3.37 5.68-5.9.65-.88 1.89-1.06 2.77-.41.28.21.49.48.63.78 1.47 3.25 3.69 5.56 6.23 6.84 1.47.74 3.05 1.14 4.64 1.17 1.6.03 3.23-.3 4.81-1.01 2.87-1.3 5.55-3.86 7.54-7.82.49-.98 1.68-1.37 2.66-.88.45.23.78.61.95 1.05 1.27 3.24 2.85 5.63 4.78 7.07 1.8 1.35 3.98 1.87 6.59 1.49 1.08-.16 2.09.59 2.25 1.68.16 1.08-.59 2.09-1.68 2.25-3.71.55-6.87-.25-9.54-2.25-1.73-1.29-3.21-3.08-4.46-5.32-2.14 3.01-4.72 5.1-7.47 6.34-2.12.96-4.33 1.4-6.52 1.35-2.2-.05-4.35-.59-6.35-1.59-2.53-1.27-4.8-3.29-6.57-6.01-2.29 2.64-4.63 4.6-6.97 5.89-2.58 1.42-5.17 2.05-7.7 1.91-2.55-.14-4.99-1.07-7.24-2.74-1.6-1.19-3.1-2.76-4.49-4.7-1.73 2.57-3.9 4.42-6.29 5.59-2.13 1.05-4.42 1.55-6.72 1.55-2.29 0-4.58-.49-6.72-1.43-2.79-1.23-5.34-3.23-7.32-5.92-1.2 1.79-2.6 3.31-4.21 4.52-2.5 1.89-5.49 2.99-9.05 3.19zm-11.47 20.42c-1.09.06-2.02-.78-2.08-1.88-.06-1.09.78-2.02 1.88-2.08 2.74-.15 5.01-.98 6.89-2.39 1.92-1.44 3.48-3.52 4.75-6.12.48-.99 1.67-1.4 2.65-.92.46.23.8.61.98 1.05 1.65 3.27 4.23 5.63 7.14 6.91 1.65.73 3.4 1.11 5.13 1.11 1.71 0 3.41-.37 4.98-1.15 2.45-1.21 4.63-3.42 6.1-6.75.44-1 1.61-1.46 2.61-1.02.43.19.76.51.96.9 1.57 2.83 3.32 4.95 5.2 6.35 1.62 1.21 3.34 1.87 5.1 1.97 1.78.1 3.66-.37 5.58-1.43 2.51-1.39 5.08-3.76 7.61-7.15.65-.88 1.89-1.06 2.77-.41.28.21.49.48.63.78 1.47 3.25 3.69 5.56 6.23 6.84 1.47.74 3.05 1.14 4.64 1.17 1.6.03 3.23-.3 4.81-1.01 2.87-1.3 5.55-3.86 7.54-7.82.49-.98 1.68-1.37 2.66-.88.45.23.78.61.95 1.05 1.27 3.24 2.85 5.63 4.78 7.07 1.8 1.35 3.98 1.87 6.59 1.49 1.08-.16 2.09.59 2.25 1.68.16 1.08-.59 2.09-1.68 2.25-3.71.55-6.87-.25-9.54-2.25-1.73-1.29-3.21-3.08-4.46-5.32-2.14 3.01-4.72 5.1-7.47 6.34-2.12.96-4.33 1.4-6.52 1.35-2.2-.05-4.35-.59-6.35-1.59-2.53-1.27-4.8-3.29-6.57-6.01-2.29 2.64-4.63 4.6-6.97 5.89-2.58 1.42-5.17 2.05-7.7 1.91-2.55-.14-4.99-1.07-7.24-2.74-1.6-1.19-3.1-2.76-4.49-4.7-1.73 2.57-3.9 4.42-6.29 5.59-2.13 1.06-4.43 1.57-6.73 1.57-2.29 0-4.58-.49-6.72-1.43-2.79-1.23-5.34-3.23-7.32-5.92-1.2 1.79-2.6 3.31-4.21 4.52-2.52 1.88-5.51 2.99-9.07 3.18z"/></svg>