<svg viewBox="0 0 122.88 89.1" xmlns="http://www.w3.org/2000/svg"><g fill-rule="evenodd"><path d="m39.08 6a44.52 44.52 0 0 1 60.84 16.3c.16.28.32.56.47.84-1.39 2.43-10.88 9.16-22.68 16.66-6.39 4.07-13.49 8.2-20.51 11.91s-13.93 7.06-19.93 9.57c-7.29 3-12.77 5.28-14.36 5.78l-.14-.24a44.53 44.53 0 0 1 16.31-60.82zm66.81 38.21a44.55 44.55 0 0 1 -68.06 38.17 208.73 208.73 0 0 0 35.63-16h.08a209.2 209.2 0 0 0 32.35-22.1z" fill="#4d4d4d"/><path d="m95.15 8.59c13.85-3.5 24-3.07 26.9 2.11 5.51 9.82-17.16 33-50.64 51.79s-65.08 26.05-70.59 16.22c-2.94-5.24 2.18-14.3 12.66-24.47l-.44.42a54 54 0 0 0 5.58 14.55c4.95 9.16 91.06-38.2 85.8-48.73-.1-.2-.23-.4-.35-.61a49.34 49.34 0 0 0 -8.92-11.28z" fill="#2d7abe"/></g></svg>