<svg viewBox="0 0 68.43 122.88" xmlns="http://www.w3.org/2000/svg"><path d="m49.13 41.83h-31.67c-1 3.33-2.13 6.93-3.35 10.66-3.54 10.9-7.49 23-7.63 33.07-.16 11.34 5 20.23 22.58 21.58h4.49a1.31 1.31 0 0 1 -.48-1l-.43-1.29a33 33 0 0 1 -5.44-4.85l-.95-1.15c-12.55-16.14 7.75-33.75 3.99-41.67 13.65 11.71 21.59 28 11.6 41.56l-.84 1.13a33.51 33.51 0 0 1 -5 4.84v1.41a1.32 1.32 0 0 1 -.49 1h5.59c14.72-1.35 19.71-8.65 20.08-18.24.41-10.58-4.27-24.15-8.4-36.17-1.31-3.82-2.57-7.48-3.62-10.9zm-15.3-41.83a10.68 10.68 0 0 1 7.55 18.24 10.41 10.41 0 0 1 -1.29 1.1v.91h12.07a2.23 2.23 0 0 1 2.22 2.22v5.66h3a2.23 2.23 0 0 1 2.22 2.22v6.18a2.24 2.24 0 0 1 -2.22 2.22h-2.75c1.07 3.63 2.48 7.71 3.95 12 4.3 12.51 9.16 26.63 8.71 38.39-.29 7.63-2.66 14.17-8.46 18.55.41.45.68 1.12 1.09 1.69l2 2.77c4 2 6.52 4.77 6.52 8.53a2.24 2.24 0 0 1 -2.22 2.22h-64a2.23 2.23 0 0 1 -2.22-2.24c0-2 1.59-3.79 4.27-5.4l4.24-5.9a13.2 13.2 0 0 1 1.22-1.83c-7.1-5-9.51-12.93-9.39-22 .15-11 4.25-23.6 7.92-34.9 1.36-4.19 2.67-8.19 3.67-11.84h-1.57a2.23 2.23 0 0 1 -2.21-2.22v-6.22a2.22 2.22 0 0 1 2.21-2.22h3v-5.66a2.23 2.23 0 0 1 2.22-2.22h12.03v-.87a9.73 9.73 0 0 1 -1.34-1.14l-.13-.14a10.68 10.68 0 0 1 7.69-18.1zm4.29 6.4a6.07 6.07 0 0 0 -9.62 7.2h10.65a6.09 6.09 0 0 0 -1-7.2zm-6.12 67.23c7.65 7.37 12.11 17.66 6.5 26.18l-.5.72-2.23 3-2.44.07a18.64 18.64 0 0 1 -3-3l-.54-.72c-7-10.17 4.35-21.26 2.24-26.25z" fill-rule="evenodd"/></svg>