<svg enable-background="new 0 0 83.69 122.88" viewBox="0 0 83.69 122.88" xmlns="http://www.w3.org/2000/svg"><path d="m9.24 11.3 5.89 12.31c4.65-4.09 9.16-6.01 11.76-6.89l-5.4-11.38-.01-.02c-.3-.62-.83-1.06-1.45-1.27-.63-.21-1.33-.2-1.97.1l-.02.01-7.62 3.71c-.64.32-1.08.85-1.29 1.46-.22.62-.2 1.33.11 1.97zm68.65-4.22c.25.2.45.46.59.78 1.48 3.59 2.11 8.08 2.11 12.81 0 5.08-.72 10.5-1.89 15.4 3.19 5.9 5 12.64 5 19.79v57.4c0 2.65-1.08 5.06-2.83 6.8-1.74 1.74-4.15 2.83-6.8 2.83h-64.49c-2.64 0-5.03-1.08-6.76-2.81-1.74-1.75-2.82-4.14-2.82-6.78v-57.45c0-7.18 1.83-13.94 5.04-19.86-1.06-4.23-1.57-8.99-1.57-13.67 0-5.03.59-10.01 1.73-14.22.11-.42.36-.78.67-1.03.62-1.14 1.58-2.1 2.82-2.71l7.62-3.71c.02-.01.04-.02.06-.03 1.59-.75 3.35-.8 4.9-.27 1.56.54 2.92 1.66 3.7 3.26.01.02.02.04.03.06l5.63 11.87c3.57-1 7.33-1.53 11.21-1.53 3.9 0 7.68.54 11.27 1.55l5.64-11.88.02-.03.01-.02v-.01c.78-1.59 2.14-2.72 3.7-3.26 1.55-.53 3.31-.48 4.9.27.02.01.04.02.06.03l7.62 3.71c1.25.6 2.21 1.57 2.83 2.71zm-69.83 24.15c1.24-1.7 2.61-3.3 4.09-4.79l-4.53-9.47c-.16 1.75-.24 3.55-.24 5.35.01 3.02.23 6.05.68 8.91zm67.63.08c.62-3.5.98-7.15.98-10.64 0-1.51-.07-2.97-.21-4.38l-4.87 10.19c1.48 1.5 2.85 3.12 4.1 4.83zm-21.62-11.36-.08-.02c-.03-.01-.06-.02-.08-.02-.23-.06-.39-.11-.57-.2h-.01c-3.62-1.16-7.48-1.78-11.47-1.78-3.93 0-7.72.61-11.3 1.73-.04.02-.08.04-.12.06-.18.08-.34.13-.57.2-.03.01-.06.02-.08.02-.11.03-.25.07-.41.11-5.43 1.91-10.31 5.02-14.31 9.02-6.89 6.87-11.16 16.35-11.16 26.78v57.45c0 1.55.64 2.97 1.66 4 1.03 1.03 2.44 1.66 4 1.66h64.49c1.57 0 3-.64 4.03-1.68 1.04-1.04 1.68-2.46 1.68-4.03v-57.4c0-10.43-4.27-19.91-11.14-26.79-4.06-4.06-9.03-7.21-14.56-9.11zm14.57 3.66 5.89-12.31c.31-.64.33-1.35.11-1.97-.21-.61-.65-1.14-1.28-1.45l-7.62-3.71-.02-.01c-.63-.3-1.34-.32-1.97-.1-.62.21-1.15.65-1.45 1.27l-.01.01v.01l-5.4 11.38c2.59.87 7.1 2.79 11.75 6.88zm-56.32 29.38c-.28 1.04-1.35 1.65-2.39 1.37-1.04-.29-1.66-1.36-1.37-2.4 3-10.89 9-18.21 16.26-22.42 5.52-3.2 11.76-4.58 17.95-4.35 6.17.23 12.29 2.07 17.61 5.3 7.5 4.57 13.42 11.93 15.62 21.52.24 1.05-.42 2.1-1.47 2.34s-2.1-.42-2.34-1.47c-1.95-8.48-7.19-15-13.85-19.06-4.75-2.89-10.21-4.53-15.71-4.74-5.48-.2-10.99 1.01-15.85 3.83-6.43 3.73-11.77 10.28-14.46 20.08zm8.26 13.07h42.75c2.69 0 5.14 1.1 6.91 2.87s2.87 4.22 2.87 6.91v26.24c0 2.69-1.1 5.14-2.87 6.91s-4.22 2.87-6.91 2.87h-42.75c-2.69 0-5.14-1.1-6.91-2.87s-2.87-4.22-2.87-6.91v-26.23c0-2.69 1.1-5.14 2.87-6.91 1.77-1.78 4.22-2.88 6.91-2.88zm8.14-15.61h27.08c1.27 0 2.31 1.04 2.31 2.31v6.33c0 1.27-1.04 2.31-2.31 2.31h-27.08c-1.27 0-2.31-1.04-2.31-2.31v-6.33c0-1.27 1.04-2.31 2.31-2.31zm-4.51 34.34v5.98c0 1.02-.83 1.85-1.85 1.85-1.02 0-1.85-.83-1.85-1.85v-5.98h-5.81v17.3c0 1.61.66 3.08 1.73 4.15s2.53 1.73 4.15 1.73h42.75c1.61 0 3.08-.66 4.15-1.73s1.73-2.53 1.73-4.15v-17.3zm-9.5-3.91h54.49v-5.03c0-1.61-.66-3.08-1.73-4.15-1.06-1.07-2.53-1.73-4.15-1.73h-42.74c-1.61 0-3.08.66-4.15 1.73-1.06 1.06-1.73 2.53-1.73 4.15v5.03z"/></svg>