<svg viewBox="0 0 122.88 119.49" xmlns="http://www.w3.org/2000/svg"><path d="m5.48 43.81 55.82-43.81 56.1 43.81zm37.64 46.05.12-20.45h-2.07v25.78a37.37 37.37 0 0 1 9.32-1.12 27 27 0 0 1 8.89 1.4 19.14 19.14 0 0 0 -6.09-3.31 22.29 22.29 0 0 0 -8.81-.94 1.25 1.25 0 0 1 -1.36-1.14.81.81 0 0 1 0-.22zm33.41-25.8a17.13 17.13 0 0 0 -8 1 11.76 11.76 0 0 0 -5.92 4.63v23.15a29.4 29.4 0 0 1 6.55-3.39 16.74 16.74 0 0 1 7.41-1.13v-24.26zm3 2.83h3.41a1.26 1.26 0 0 1 1.25 1.26v28.92a1.25 1.25 0 0 1 -1.25 1.26 1.1 1.1 0 0 1 -.41-.07 39 39 0 0 0 -10.43-1.69 24.15 24.15 0 0 0 -10.1 2.06 1.38 1.38 0 0 1 -1.43 0 24.19 24.19 0 0 0 -10.09-2.06 39 39 0 0 0 -10.42 1.69 1.14 1.14 0 0 1 -.41.07 1.26 1.26 0 0 1 -1.25-1.25v-28.93a1.27 1.27 0 0 1 1.26-1.26h3.58v-4.19a1.25 1.25 0 0 1 1-1.22 19.9 19.9 0 0 1 10.84.83 13.93 13.93 0 0 1 6.25 4.56 14.54 14.54 0 0 1 6.25-4.36 21.91 21.91 0 0 1 10.83-1 1.26 1.26 0 0 1 1.08 1.24v4.19zm-15.74 28.39a26.87 26.87 0 0 1 8.32-1.21 37 37 0 0 1 9.32 1.12v-25.78h-1.91v20.59a1.25 1.25 0 0 1 -1.25 1.26 1.36 1.36 0 0 1 -.29 0 16 16 0 0 0 -8 .85 27.88 27.88 0 0 0 -6.17 3.23zm-3.73-2.69v-22.9a11.07 11.07 0 0 0 -5.84-4.8 15.52 15.52 0 0 0 -8-.89l-.14 24.4a21.84 21.84 0 0 1 8 1.14 21.51 21.51 0 0 1 6 3zm1.38-71.59a5.68 5.68 0 1 1 -5.68 5.68 5.68 5.68 0 0 1 5.68-5.68zm0-6.05a11.73 11.73 0 1 1 -11.73 11.74 11.73 11.73 0 0 1 11.73-11.69zm-54.81 88.78h6v-1a3.79 3.79 0 0 1 3.78-3.78v-40.76h-7.52v-8.26h104.8v8.26h-7.48v40.71a3.79 3.79 0 0 1 3.78 3.78v1h6.24a2.42 2.42 0 0 1 2.4 2.41v5.53h1.82a2.42 2.42 0 0 1 2.41 2.4v3a2.44 2.44 0 0 1 -2.41 2.41h-118.04a2.43 2.43 0 0 1 -2.41-2.35v-3a2.41 2.41 0 0 1 2.41-2.4h1.82v-5.53a2.42 2.42 0 0 1 2.41-2.41zm27.24 0h54.87v-1c0-.15 0-.3 0-.45a3.79 3.79 0 0 1 3.66-3.28v-40.81h-62.22v40.71a3.78 3.78 0 0 1 3.69 3.78v1z" fill-rule="evenodd"/></svg>