<svg enable-background="new 0 0 122.88 119.63" viewBox="0 0 122.88 119.63" xmlns="http://www.w3.org/2000/svg"><path d="m44.27 115.28h34.23l-17.8-37.78zm15.24-113.35c0-1.06.86-1.93 1.93-1.93 1.06 0 1.93.86 1.93 1.93v18.08l3.75 6.94 9.72-16.83c.53-.92 1.7-1.24 2.62-.71s1.24 1.7.71 2.62l-10.9 18.89 45.78 84.86h5.92c1.06 0 1.93.86 1.93 1.93 0 1.06-.86 1.93-1.93 1.93h-119.04c-1.06 0-1.93-.86-1.93-1.93 0-1.06.86-1.93 1.93-1.93h5.92l45.71-84.99-10.84-18.76c-.53-.92-.21-2.09.71-2.62s2.09-.21 2.62.71l9.64 16.69 3.83-7.12v-17.76z"/></svg>