<svg enable-background="new 0 0 77.78 122.88" viewBox="0 0 77.78 122.88" xmlns="http://www.w3.org/2000/svg"><path d="m3.05 87.53-2.89 10.53c-.36 1.32.41 2.74 1.72 3.14l10.08 3.11-10.08 3.11c-1.31.41-2.09 1.82-1.72 3.14l2.89 10.53c.36 1.32 1.73 2.08 3.04 1.67l32.83-10.13 32.83 10.13c1.31.41 2.68-.35 3.04-1.67l2.89-10.53c.36-1.32-.41-2.74-1.72-3.14l-10.08-3.11 10.08-3.11c1.31-.41 2.09-1.82 1.72-3.14l-2.88-10.53c-.36-1.32-1.73-2.07-3.04-1.67l-32.84 10.13-32.83-10.13c-1.31-.41-2.68.35-3.04 1.67zm8.98-65.72c1.44 10.24 3.67 17.99 7.46 20.86.07-3.47.42-6.89 1.09-10.23 2.19-10.94 5.71-11.53 9.09-19.62 1.66-3.97 2.12-8.21 1.11-12.82 12.13 2.1 23.39 20.38 26.22 43.63 3.02-3.94 4.83-8.5 5.17-13.78 5.35 5.48 8 11.99 8.99 19.14 2 13.68-2.2 22.54-13.3 26.05 2.47-5.67 1.9-10.05-.69-15.83-1.1-2.45-2.52-4.59-4.33-6.37-.79 5.62-2.02 9.87-4.09 11.45-.04-1.91-.23-3.78-.6-5.61-1.2-6.01-3.13-6.33-4.99-10.77-.91-2.18-1.16-4.51-.61-7.04-6.65 1.15-12.83 11.19-14.39 23.94-1.66-2.16-2.65-4.66-2.84-7.56-2.93 3-4.39 6.58-4.94 10.5-.55 3.77-.25 6.87.97 9.27-8.53-.98-14.26-5.73-17.88-13.41-5.19-11-4.26-19.19.65-30.18 2.01-4.47 4.61-8.37 7.91-11.62z"/></svg>