<svg xmlns="http://www.w3.org/2000/svg" shape-rendering="geometricPrecision" text-rendering="geometricPrecision" image-rendering="optimizeQuality" fill-rule="evenodd" clip-rule="evenodd" viewBox="0 0 356 512.168"><path fill-rule="nonzero" d="M299.676.144c.756 0 1.493.075 2.212.217 13.468 1.663 25.066 8.809 32.968 19.093 7.788 10.133 12.023 23.319 10.898 37.24 0 .69-.066 1.371-.189 2.033l-17.127 172.102.038.019c-.029.236-.057.463-.095.69a56 56 0 016.881 6.379c8.876 9.688 14.642 22.552 17.137 37.355 3.666 21.767 4.649 47.581 2.41 72.751-2.07 23.224-6.881 45.984-14.858 64.699-19.056 44.774-52.865 75.341-91.892 89.841a153.53 153.53 0 01-56.958 9.564c-19.518-.443-39.14-4.574-57.922-12.57-37.155-15.823-71.098-46.721-94.273-94.123-11.305-23.129-13.044-37.543-17.789-61.873a12.202 12.202 0 013.053-10.605L8.81 309.837c-12.627-19.017-10.557-38.696-.879-53.29 3.696-5.577 8.526-10.369 14.084-14.065 5.586-3.714 11.909-6.324 18.573-7.496a47.115 47.115 0 018.564-.727 48.374 48.374 0 01.576-15.236c2.334-11.74 8.988-22.543 19.159-29.642.52-.369 1.058-.718 1.597-1.068 11.078-7.06 23.848-8.591 35.804-5.547 11.787 2.986 22.817 10.5 30.521 21.53l2.826 4.046-30.181-136.684c-3.109-14.066-.624-28.082 5.946-39.33C122.101 20.844 133.047 12.157 146.705 9v-.019c.312-.075.624-.132.936-.179 13.336-2.798 26.683.274 37.543 7.542 10.879 7.279 19.244 18.801 22.476 32.817l.028-.009c.057.265.104.529.152.784 6.72 29.217 13.129 58.839 19.538 88.462 2.06 9.527 4.13 19.055 6.172 28.469l11.768-118.15c.009-.69.085-1.37.208-2.031 1.663-13.857 8.393-25.927 17.986-34.293C273.333 3.83 286.141-.905 299.676.144z"/><path fill="#FDD0BF" fill-rule="nonzero" d="M101.323 308.887a50.534 50.534 0 003.165 3.403c.694.624 1.848 2.201 3.089 4.046 1.999 2.972 4.25 6.639 5.083 8.015 4.186 6.918 5.369 15.104 3.791 22.676-1.554 7.458-5.785 14.33-12.459 18.834l-.358.249c-.446.313-.92.641-1.478.882-7.259 4.139-15.166 4.528-22.44 2.318-7.964-2.418-15.17-7.969-19.909-15.107l-36.05-54.263c-8.751-13.193-7.477-29.358 4.902-40.052 4.654-4.02 10.453-6.723 16.544-7.416 9.665-1.1 15.621 3.51 22.695 8.948l30.244 43.329.232.306a50.247 50.247 0 002.949 3.832zm73.07-276.981c7.071 4.696 12.438 12.192 14.598 20.732.107.551.243 1.059.378 1.6 3.157 13.721 6.36 28.097 9.586 42.794 3.243 14.786 6.53 29.973 9.813 45.155l7.89 36.315a6064.107 6064.107 0 006.906 31.309 5.528 5.528 0 01.089 2.814l-.02.078a5.454 5.454 0 01-2.415 3.32 5.458 5.458 0 01-4.126.684c-8.719-2.048-17.43-2.695-25.692-1.293-7.368 1.25-14.403 4.135-20.793 9.11l-.011.01a5.51 5.51 0 01-1.021.633 5.267 5.267 0 01-1.165.397 5.44 5.44 0 01-4.106-.728 5.433 5.433 0 01-2.391-3.418l-33.97-153.84c-1.882-8.531-.571-17.625 3.509-25.056 8.632-15.717 27.983-20.548 42.941-10.616zM326.84 55.492a7.732 7.732 0 01-.104.946c-1.475 33.931-5.874 71.632-10.142 108.221-2.091 17.922-4.152 35.581-5.8 52.157a5.436 5.436 0 01-1.968 3.68 5.454 5.454 0 01-3.995 1.215l-51.692-5.142a5.44 5.44 0 01-3.68-1.969 5.452 5.452 0 01-1.215-3.994l15.987-160.603a8.16 8.16 0 01.091-.833l.03-.426c1.08-8.666 5.397-16.669 11.729-22.185l.099-.08c13.567-11.726 33.264-9.52 43.939 4.895 4.983 6.728 7.49 15.438 6.721 24.118zM130.489 327.158a5.414 5.414 0 013.915-1.448c7.915.326 15.429-1.683 21.859-5.511 6.531-3.889 11.958-9.665 15.56-16.78.258-.469.445-.719.769-1.133a5.449 5.449 0 017.695-.513c5.637 4.938 12.245 8.855 19.163 11.707a5.39 5.39 0 012.522 2.116 5.44 5.44 0 01.726 4.106 5.44 5.44 0 01-2.393 3.417c-3.756 2.391-6.58 4.832-8.701 7.449-2.089 2.578-3.507 5.354-4.48 8.448-1.054 3.351-1.645 7.178-2.011 11.567-.378 4.536-.521 9.535-.678 15.198-.128 4.155-.774 8.318 3.847 10.411a6.699 6.699 0 002.554.596c6.478.175 7.068-5.515 7.068-10.563l.01-.172c.174-6.199.324-11.272 1.35-15.782 1.066-4.684 3.05-8.695 6.893-12.552 3.299-3.311 7.931-6.297 14.583-9.318 6.509-2.955 15.011-5.973 26.173-9.404l5.513-2.426c2.248-.989 3.187-2.536 3.179-5.252a6.768 6.768 0 00-3.482-5.904c-2.169-1.204-4.427-.761-6.805-.296-.681.134-1.375.271-2.121.382-10.29 1.541-21.603.903-32.045-2.166-28.448-8.355-42.666-31.254-33.623-61.373l.046-.132a5.453 5.453 0 015.103-3.759l15.842-.274c11.848-.209 22.807-.405 32.898-.54 21.08-.282 45.928-1.178 66.754 1.624 11.657 1.565 21.124 7.482 27.553 17.587 4.159 6.535 6.665 14.209 7.966 21.923 2.663 15.801 3.772 33.079 3.317 50.305-1.252 47.317-12.658 91.315-47.536 125.537-13.497 13.246-29.635 23.759-48.027 30.591a134.2 134.2 0 01-50.43 8.37c-55.253-1.491-103.068-35.481-128.185-83.629-5.39-10.328-9.87-21.255-13.603-32.624a5.497 5.497 0 01-.236-2.884 5.448 5.448 0 011.286-2.619c2-2.262 5.461-2.457 7.715-.456a50.35 50.35 0 005.249 4.104c9.073 6.146 19.424 8.693 29.25 7.735 12.221-1.191 22.785-7.704 29.563-17.724a43.89 43.89 0 006.632-15.773 44.371 44.371 0 00.688-13.4c-.317-3.145-1.669-6.19 1.115-8.766zm-16.257-23.042l-24.413-36.738-3.518-5.293c-4.813-7.256-11.313-11.037-14.796-17.417-.201.126-1.587-2.641-1.745-2.97-2.868-5.953-3.639-12.688-2.443-19.024 1.382-7.325 5.388-14.137 11.815-18.628.345-.234.708-.486 1.064-.701 6.948-4.39 14.705-5.051 21.922-3.112 7.925 2.127 15.209 7.412 20.026 14.318l3.959 5.663c9.068 12.966 29.799 42.612 32.997 47.661l.167-.106c2.445 3.837 3.914 8.129 4.442 12.497a31.303 31.303 0 01-1.3 13.38c-1.99 6.121-5.774 11.227-10.688 14.689-4.822 3.399-10.731 5.216-17.094 4.861-3.447-.192-6.876-1.006-10.125-2.336a35.353 35.353 0 01-9.224-5.568l-.104-.096a5.605 5.605 0 01-.942-1.08z"/><path fill="none" d="M264.231 50.003a8.16 8.16 0 01.091-.833l.03-.426c1.08-8.666 5.397-16.669 11.729-22.185l.099-.08"/><path fill="#FEDECF" fill-rule="nonzero" d="M101.323 308.887a50.534 50.534 0 003.165 3.403c.694.624 1.848 2.201 3.089 4.046 1.999 2.972 4.25 6.639 5.083 8.015 4.186 6.918 5.369 15.104 3.791 22.676-1.554 7.458-5.785 14.33-12.459 18.834l-.358.249c-.446.313-.92.641-1.478.882-10.452 5.959-32.426-9.593-37.66-17.478L28.447 295.25c-17.228-25.97 20.45-51.55 39.451-29.141l30.244 38.64.232.306a50.247 50.247 0 002.949 3.832zm73.07-267.602c7.071 4.696 12.438 12.192 14.598 20.732.107.551.243 1.059.378 1.6 3.157 13.721 6.36 18.718 9.586 33.415 3.243 14.786 6.53 29.973 9.813 45.155l7.89 36.315a6064.107 6064.107 0 006.906 31.309 5.528 5.528 0 01.089 2.814l-.02.078a5.454 5.454 0 01-2.415 3.32 5.458 5.458 0 01-4.126.684c-27.871 1.029-18.275-4.471-38.637 2.103l-.012.01a5.469 5.469 0 01-1.02.633 5.258 5.258 0 01-1.166.397 5.437 5.437 0 01-4.105-.728 5.427 5.427 0 01-2.391-3.418L137.322 67.578c-4.484-20.32 13.089-42.217 37.071-26.293zM326.84 64.871a7.732 7.732 0 01-.104.946c-1.475 33.931-5.874 62.253-10.142 98.842-2.091 17.922-4.152 35.581-5.8 52.157a5.436 5.436 0 01-1.968 3.68 5.454 5.454 0 01-3.995 1.215l-42.313-5.142a5.44 5.44 0 01-3.68-1.969 5.452 5.452 0 01-1.215-3.994L273.61 50.003a8.16 8.16 0 01.091-.833l.03-.426c5.425-43.537 56.899-26.637 53.109 16.127zM144.557 336.537a5.416 5.416 0 013.916-1.448c7.915.326 1.36-11.062 7.79-14.89 6.531-3.889 11.958-9.665 15.56-16.78.258-.469.445-.719.769-1.133a5.449 5.449 0 017.695-.513c5.637 4.938 12.245 8.855 19.163 11.707a5.39 5.39 0 012.522 2.116 5.44 5.44 0 01.726 4.106 5.44 5.44 0 01-2.393 3.417c-3.756 2.391-6.58 4.832-8.701 7.449-2.089 2.578-3.507 5.354-4.48 8.448-1.054 3.351-1.645 7.178-2.011 11.567-.378 4.536-.521 9.535-.678 15.198-.128 4.155-.774 8.318 3.847 10.411a6.699 6.699 0 002.554.596c6.478.175 7.068-5.515 7.068-10.563l.01-.172c.174-6.199.324-11.272 1.35-15.782 1.066-4.684 3.05-8.695 6.893-12.552 3.299-3.311 7.931-6.297 14.583-9.318 6.509-2.955 15.011-5.973 26.173-9.404l5.513-2.426c2.248-.989 3.187-2.536 3.179-5.252a6.768 6.768 0 00-3.482-5.904c-2.169-1.204-4.427-.761-6.805-.296-.681.134-1.375.271-2.121.382-10.29 1.541-21.603-3.787-32.045-6.855-28.448-8.356-33.287-17.186-24.244-47.305l.046-.132a5.453 5.453 0 015.103-3.759l15.842-.274c11.848-.209 22.807-.405 32.898-.54 21.08-.282 36.549-1.178 57.375 1.624 13.294 1.785 33.398 17.556 35.519 30.131 2.663 15.801 3.772 33.079 3.317 50.305-1.252 47.317-12.658 77.246-47.536 111.469-13.497 13.245-29.635 23.758-48.027 30.591a134.24 134.24 0 01-50.43 8.37c-60.817-4.987-93.946-27.048-127.719-92.807a5.453 5.453 0 011.049-5.502c2-2.262 5.461-2.457 7.715-.456a50.255 50.255 0 005.25 4.104c9.073 6.146 19.423 8.693 29.25 7.735 12.22-1.191 22.784-7.704 29.562-17.724a43.877 43.877 0 006.632-15.774 44.463 44.463 0 00.688-13.399c-.315-3.143-1.668-6.19 1.115-8.766zm-23.997-38.749l-21.363-30.41-3.517-5.293c-4.813-7.256-11.313-11.037-14.796-17.417-.201.126-1.587-2.642-1.745-2.97-2.867-5.953-3.639-12.688-2.444-19.024-.395-19.936 36.347-23.338 45.449-8.123l3.959 5.663c9.068 12.966 29.799 42.612 32.997 47.661l.167-.106c2.445 3.837 3.914 8.129 4.442 12.497a31.303 31.303 0 01-1.3 13.38c-2.131 5.932-15.379 13.56-21.455 13.222-3.447-.193-6.876-1.007-10.125-2.336a35.397 35.397 0 01-9.224-5.568l-.104-.096a5.451 5.451 0 01-.941-1.08z"/></svg>