<svg enable-background="new 0 0 122.88 74.39" viewBox="0 0 122.88 74.39" xmlns="http://www.w3.org/2000/svg"><path clip-rule="evenodd" d="m89.62 15-.02 1.92c.32-.28.81-.3 1.15-.02.38.31.44.87.13 1.25l-1.06 1.31c-.07.09-.16.16-.25.22l-.13 14.32c.2-.08.39-.17.56-.27.38-.23.74-.56 1.06-.98.77-1.02 1.18-2.04 1.4-3.13-.07-.05-.13-.1-.18-.17l-1.07-1.31c-.31-.39-.25-.95.13-1.26.39-.31.95-.25 1.26.14l.08.1c.01-.56 0-1.15 0-1.76v-.27c-.16-.05-.3-.15-.41-.29l-1.07-1.31c-.31-.38-.25-.95.14-1.26.38-.31.95-.25 1.25.13l.06.07v-.81c0-2.42 1.97-4.39 4.39-4.39s4.39 1.97 4.39 4.39v1.21c.32-.26.79-.27 1.13 0 .38.31.44.87.13 1.26l-1.06 1.31c-.06.07-.13.14-.2.18.01.65.01 1.28 0 1.9.32-.26.79-.27 1.13 0 .38.31.44.87.13 1.26l-1.06 1.31c-.1.12-.22.22-.36.27-.3 2.49-1.11 4.9-3.22 7.7-.99 1.32-2.18 2.39-3.56 3.22-1.36.82-2.85 1.36-4.46 1.65-.22.04-.45.06-.67.06l-.16 12.89.1-.01c10.61-.52 21.75.53 32.17 4.43 1.12.42 1.69 1.66 1.27 2.79-.42 1.12-1.66 1.69-2.79 1.27-9.8-3.67-20.36-4.66-30.46-4.16-14.03.69-27.14 4.26-36.15 7.54-1.13.41-2.37-.17-2.78-1.3s.17-2.37 1.3-2.78c3.68-1.34 8.02-2.72 12.83-3.95-9.75-2.05-19.26-2.27-28.47-.6-11.36 2.06-22.32 6.99-32.76 14.89-.96.72-2.32.53-3.04-.42-.72-.96-.53-2.32.42-3.04 10.98-8.31 22.55-13.5 34.61-15.68 12.2-2.21 24.84-1.31 37.81 2.58.21.06.4.15.58.27.9-.16 1.81-.32 2.72-.47l-.08-6.37c-.45.06-.92.06-1.39-.02-1.61-.29-3.1-.83-4.46-1.65-1.38-.82-2.57-1.89-3.56-3.22-1.9-2.52-2.75-5.1-3.11-7.69-.23-.02-.45-.13-.61-.33l-1.07-1.31c-.31-.38-.25-.95.14-1.26.38-.31.95-.25 1.26.14l.05.05c-.03-.67-.04-1.34-.04-2.02-.13-.06-.24-.14-.33-.26l-1.07-1.32c-.31-.38-.25-.95.14-1.26.38-.31.95-.25 1.26.14l.01.01v-.48-.65c-.13-.06-.25-.14-.34-.26l-1.06-1.31c-.31-.38-.25-.95.14-1.25.38-.31.95-.25 1.26.13l.01.01v-1.97c-.13-.06-.25-.14-.34-.26l-1.07-1.32c-.31-.38-.25-.95.13-1.25.38-.31.95-.25 1.25.13l.15.19c.49-1.88 2.21-3.27 4.24-3.27 2.02 0 3.72 1.36 4.23 3.22l.11-.13c.31-.38.87-.44 1.25-.13s.44.87.14 1.25l-1.06 1.32c-.08.1-.17.17-.28.23v1.93c.32-.33.84-.37 1.21-.08.38.31.44.87.13 1.25l-1.06 1.32c-.08.1-.17.17-.28.23v.68.41c.32-.33.84-.37 1.2-.08.38.31.44.87.14 1.26l-1.06 1.32c-.09.11-.19.19-.31.25 0 .64.02 1.27.06 1.89.32-.31.82-.34 1.18-.06.38.31.44.87.14 1.25l-.99 1.22c.24 1.05.63 2.01 1.25 2.84.32.43.68.76 1.06.98.35.21.77.37 1.26.47l-.24-22.43c-.1-.05-.19-.13-.26-.22l-1.06-1.32c-.31-.38-.25-.95.13-1.25.35-.28.83-.26 1.15.03l-.01-1.92c-.08-.05-.15-.11-.21-.19l-1.06-1.31c-.31-.38-.25-.95.13-1.25.36-.29.87-.25 1.19.06 1.01-7.81 12.37-7.8 13.39 0 .32-.32.83-.36 1.19-.07.38.31.44.87.14 1.25l-1.07 1.31c-.03.09-.1.15-.18.2zm-62.55-10.85c-.34-.59-.14-1.35.45-1.69s1.35-.14 1.69.45l1.59 2.75c.34.59.14 1.35-.45 1.69s-1.35.14-1.69-.45zm9.87 4.07c3.05 0 5.82 1.24 7.82 3.24s3.24 4.77 3.24 7.82-1.24 5.82-3.24 7.82-4.77 3.24-7.82 3.24c-3.06 0-5.82-1.24-7.82-3.24s-3.24-4.77-3.24-7.82 1.24-5.82 3.24-7.82 4.77-3.24 7.82-3.24zm6.16 4.92c-1.57-1.57-3.75-2.55-6.15-2.55s-4.58.97-6.15 2.55c-1.57 1.57-2.55 3.75-2.55 6.15s.97 4.58 2.55 6.15c1.57 1.57 3.75 2.55 6.15 2.55s4.58-.97 6.15-2.55c1.57-1.57 2.55-3.75 2.55-6.15-.01-2.41-.98-4.58-2.55-6.15zm-7.14-11.9c0-.69.55-1.24 1.24-1.24s1.24.55 1.24 1.24v3.17c0 .69-.55 1.24-1.24 1.24-.68 0-1.24-.55-1.24-1.24zm9.16 1.93c.34-.59 1.09-.79 1.68-.46.59.34.79 1.09.46 1.69l-1.59 2.75c-.34.59-1.09.8-1.68.46s-.79-1.09-.46-1.68zm6.96 6.24c.59-.34 1.35-.14 1.69.45s.14 1.35-.45 1.69l-2.75 1.59c-.59.34-1.35.14-1.69-.45s-.14-1.35.45-1.69zm2.91 8.89c.69 0 1.24.55 1.24 1.24 0 .68-.55 1.24-1.24 1.24h-3.17c-.69 0-1.24-.55-1.24-1.24s.55-1.24 1.24-1.24zm-1.93 9.17c.59.34.79 1.09.45 1.68s-1.09.79-1.68.46l-2.75-1.59c-.59-.34-.8-1.09-.46-1.68s1.09-.79 1.68-.46zm-6.24 6.96c.34.59.14 1.35-.45 1.69s-1.35.14-1.69-.45l-1.59-2.75c-.34-.59-.14-1.35.45-1.69s1.35-.14 1.69.45zm-8.89 2.91c0 .68-.55 1.24-1.24 1.24-.68 0-1.24-.55-1.24-1.24v-3.18c0-.69.56-1.24 1.24-1.24.69 0 1.24.55 1.24 1.24zm-9.16-1.93c-.34.59-1.09.79-1.68.46-.59-.34-.79-1.09-.46-1.69l1.59-2.75c.34-.59 1.09-.8 1.68-.46s.79 1.09.46 1.68zm-6.97-6.25c-.59.34-1.35.14-1.69-.45s-.14-1.35.45-1.69l2.75-1.59c.59-.34 1.35-.14 1.69.45s.14 1.35-.45 1.69zm-2.91-8.89c-.68 0-1.24-.55-1.24-1.24 0-.68.55-1.24 1.24-1.24h3.18c.68 0 1.24.55 1.24 1.24s-.56 1.24-1.24 1.24zm1.93-9.16c-.59-.34-.8-1.09-.46-1.68s1.09-.79 1.68-.46l2.75 1.59c.59.34.79 1.09.46 1.68-.34.59-1.09.79-1.68.46z" fill-rule="evenodd"/></svg>