<svg enable-background="new 0 0 122.88 81.49" viewBox="0 0 122.88 81.49" xmlns="http://www.w3.org/2000/svg"><path d="m27.41 64.65c1.91.45 9.12.95 12.04.94l3.64-33.71c-.94-1.01-1.66-2-2.16-2.98-1.65-3.16-1.35-6.11.15-8.78 1.3-2.31 3.53-4.31 6.13-6 3.94-2.57 8.8-4.47 12.19-5.52 1.69-.53 3.5-.98 5.41-1.35-1.74-.1-2.87-.19-3.05-.22-6.49.04-12.81.83-17.86 2.41-3.06.96-7.41 2.65-10.85 4.89-1.92 1.25-3.52 2.64-4.35 4.12-.62 1.11-.75 2.33-.07 3.63.39.76 1.01 1.55 1.88 2.38.69.56 1.09 1.44.99 2.39zm64.88-31.59c1.07.66 1.28 2.26.47 3.58s-2.34 1.86-3.41 1.2-1.28-2.26-.47-3.58 2.34-1.86 3.41-1.2zm-8.84-5.34c.4.24.47.84.17 1.32-.3.49-.86.69-1.26.44-.4-.24-.47-.84-.17-1.32s.86-.68 1.26-.44zm-3.27 10c.78.48.93 1.64.34 2.6s-1.69 1.35-2.47.87-.93-1.64-.34-2.6 1.69-1.35 2.47-.87zm17.63 4.79c.78.48.93 1.64.34 2.6s-1.69 1.35-2.47.87-.93-1.64-.34-2.6 1.7-1.35 2.47-.87zm8.09-7.45c.8.49.96 1.7.35 2.69s-1.76 1.4-2.56.9c-.8-.49-.96-1.7-.35-2.69s1.76-1.39 2.56-.9zm-3.86-8.05c.8.49.96 1.7.35 2.69s-1.76 1.4-2.56.9c-.8-.49-.96-1.7-.35-2.69s1.76-1.39 2.56-.9zm-63.17 44.04-14.52.69c-8.25.39-12.78-2.41-21.51-1.99-1.5.07-2.77-1.08-2.84-2.57 0-.14 0-.28.01-.42l4.45-41.2c-.94-1.01-1.66-2-2.16-2.98-1.65-3.16-1.35-6.11.15-8.78 6.71-11.92 20.22-13.31 32.46-13.55 4.28-.27 8.86-.32 13.4-.17 3.73.13 7.45.4 10.98.81 13.77.91 26.69 2.69 32.24 4.99.62.25 1 .48 1.18.68 5.9.71 11.49 2.01 16.03 3.88 1.04.43 1.67 1.43 1.68 2.49 1.9.42 3.71.96 5.41 1.67.48.2.93.42 1.36.66.06.03.11.06.16.1 2.63 1.55 4.32 3.89 5.08 6.52.75 2.61.57 5.51-.54 8.18-.15.36-.31.72-.49 1.06l-7.65 40.43c-.22 1.17-1.16 2.02-2.28 2.18l-54.33 7.72c-1.48.21-2.85-.82-3.06-2.3-.04-.26-.04-.52 0-.77l.45-3.09c-4.39.33-8.71.49-13.03.76-1.49.09-2.78-1.04-2.87-2.53-.01-.18 0-.36.02-.53zm14.28-1.16c.2-.01.41 0 .6.03l.39-.03c.41-.03.8.03 1.16.17l4.69-32.06c-.92-.99-1.62-1.97-2.12-2.93-1.65-3.16-1.35-6.11.15-8.78 1.3-2.31 3.53-4.31 6.13-6 3.94-2.57 8.8-4.47 12.19-5.52 3.15-.98 6.33-1.59 9.48-1.99 2.12-.27 4.17-.44 6.15-.58-9.19-1.44-19.29-.96-27.36 1.56-3.06.96-7.41 2.65-10.85 4.89-1.92 1.25-3.52 2.64-4.35 4.12-.62 1.11-.75 2.33-.07 3.63.39.76 1.01 1.55 1.88 2.38.69.56 1.09 1.44.99 2.39l-4.21 39.11zm16.74-32.44-5.58 39.87 45.79-6.51 7.37-41.1c.05-.29.16-.57.31-.84.16-.29.31-.58.42-.87 1-2.42.64-6.73-1.81-8.19-.04-.02-.08-.04-.13-.07-.24-.13-.49-.26-.74-.36-11.28-2.79-38.85.46-47.33 9.55-.62 1.11-.75 2.33-.07 3.63.91 1.79 2.13 2.42 1.77 4.89z"/></svg>