<svg enable-background="new 0 0 122.88 61.06" viewBox="0 0 122.88 61.06" xmlns="http://www.w3.org/2000/svg"><path d="m61.49 16.21c12.39 0 23.6 5.02 31.71 13.14 8.12 8.12 13.14 19.33 13.14 31.71h-7.06c0-10.44-4.23-19.89-11.07-26.72-6.84-6.84-16.29-11.07-26.72-11.07-10.44 0-19.89 4.23-26.72 11.07-6.84 6.83-11.07 16.28-11.07 26.72h-7.06c0-12.39 5.02-23.6 13.14-31.71 8.11-8.12 19.33-13.14 31.71-13.14z" fill="#f20000"/><path d="m61.49 23.18c10.46 0 19.93 4.24 26.79 11.1s11.1 16.33 11.1 26.79h-5.96c0-8.81-3.57-16.8-9.35-22.57-5.78-5.78-13.76-9.35-22.57-9.35s-16.8 3.57-22.57 9.35c-5.78 5.78-9.35 13.76-9.35 22.57h-5.96c0-10.46 4.24-19.93 11.1-26.79 6.84-6.86 16.31-11.1 26.77-11.1z" fill="#ff6a00"/><path d="m61.49 29.06c8.84 0 16.84 3.58 22.63 9.37s9.37 13.79 9.37 22.63h-5.03c0-7.45-3.02-14.19-7.9-19.07s-11.62-7.9-19.07-7.9-14.19 3.02-19.07 7.9-7.9 11.62-7.9 19.07h-5.03c0-8.84 3.58-16.84 9.37-22.63 5.8-5.79 13.8-9.37 22.63-9.37z" fill="#fdee21"/><path d="m61.49 34.03c7.46 0 14.22 3.02 19.11 7.92 4.89 4.89 7.92 11.65 7.92 19.11h-4.25c0-6.29-2.55-11.98-6.67-16.1s-9.81-6.67-16.1-6.67-11.98 2.55-16.1 6.67-6.67 9.81-6.67 16.1h-4.25c0-7.46 3.02-14.22 7.92-19.11 4.87-4.89 11.63-7.92 19.09-7.92z" fill="#6ec700"/><path d="m61.49 38.23c6.3 0 12.01 2.55 16.14 6.69 4.13 4.13 6.69 9.84 6.69 16.14h-3.59c0-5.31-2.15-10.12-5.63-13.6s-8.29-5.63-13.6-5.63-10.12 2.15-13.6 5.63-5.63 8.29-5.63 13.6h-3.59c0-6.3 2.55-12.01 6.69-16.14 4.11-4.13 9.82-6.69 16.12-6.69z" fill="#29aae3"/><path d="m61.49 41.78c5.32 0 10.14 2.16 13.63 5.65s5.65 8.31 5.65 13.63h-3.03c0-4.49-1.82-8.55-4.76-11.49s-7-4.76-11.49-4.76-8.55 1.82-11.49 4.76-4.76 7-4.76 11.49h-3.03c0-5.32 2.16-10.15 5.65-13.63 3.49-3.49 8.31-5.65 13.63-5.65z" fill="#3d44db"/><path d="m61.49 44.77c4.5 0 8.57 1.82 11.52 4.77s4.77 7.02 4.77 11.52h-2.56c0-3.79-1.54-7.22-4.02-9.7s-5.91-4.02-9.7-4.02-7.22 1.54-9.7 4.02-4.02 5.91-4.02 9.7h-2.56c0-4.5 1.82-8.57 4.77-11.52 2.93-2.94 7-4.77 11.5-4.77z" fill="#8327de"/><path d="m11.16 44.72c1.8.48 2.88 2.34 2.4 4.14s-2.34 2.88-4.14 2.4l-6.9-1.85c-1.8-.48-2.88-2.34-2.4-4.14s2.34-2.88 4.14-2.39z" fill="#f20000"/><path d="m26.29 21.8c1.32 1.32 1.32 3.47 0 4.79s-3.47 1.32-4.79 0l-5.05-5.05c-1.32-1.32-1.32-3.47 0-4.79s3.47-1.32 4.79 0z" fill="#ff6a00"/><path d="m50.85 9.52c.48 1.8-.59 3.66-2.39 4.14s-3.66-.59-4.14-2.39l-1.85-6.9c-.48-1.8.59-3.66 2.39-4.14 1.8-.48 3.66.59 4.14 2.39z" fill="#ffae00"/><path d="m78.27 11.16c-.48 1.8-2.34 2.88-4.14 2.4s-2.88-2.34-2.39-4.14l1.85-6.9c.48-1.8 2.34-2.88 4.14-2.4s2.88 2.34 2.39 4.14z" fill="#3ab54a"/><path d="m101.19 26.29c-1.32 1.32-3.47 1.32-4.79 0s-1.32-3.47 0-4.79l5.05-5.05c1.32-1.32 3.47-1.32 4.79 0s1.32 3.47 0 4.79z" fill="#29aae3"/><path d="m113.47 50.85c-1.8.48-3.66-.59-4.14-2.4-.48-1.8.59-3.66 2.4-4.14l6.9-1.85c1.8-.48 3.66.59 4.14 2.4.48 1.8-.59 3.66-2.4 4.14z" fill="#662d91"/></svg>