<svg clip-rule="evenodd" fill-rule="evenodd" image-rendering="optimizeQuality" shape-rendering="geometricPrecision" text-rendering="geometricPrecision" viewBox="0 0 448 511.653" xmlns="http://www.w3.org/2000/svg"><path d="m415.701 428.636c-101.803 39.09-258.047 38.246-382.498.634l192.823-417.92z" fill="#ffdb56"/><path d="m415.701 428.636c-23.176 8.898-49.18 15.722-76.982 20.519l-155.54-344.939 42.847-92.866z" fill="#f6c134"/><circle cx="224" cy="41.587" fill="#d83636" r="41.587"/><g fill="#f2433b"><path d="m224 0 .231.003c8.091 6.805 13.235 17.002 13.235 28.402 0 20.489-16.61 37.099-37.098 37.099-4.062 0-7.97-.654-11.628-1.861a41.387 41.387 0 0 1 -6.327-22.056c0-22.968 18.619-41.587 41.587-41.587zm-117.967 271.422 38.447-83.331c46.821-17.884 89.672-37.448 134.774-59.638l2.511 5.524 22.558 51.606c-59.618 38.329-126.666 65.517-198.29 85.839zm236.864-2.955 5.305 11.668c-99.515 68.777-202.185 108.344-303.959 125.893l36.923-80.5c79.854-19.696 160.017-49.488 240.864-101.904zm22.705 49.951 2.244 4.934 22.921 50.9c-25.624 19.277-49.588 35.363-72.082 48.622-24.62 14.511-47.48 27.154-68.826 35.368-61.399 1.62-117.513-4.086-166.093-16.272 92.971-19.57 187.878-59.605 281.836-123.552z"/><path d="m19.339 480.469c-14.64-4.699-22.698-20.379-17.999-35.018 4.699-14.64 20.378-22.698 35.017-17.999 58.268 18.731 124.959 28.591 191.461 28.567 64.05-.026 127.699-9.224 183.169-28.504 14.52-5.061 30.393 2.607 35.454 17.127s-2.607 30.394-17.127 35.454c-61.413 21.346-131.404 31.529-201.496 31.557-72.255.028-144.873-10.737-208.479-31.184z" fill-rule="nonzero"/></g></svg>