<svg enable-background="new 0 0 122.78 122.88" viewBox="0 0 122.78 122.88" xmlns="http://www.w3.org/2000/svg"><path d="m40.8 89.83c.91.67 1.1 1.96.43 2.87s-1.96 1.1-2.87.43c-1.46-1.09-2.89-2.33-4.22-3.68-1.33-1.34-2.59-2.81-3.73-4.36-.67-.91-.48-2.2.43-2.87s2.2-.48 2.87.43c1 1.35 2.13 2.67 3.36 3.91 1.18 1.21 2.44 2.32 3.73 3.27zm-6.57-27.83c-4.6-1.25-9.21-1.44-13.41-.52-3.98.87-7.6 2.73-10.5 5.63-4.89 4.89-6.84 11.83-6.03 19.11.82 7.43 4.5 15.2 10.84 21.54 6.34 6.34 14.11 10.02 21.54 10.84 7.27.8 14.22-1.14 19.1-6.03 2.87-2.87 4.72-6.43 5.6-10.34.93-4.13.79-8.67-.39-13.2-.28-1.1.37-2.22 1.47-2.5.17-.04.34-.07.51-.07 2.17-.07 4.26-.5 6.19-1.3 1.83-.76 3.52-1.86 4.98-3.32 3.05-3.05 4.57-7.17 4.63-11.57.06-4.62-1.47-9.55-4.5-13.94-.57-.83-.45-1.93.24-2.62l21.13-21.14c.8-.8 2.11-.8 2.91 0l1.09 1.09 5.83-5.83c.05-.07.11-.14.18-.2.06-.06.13-.12.2-.18l7.71-7.71c.05-.07.11-.14.18-.2.06-.06.13-.12.2-.18l2.83-2.83-10.42-10.4-17.13 17.12 1.09 1.09c.8.8.8 2.11 0 2.91l-21.2 21.22c-.73.73-1.89.8-2.69.19-4.34-2.84-9.15-4.25-13.64-4.14-4.31.11-8.34 1.62-11.34 4.62-1.43 1.43-2.52 3.08-3.28 4.87-.8 1.89-1.24 3.95-1.33 6.09-.05 1.13-1.01 2.01-2.14 1.96-.16 0-.31-.02-.45-.06zm-14.28-4.54c4.12-.9 8.55-.88 13 .02.27-1.75.74-3.45 1.41-5.05.97-2.3 2.35-4.39 4.15-6.19 3.77-3.77 8.8-5.68 14.16-5.81 4.85-.12 9.98 1.23 14.67 3.98l18.6-18.6-1.09-1.09c-.8-.8-.8-2.11 0-2.91l6.01-6.01-4.18-4.18c-.8-.8-.8-2.11 0-2.91s2.11-.8 2.91 0l4.18 4.18 5.18-5.18-4.18-4.18c-.8-.8-.8-2.11 0-2.91.8-.8 2.11-.8 2.91 0l4.18 4.18 3.02-3.02c.8-.8 2.11-.8 2.91 0l13.33 13.33c.8.8.8 2.11 0 2.91l-3.02 3.02 4.08 4.08c.8.8.8 2.11 0 2.91s-2.11.8-2.91 0l-4.08-4.08-5.18 5.18 4.08 4.08c.8.8.8 2.11 0 2.91s-2.11.8-2.91 0l-4.08-4.08-6.01 6.01c-.8.8-2.11.8-2.91 0l-1.09-1.09-18.52 18.49c2.89 4.74 4.34 9.94 4.28 14.88-.07 5.46-1.98 10.59-5.82 14.43-1.84 1.84-3.98 3.23-6.33 4.2-1.66.68-3.41 1.15-5.22 1.4.83 4.38.8 8.72-.11 12.77-1.05 4.67-3.27 8.92-6.69 12.35-5.81 5.81-13.97 8.14-22.46 7.21-8.33-.92-16.99-4.99-24-12.01-7.02-7.02-11.09-15.67-12.01-24-.94-8.49 1.39-16.65 7.21-22.46 3.47-3.5 7.79-5.73 12.53-6.76zm39.83 5.64c-1.08-1.08-2.5-1.62-3.92-1.62s-2.84.54-3.92 1.62c-1.08 1.08-1.62 2.5-1.62 3.92s.54 2.84 1.62 3.92c1.08 1.08 2.5 1.62 3.92 1.62s2.84-.54 3.92-1.62 1.62-2.5 1.62-3.92-.54-2.84-1.62-3.92zm-3.92-5.74c2.47 0 4.94.94 6.83 2.83s2.83 4.36 2.83 6.83-.94 4.94-2.83 6.83-4.36 2.83-6.83 2.83-4.94-.94-6.83-2.83c-1.89-1.89-2.83-4.36-2.83-6.83s.94-4.94 2.83-6.83c1.89-1.89 4.36-2.83 6.83-2.83zm-8.39 25.8c.91.67 1.1 1.96.43 2.87s-1.96 1.1-2.87.43c-1.46-1.09-2.89-2.33-4.22-3.68-1.33-1.34-2.59-2.81-3.73-4.36-.68-.91-.48-2.2.43-2.87.91-.68 2.2-.48 2.87.43 1 1.35 2.13 2.67 3.36 3.91 1.18 1.21 2.44 2.31 3.73 3.27z"/></svg>