<svg xmlns="http://www.w3.org/2000/svg" shape-rendering="geometricPrecision" text-rendering="geometricPrecision" image-rendering="optimizeQuality" fill-rule="evenodd" clip-rule="evenodd" viewBox="0 0 512 431.536"><path fill="#717F88" d="M466.961 106.067L512 151.106l-89.367 89.367-45.039-45.038z"/><path fill="#5D6970" d="M398.883 174.143l45.041 45.041-21.291 21.291-45.038-45.041z"/><path fill="#5D6970" d="M466.961 106.067l-.584-.583c-14.354 6.312-31.722 3.593-43.479-8.163-11.755-11.756-14.474-29.124-8.163-43.479l-.326-.327-88.605 88.604c14.58-7.019 32.604-4.487 44.694 7.603 12.372 12.372 14.735 30.962 7.094 45.711l.002.002 89.367-89.368z"/><path fill="#717F88" d="M156.315 311.608l-37.135-37.135L293.663 99.99c-20.816-25.623-57.624-33.332-96.657-12.331l-34.698-34.698c73.885-73.884 182.295-67.443 252.101.554L156.315 311.608z"/><path fill="#5D6970" d="M293.664 99.991c-20.818-25.625-57.623-33.332-96.657-12.333l-34.698-34.697c0-5.676 88.84-45.258 158.643 22.741l-27.288 24.289z"/><path fill="#B58058" d="M241.21 253.237L76.556 417.891c-41.959 41.959-104.005-22.514-63.259-63.259l164.654-164.654c41.991-41.991 106.44 20.078 63.259 63.259z"/><path fill="#A3734F" d="M3.999 402.843c-6.764-14.952-5.723-33.191 9.298-48.211l164.654-164.654c15.479-15.48 34.007-16.81 49.076-10.163L3.999 402.843z"/></svg>