<svg viewBox="0 0 122.82 122.88" xmlns="http://www.w3.org/2000/svg"><path d="m32.15 88.94 1.33-1.33-7.06-.47 5.31-5.31 7 .52 1.27-1.23-7.07-.47 6.46-6.47 7 .52 6.29-6.29-50.52-50.53a14.22 14.22 0 0 1 -1.65-1.24 1.48 1.48 0 1 1 2-2.24c5.81 5.08 14.31 1.7 24.54-2.4 12.48-5 28.63-12.13 45.34-5.93 7.19 2.67 16.49 9.65 24.8 17.8l15.17-15.13-7.22-.49 3.28-3.25 14.4-5-5.14 14.23-3.27 3.28-.33-7-15.17 15.12c8.14 8.29 15.14 17.56 17.91 24.69 6.16 15.86-1.1 32.08-6.18 44.74-4.29 10.69-7.88 19.63-2.23 25.28a1.49 1.49 0 0 1 -2.11 2.1 13.34 13.34 0 0 1 -1.82-2.24l-50.07-50.07-6.29 6.29.66 7.17-6.47 6.46-.61-7.21-1.23 1.23.66 7.16-5.31 5.31-.61-7.21-1.33 1.34.65 7.16-6.62 6.62-.74-8.82-8.66-.58 6.62-6.62 7 .51zm22.22-22.21 36.94-36.94c-8-7.87-16.94-14.59-23.74-17.12-15.63-5.8-27.42-2.67-39.42 2.13-7.84 3.11-14.75 5.86-20.68 5l46.9 46.9zm38.63-35.22-36.91 36.94 46.5 46.5c-.75-5.93 2.09-13 5.3-21 4.87-12.15 8.12-24 2.38-38.77-2.63-6.76-9.37-15.66-17.27-23.67z" fill-rule="evenodd"/></svg>