<svg enable-background="new 0 0 122.88 122.88" viewBox="0 0 122.88 122.88" xmlns="http://www.w3.org/2000/svg"><path clip-rule="evenodd" d="m45.54 2.11c32.77-8.78 66.45 10.67 75.23 43.43 8.78 32.77-10.67 66.45-43.43 75.23-32.77 8.78-66.45-10.67-75.23-43.43-8.78-32.77 10.66-66.45 43.43-75.23zm-5.06 36.97c-10.13 0-18.35 8.22-18.35 18.35s8.22 18.35 18.35 18.35 18.35-8.22 18.35-18.35-8.21-18.35-18.35-18.35zm41.92 0c10.13 0 18.35 8.22 18.35 18.35s-8.22 18.35-18.35 18.35-18.35-8.22-18.35-18.35 8.21-18.35 18.35-18.35z" fill="#fbd433" fill-rule="evenodd"/><path d="m107.29 37.21c1.55 1.25 1.8 3.52.55 5.07s-3.52 1.8-5.07.55c-3.48-2.8-7.03-5.21-10.96-6.95-3.87-1.71-8.13-2.8-13.1-3.01-1.99-.08-3.54-1.75-3.46-3.74s1.75-3.54 3.74-3.46c5.98.25 11.1 1.55 15.73 3.6 4.57 2.03 8.63 4.77 12.57 7.94zm-61.3 62.71c-2.46 0-4.45-1.99-4.45-4.45s1.99-4.45 4.45-4.45h30.9c2.46 0 4.45 1.99 4.45 4.45s-1.99 4.45-4.45 4.45zm-5.51-50.17c-4.24 0-7.68 3.44-7.68 7.68s3.44 7.68 7.68 7.68 7.68-3.44 7.68-7.68-3.44-7.68-7.68-7.68zm41.92 0c4.24 0 7.68 3.44 7.68 7.68s-3.44 7.68-7.68 7.68-7.68-3.44-7.68-7.68 3.44-7.68 7.68-7.68zm-62.29-6.91c-1.55 1.25-3.82 1-5.07-.55s-1-3.82.55-5.07c3.94-3.17 8-5.91 12.57-7.94 4.63-2.05 9.74-3.35 15.73-3.6 1.99-.08 3.67 1.47 3.74 3.46.08 1.99-1.47 3.67-3.46 3.74-4.97.21-9.23 1.29-13.1 3.01-3.92 1.74-7.48 4.14-10.96 6.95z" fill="#141518"/></svg>