<svg enable-background="new 0 0 122.88 122.88" viewBox="0 0 122.88 122.88" xmlns="http://www.w3.org/2000/svg"><path clip-rule="evenodd" d="m45.54 2.11c32.77-8.78 66.45 10.67 75.23 43.43 8.78 32.77-10.67 66.45-43.43 75.23-32.77 8.78-66.45-10.67-75.23-43.43-8.78-32.77 10.66-66.45 43.43-75.23z" fill="#fbd433" fill-rule="evenodd"/><path clip-rule="evenodd" d="m47.31 32.51c.55.17 1.07.44 1.57.78 3.17 1.66 6.26 3.8 9.27 6.57 1.46 1.34 1.55 3.62.21 5.08-1.26 1.37-3.35 1.54-4.81.44-.24 6.5-3.62 11.65-7.77 11.65-4.3 0-7.78-5.54-7.78-12.37 0-2.8.59-5.39 1.57-7.46-3.3-1.03-6.74-1.63-10.34-2.02-1.97-.21-3.4-1.98-3.19-3.95s1.98-3.4 3.95-3.19c5.01.54 9.81 1.47 14.49 3.28.95.35 1.89.75 2.83 1.19zm-18.7 62.19c16.69-19.06 51.02-19.23 65.78.04l2.41-2.39c-16.54-28.07-51.56-29.07-70.7-.15zm64.28-66.68c1.97-.21 3.74 1.22 3.95 3.19s-1.22 3.74-3.19 3.95c-3.6.39-7.05.99-10.34 2.02.99 2.07 1.57 4.66 1.57 7.46 0 6.83-3.48 12.37-7.78 12.37-4.15 0-7.53-5.15-7.77-11.65-1.46 1.1-3.54.94-4.81-.44-1.34-1.46-1.25-3.73.21-5.08 3.01-2.77 6.1-4.91 9.27-6.57.5-.34 1.02-.61 1.57-.78.94-.44 1.88-.84 2.83-1.21 4.68-1.79 9.48-2.72 14.49-3.26z" fill="#141518" fill-rule="evenodd"/><path d="m28.6 94.38c1.66-1.87 3.49-3.56 5.45-5.06 8.08-6.19 18.43-9.26 28.58-9.19 10.16.07 20.13 3.29 27.45 9.7 1.58 1.38 3.03 2.91 4.33 4.58l2.1-2.09c-3.79-6.39-8.55-11.36-13.86-14.88-6.09-4.03-12.91-6.15-19.82-6.3-6.92-.15-13.94 1.66-20.44 5.49-5.92 3.49-11.42 8.66-16 15.54zm5.72-4.71c-2 1.53-3.86 3.26-5.54 5.17l-.02.02c-.09.09-.23.09-.32 0l-2.51-2.5c-.08-.07-.09-.2-.03-.29 4.65-7.02 10.23-12.28 16.25-15.83 6.57-3.87 13.68-5.71 20.68-5.55 7 .15 13.9 2.3 20.06 6.38 5.4 3.58 10.24 8.64 14.08 15.16.06.09.05.21-.03.28l-2.43 2.41c-.1.07-.24.06-.31-.04-1.33-1.73-2.81-3.3-4.43-4.72-7.23-6.33-17.1-9.52-27.15-9.59-10.06-.07-20.31 2.98-28.3 9.1z" fill="#ff0"/></svg>