<svg enable-background="new 0 0 111.94 122.88" viewBox="0 0 111.94 122.88" xmlns="http://www.w3.org/2000/svg"><g clip-rule="evenodd" fill-rule="evenodd"><path d="m77.05 25.63c.04 0 0 0-.18-.07-.3-.12-.05-.01.18.07z"/><path d="m84.64 41.12c.15.26.29.55.37.85l4.02 9.66c1.92.66 4.09 1.92 6.05 3.58 1.99 1.7 3.84 3.87 5.09 6.38l.15.37 11.29 42.16.04.11c.52 2.47.33 4.57-.55 6.27-.96 1.77-2.58 2.95-4.98 3.58l-21.5 5.75c-2.47 1.03-4.61.88-6.38-.22-1.7-1.03-2.95-2.88-3.84-5.35l-.04-.15-11.25-42.01-.04-.7c.22-2.51.48-5.05 1.11-7.45.59-2.21 1.51-4.2 2.99-5.83l-2.4-21.58-1.55-1.4-.59-.96-1.29-4.76c-.18-.66-.15-.52-.11-.44-.33-1.18-.48-1.7.18-2.62.52-.77 1.03-.88 1.95-1.07l.74-.18 11.1-2.99c.44-.11.7-.22.92-.3.81-.26 1.29-.44 2.1-.15 1.25.44 1.44 1.11 1.84 2.69l1.29 4.79.04.88-.37 2.03 3.73 8.93z"/><path d="m69.15 40.78 10.73-.66-2.91-7.01-.11-1.11.41-2.18-1.04-3.82-.15.04-10.84 2.91 1 3.69 1.66 1.51.66 1.25z" fill="#e6a10a"/><g fill="#ffb517"><path d="m66.94 10.76c-.29 1.44-1.73 2.36-3.17 2.03-1.44-.29-2.36-1.73-2.03-3.17l1.66-7.52c.3-1.44 1.73-2.36 3.17-2.03 1.44.29 2.36 1.73 2.03 3.17z"/><path d="m53.52 9.51c.37 1.44-.52 2.88-1.95 3.21-1.44.37-2.88-.52-3.21-1.95l-1.85-7.46c-.37-1.44.52-2.88 1.95-3.21 1.44-.37 2.88.52 3.21 1.95z"/><path d="m41.93 14.01c1.22.81 1.59 2.43.77 3.69-.81 1.22-2.43 1.59-3.69.77l-6.45-4.2c-1.22-.81-1.59-2.43-.77-3.69.81-1.22 2.43-1.59 3.69-.77z"/><path d="m77.38 16.22c-.85 1.18-2.54 1.44-3.73.59-1.18-.85-1.44-2.54-.59-3.73l4.5-6.23c.85-1.18 2.54-1.44 3.73-.59 1.18.85 1.44 2.54.59 3.73z"/></g><path d="m34.89 27.99c-.04 0 0 0 .18-.07.3-.12.04-.01-.18.07z"/><path d="m27.29 43.48c-.15.26-.29.55-.37.85l-4.02 9.66c-1.92.66-4.09 1.92-6.05 3.58-1.99 1.7-3.84 3.87-5.09 6.38l-.15.37-11.28 42.15-.04.11c-.52 2.47-.33 4.57.55 6.27.96 1.77 2.58 2.95 4.98 3.58l21.5 5.75c2.47 1.03 4.61.89 6.38-.22 1.7-1.03 2.95-2.88 3.84-5.35l.04-.15 11.25-42.01.04-.7c-.22-2.51-.48-5.05-1.11-7.45-.59-2.21-1.51-4.2-2.99-5.83l2.4-21.58 1.55-1.4.59-.96 1.29-4.76c.18-.66.15-.52.11-.44.33-1.18.48-1.7-.18-2.62-.52-.77-1.03-.89-1.95-1.07l-.74-.18-11.1-2.99c-.44-.11-.7-.22-.92-.3-.81-.26-1.29-.44-2.1-.15-1.25.44-1.44 1.11-1.84 2.69l-1.29 4.79-.04.88.37 2.03-3.73 8.93z"/><path d="m42.78 43.15-10.73-.66 2.91-7.01.11-1.11-.41-2.18 1.03-3.84.15.04 10.84 2.91-1 3.69-1.66 1.51-.66 1.25z" fill="#e6a10a"/><path d="m50.82 31.42c0 .03 0 .03 0 0z"/><path d="m61.19 29.02c0 .04 0 .04 0 0z"/><path d="m107.1 102.86-29.58 7.93.59 2.25c.59 1.59 1.29 2.69 2.14 3.21.7.44 1.66.41 2.91-.11l.26-.11 21.61-5.79c1.25-.33 2.07-.85 2.47-1.62.44-.81.48-1.95.18-3.43l-.63-2.32z" fill="#96223b"/><path d="m97.81 68.22-29.58 7.93 7.89 29.47 29.58-7.93z" fill="#eecd65"/><path d="m67.01 70.95 29.39-7.89c-1-1.88-2.43-3.54-3.95-4.83-1.84-1.59-3.84-2.66-5.46-3.06l-.96-.26-.37-.92-3.61-8.7-12.32.74 1.4 12.58.11 1-.77.7c-1.25 1.14-2.03 2.8-2.54 4.68-.48 1.84-.74 3.87-.92 5.94z" fill="#96223b"/><path d="m4.83 105.22 29.58 7.93-.59 2.25c-.59 1.59-1.29 2.69-2.14 3.21-.7.44-1.66.41-2.91-.11l-.26-.11-21.61-5.79c-1.25-.33-2.07-.85-2.47-1.62-.44-.81-.48-1.95-.18-3.43l.63-2.32z" fill="#96223b"/><path d="m14.13 70.59 29.58 7.93-7.89 29.47-29.58-7.93z" fill="#eecd65"/><path d="m44.92 73.31-29.39-7.89c1-1.88 2.43-3.54 3.95-4.83 1.84-1.59 3.84-2.66 5.46-3.06l.96-.26.37-.92 3.61-8.7 12.32.74-1.4 12.58-.11 1 .77.7c1.25 1.14 2.03 2.8 2.54 4.68.48 1.84.74 3.87.92 5.94z" fill="#96223b"/><path d="m27.88 78.44c-6.38-1.7-12.91 2.07-14.61 8.45s2.07 12.91 8.45 14.6c6.38 1.7 12.91-2.07 14.6-8.45 1.71-6.37-2.06-12.9-8.44-14.6z" fill="#e6a10a"/><path d="m84.09 76.04c6.38-1.7 12.91 2.07 14.61 8.45s-2.07 12.91-8.45 14.61-12.91-2.07-14.6-8.45c-1.7-6.38 2.06-12.91 8.44-14.61z" fill="#e6a10a"/><path d="m26.7 82.87-3.39 4.46-5.53-1.03 3.21 4.61-2.69 4.94 5.38-1.62 3.84 4.09.11-5.61 5.09-2.4-5.31-1.84-.7-5.57z" fill="#96223b"/><path d="m85.27 80.51 3.39 4.46 5.53-1.03-3.21 4.61 2.69 4.94-5.38-1.62-3.84 4.09-.11-5.61-5.09-2.4 5.31-1.84.7-5.57z" fill="#96223b"/></g></svg>